SplineFontDB: 3.2
FontName: NVCharter-Roman
FullName: NV Charter Roman
FamilyName: NV Charter
Weight: Normal
Copyright: Copyright (c) 1989-1992, Bitstream Inc., Cambridge, MA.\nCopyright (c) 2009, 2010, 2011, 2012 Andrey V. Panov \nCopyright (c) 2013-2024 Michael Sharpe\n\nThis font is an extension of Bitstream Charter, whose original license is reproduced below, as required under the terms of that license. The extension provides small caps, oldstyle figures and superior figures in all four styles, accompanied by LaTeX font support files.\n\n---\n\nYou are hereby granted permission under all Bitstream propriety rights\nto use, copy, modify, sublicense, sell, and redistribute the 4 Bitstream\nCharter (r) Type 1 outline fonts and the 4 Courier Type 1 outline fonts\nfor any purpose and without restriction; provided, that this notice is\nleft intact on all copies of such fonts and that Bitstream's trademark\nis acknowledged as shown below on all unmodified copies of the 4 Charter\nType 1 fonts.\n\nBITSTREAM CHARTER is a registered trademark of Bitstream Inc.
Version: 1.221
ItalicAngle: 0
UnderlinePosition: -108
UnderlineWidth: 61
Ascent: 800
Descent: 200
InvalidEm: 0
sfntRevision: 0x00013893
LayerCount: 2
Layer: 0 0 "Back" 1
Layer: 1 0 "Fore" 0
XUID: [1021 782 532578852 5406894]
StyleMap: 0x0040
FSType: 0
OS2Version: 4
OS2_WeightWidthSlopeOnly: 0
OS2_UseTypoMetrics: 1
CreationTime: 1398298161
ModificationTime: 1739032486
PfmFamily: 17
TTFWeight: 400
TTFWidth: 5
LineGap: 90
VLineGap: 0
Panose: 2 0 5 3 0 0 0 0 0 0
OS2TypoAscent: 800
OS2TypoAOffset: 0
OS2TypoDescent: -200
OS2TypoDOffset: 0
OS2TypoLinegap: 90
OS2WinAscent: 963
OS2WinAOffset: 0
OS2WinDescent: 236
OS2WinDOffset: 0
HheadAscent: 963
HheadAOffset: 0
HheadDescent: -236
HheadDOffset: 0
OS2SubXSize: 650
OS2SubYSize: 700
OS2SubXOff: 0
OS2SubYOff: 140
OS2SupXSize: 650
OS2SupYSize: 700
OS2SupXOff: 0
OS2SupYOff: 480
OS2StrikeYSize: 49
OS2StrikeYPos: 258
OS2CapHeight: 671
OS2XHeight: 481
OS2Vendor: 'PfEd'

StartChar: .notdef
Encoding: 1114112 -1 0
Width: 500
GlyphClass: 1
Flags: MW
HStem: 0 50<100 400 100 450> 483 50<100 400 100 100>
VStem: 50 50<50 50 50 483> 400 50<50 483 483 483>
LayerCount: 2
Fore
SplineSet
50 0 m 1
 50 533 l 1
 450 533 l 1
 450 0 l 1
 50 0 l 1
100 50 m 1
 400 50 l 1
 400 483 l 1
 100 483 l 1
 100 50 l 1
EndSplineSet
EndChar

StartChar: exclam
Encoding: 33 33 2
Width: 338
GlyphClass: 2
Flags: MW
HStem: -9 114<153.5 185> 663 20G<151 187>
VStem: 112 114<32.5 64 32.5 64>
LayerCount: 2
Fore
SplineSet
221 553 m 2
 193 171 l 1
 145 171 l 1
 117 553 l 2
 115 575 114 594 114 611 c 0
 114 659 133 683 169 683 c 0
 205 683 224 658 224 611 c 0
 224 600 223 581 221 553 c 2
169 105 m 0
 201 105 226 80 226 48 c 0
 226 17 201 -9 169 -9 c 0
 138 -9 112 16 112 48 c 0
 112 80 138 105 169 105 c 0
EndSplineSet
Substitution2: "'sups' Superscript lookup 9 subtable" exclam.superior
Substitution2: "'c2sc' Capitals to Small Capitals in Latin lookup 6 subtable" exclam.sc
EndChar

StartChar: quotedbl
Encoding: 34 34 3
Width: 331
GlyphClass: 2
Flags: MW
HStem: 422 292<77 93 77 77 238 238 238 253>
VStem: 44 83<662.5 681 662.5 681> 204 83<662.5 680.5>
LayerCount: 2
Fore
SplineSet
93 422 m 1
 77 422 l 1
 46 645 l 2
 45 652 44 659 44 665 c 0
 44 697 59 714 85 714 c 0
 111 714 127 697 127 665 c 0
 127 660 126 653 125 645 c 2
 93 422 l 1
253 422 m 1
 238 422 l 1
 206 645 l 2
 205 652 204 658 204 664 c 0
 204 697 220 714 246 714 c 0
 272 714 287 697 287 665 c 0
 287 660 287 653 286 645 c 2
 253 422 l 1
EndSplineSet
EndChar

StartChar: numbersign
Encoding: 35 35 4
Width: 745
GlyphClass: 2
Flags: MW
HStem: 230 47<64 208 64 223 274 409 64 256 476 639> 423 47<113 271 113 287 338 474 113 323 541 680>
LayerCount: 2
Fore
SplineSet
370 710 m 1
 417 692 l 1
 338 470 l 1
 492 470 l 1
 572 709 l 1
 619 692 l 1
 541 470 l 1
 680 470 l 1
 680 423 l 1
 525 423 l 1
 476 277 l 1
 639 277 l 1
 639 230 l 1
 460 230 l 1
 376 -23 l 1
 329 -7 l 1
 409 230 l 1
 256 230 l 1
 173 -23 l 1
 126 -7 l 1
 208 230 l 1
 64 230 l 1
 64 277 l 1
 223 277 l 1
 271 423 l 1
 113 423 l 1
 113 470 l 1
 287 470 l 1
 370 710 l 1
323 423 m 1
 274 277 l 1
 423 277 l 1
 474 423 l 1
 323 423 l 1
EndSplineSet
Substitution2: "'sups' Superscript lookup 9 subtable" numbersign.superior
EndChar

StartChar: dollar
Encoding: 36 36 5
Width: 556
GlyphClass: 2
Flags: MW
HStem: 0 46<234 259 234 301> 625 47<301 309 309 317.5> 723 20G<259 301 301 301>
VStem: 58 46<25 193 193 193> 76 85<479 534.5> 259 42<-102 0 -102 0 392 622 622 622 672 743> 415 83<144.5 203> 425 45<494 650>
LayerCount: 2
Fore
SplineSet
259 743 m 1xec
 301 743 l 1
 301 672 l 1
 309 672 l 2
 355 672 409 664 470 650 c 1
 470 494 l 1
 425 494 l 1xed
 410 587 l 1
 395 608 l 1
 365 619 334 625 301 625 c 1
 301 380 l 1
 437 343 498 292 498 192 c 0
 498 97 425 22 301 0 c 1
 301 -102 l 1
 259 -102 l 1
 259 0 l 1
 174 3 107 12 58 25 c 1
 58 193 l 1
 104 193 l 1xf6
 122 84 l 1
 131 71 l 1
 166 54 209 46 259 46 c 1
 259 307 l 1
 137 335 76 396 76 489 c 0
 76 580 141 649 259 669 c 1
 259 743 l 1xec
259 622 m 1
 196 608 161 565 161 507 c 0
 161 451 193 413 259 392 c 1
 259 622 l 1
303 294 m 1
 303 50 l 1
 373 61 415 110 415 174 c 0xe6
 415 232 378 272 303 294 c 1
EndSplineSet
Substitution2: "'sups' Superscript lookup 9 subtable" dollar.superior
Substitution2: "'smcp' Lowercase to Small Capitals in Latin lookup 4 subtable" dollar.sc
EndChar

StartChar: percent
Encoding: 37 37 6
Width: 852
GlyphClass: 2
Flags: MW
HStem: -12 36<643.5 695 643.5 716.5> 0 21G<181 241 181 181> 264 36<153.5 205 153.5 226.5> 372 35<644 694.5> 647 36<154 204.5> 651 20G<608 669 669 669>
VStem: 31 70<416.5 531 416.5 540> 259 72<416.5 531.5> 521 70<140.5 255 140.5 264> 749 72<140.5 255.5>
LayerCount: 2
Fore
SplineSet
181 683 m 0x3bc0
 271 683 331 606 331 474 c 0
 331 341 272 264 181 264 c 0
 90 264 31 340 31 474 c 0
 31 606 91 683 181 683 c 0x3bc0
608 671 m 1x77c0
 669 671 l 1
 241 0 l 1
 181 0 l 1
 608 671 l 1x77c0
179 647 m 0x3bc0
 129 647 101 588 101 474 c 0
 101 359 128 300 179 300 c 0
 231 300 259 359 259 474 c 0
 259 589 230 647 179 647 c 0x3bc0
671 407 m 0
 761 407 821 330 821 198 c 0
 821 65 762 -12 671 -12 c 0xb3c0
 580 -12 521 64 521 198 c 0
 521 330 581 407 671 407 c 0
669 372 m 0
 619 372 591 312 591 198 c 0
 591 83 618 24 669 24 c 0
 721 24 749 83 749 198 c 0
 749 313 720 372 669 372 c 0
EndSplineSet
Substitution2: "'sups' Superscript lookup 9 subtable" percent.superior
EndChar

StartChar: ampersand
Encoding: 38 38 7
Width: 704
GlyphClass: 2
Flags: MW
HStem: -12 60<249 299> 0 41<507 683> 316 40<466 669 466 669> 637 46<249.5 306>
VStem: 53 92<160.5 225> 103 80<513 563> 374 83<495.5 561>
LayerCount: 2
Fore
SplineSet
276 390 m 1x36
 343 421 374 463 374 528 c 0
 374 594 336 637 276 637 c 0
 223 637 183 596 183 539 c 0
 183 487 215 444 276 390 c 1x36
311 357 m 1
 483 171 l 1
 513 214 532 252 539 289 c 1
 521 308 l 1
 466 316 l 1
 466 356 l 1
 669 356 l 1
 669 316 l 1
 597 306 l 1
 579 244 552 187 514 136 c 1
 592 46 l 1
 683 41 l 1
 683 0 l 1
 507 0 l 1x76
 507 24 l 1
 462 74 l 1
 396 17 332 -12 266 -12 c 0
 141 -12 53 74 53 185 c 0xba
 53 265 97 324 185 364 c 1
 131 417 103 463 103 517 c 0
 103 609 180 683 285 683 c 0
 391 683 457 616 457 533 c 0
 457 453 412 404 311 357 c 1
223 335 m 1
 170 299 145 260 145 206 c 0
 145 115 206 48 292 48 c 0xba
 343 48 388 67 431 108 c 1
 223 335 l 1
EndSplineSet
Substitution2: "'sups' Superscript lookup 9 subtable" ampersand.superior
Substitution2: "'c2sc' Capitals to Small Capitals in Latin lookup 6 subtable" ampersand.sc
EndChar

StartChar: quotesingle
Encoding: 39 39 8
Width: 170
GlyphClass: 2
Flags: MW
HStem: 422 292<77 93 77 77>
VStem: 44 83<662.5 680.5>
LayerCount: 2
Fore
SplineSet
93 422 m 1
 77 422 l 1
 45 645 l 2
 44 652 44 658 44 664 c 0
 44 697 59 714 85 714 c 0
 111 714 127 697 127 665 c 0
 127 660 126 653 125 645 c 2
 93 422 l 1
EndSplineSet
EndChar

StartChar: parenleft
Encoding: 40 40 9
Width: 417
GlyphClass: 2
Flags: MW
HStem: -142 42<386 386> 676 42<386 386>
VStem: 106 85<166.5 404 166.5 415>
LayerCount: 2
Fore
SplineSet
386 718 m 1
 386 676 l 1
 249 652 191 524 191 284 c 0
 191 49 252 -77 386 -100 c 1
 386 -142 l 1
 212 -122 106 29 106 285 c 0
 106 545 208 696 386 718 c 1
EndSplineSet
Substitution2: "'subs' Subscript lookup 10 subtable" uni208D
Substitution2: "'sups' Superscript lookup 9 subtable" uni207D
EndChar

StartChar: parenright
Encoding: 41 41 10
Width: 417
GlyphClass: 2
Flags: MW
HStem: -142 42<31 31> 676 42<31 31>
VStem: 226 85<166.5 404>
LayerCount: 2
Fore
SplineSet
31 718 m 1
 209 696 311 545 311 285 c 0
 311 29 205 -122 31 -142 c 1
 31 -100 l 1
 165 -77 226 49 226 284 c 0
 226 524 168 652 31 676 c 1
 31 718 l 1
EndSplineSet
Substitution2: "'subs' Subscript lookup 10 subtable" uni208E
Substitution2: "'sups' Superscript lookup 9 subtable" uni207E
EndChar

StartChar: asterisk
Encoding: 42 42 11
Width: 500
GlyphClass: 2
Flags: MW
HStem: 471 20G<234 234 266 266> 507 82
VStem: 211 78<657 657>
LayerCount: 2
Fore
SplineSet
250 718 m 1
 289 657 l 1
 257 532 l 1
 243 532 l 1
 211 657 l 1
 250 718 l 1
377 589 m 1
 447 571 l 1
 401 515 l 1
 273 507 l 1
 269 520 l 1
 377 589 l 1
266 491 m 1
 365 410 l 1
 369 338 l 1
 302 364 l 1
 255 484 l 1
 266 491 l 1
234 491 m 1
 244 484 l 1
 197 363 l 1
 130 338 l 1
 134 410 l 1
 234 491 l 1
123 589 m 1
 232 519 l 1
 228 507 l 1
 99 515 l 1
 54 571 l 1
 123 589 l 1
EndSplineSet
Substitution2: "'sups' Superscript lookup 9 subtable" asterisk.superior
EndChar

StartChar: plus
Encoding: 43 43 12
Width: 833
GlyphClass: 2
Flags: MW
HStem: 0 21G<388 446 388 388> 270 57<124 388 124 388 446 709>
VStem: 388 58<0 270 0 270 327 596>
LayerCount: 2
Fore
SplineSet
388 596 m 1
 446 596 l 1
 446 327 l 1
 709 327 l 1
 709 270 l 1
 446 270 l 1
 446 0 l 1
 388 0 l 1
 388 270 l 1
 124 270 l 1
 124 327 l 1
 388 327 l 1
 388 596 l 1
EndSplineSet
Substitution2: "'subs' Subscript lookup 10 subtable" uni208A
Substitution2: "'sups' Superscript lookup 9 subtable" uni207A
EndChar

StartChar: comma
Encoding: 44 44 13
Width: 278
GlyphClass: 2
Flags: MW
HStem: -169 33<39 39> 7 99<111 149 85 153>
VStem: 149 59<-4 7 7 7>
LayerCount: 2
Fore
SplineSet
39 -169 m 1
 39 -136 l 1
 112 -122 149 -77 149 -4 c 2
 149 7 l 1
 85 7 l 1
 74 19 69 33 69 51 c 0
 69 84 94 106 128 106 c 0
 178 106 208 70 208 6 c 0
 208 -80 140 -158 39 -169 c 1
EndSplineSet
Substitution2: "'sups' Superscript lookup 9 subtable" comma.superior
EndChar

StartChar: hyphen
Encoding: 45 45 14
Width: 319
GlyphClass: 2
Flags: MW
HStem: 207 67<47 272 47 272>
VStem: 47 225<207 274 207 274>
LayerCount: 2
Fore
SplineSet
47 274 m 1
 272 274 l 1
 272 207 l 1
 47 207 l 1
 47 274 l 1
EndSplineSet
Substitution2: "'subs' Subscript lookup 10 subtable" uni208B
Substitution2: "'sups' Superscript lookup 9 subtable" hyphen.superior
EndChar

StartChar: period
Encoding: 46 46 15
Width: 278
GlyphClass: 2
Flags: MW
HStem: -9 127<121.5 156.5>
VStem: 75 127<36.5 72 36.5 72>
LayerCount: 2
Fore
SplineSet
139 118 m 0
 174 118 202 90 202 54 c 0
 202 19 174 -9 139 -9 c 0
 104 -9 75 18 75 54 c 0
 75 90 104 118 139 118 c 0
EndSplineSet
Substitution2: "'sups' Superscript lookup 9 subtable" period.superior
EndChar

StartChar: slash
Encoding: 47 47 16
Width: 481
GlyphClass: 2
Flags: MW
HStem: 651 20G<399 460 460 460>
LayerCount: 2
Fore
SplineSet
399 671 m 1
 460 671 l 1
 32 -93 l 1
 -28 -93 l 1
 399 671 l 1
EndSplineSet
Substitution2: "'sups' Superscript lookup 9 subtable" slash.superior
EndChar

StartChar: zero
Encoding: 48 48 17
Width: 556
GlyphClass: 2
Flags: MW
HStem: -12 48<232 324 232 349.5> 636 47<232 324>
VStem: 41 94<236 434.5 236 446.5> 420 95<237 435>
LayerCount: 2
Fore
SplineSet
278 683 m 0
 421 683 515 557 515 336 c 0
 515 115 421 -12 278 -12 c 0
 135 -12 41 115 41 336 c 0
 41 557 135 683 278 683 c 0
278 636 m 0
 186 636 135 534 135 335 c 0
 135 137 186 36 278 36 c 0
 370 36 420 138 420 336 c 0
 420 534 370 636 278 636 c 0
EndSplineSet
Substitution2: "'pnum' Proportional Numbers lookup 16 subtable" zero.lf
Substitution2: "'onum' Oldstyle Figures lookup 15 subtable" zero.tosf
Substitution2: "'dnom' Denominators lookup 12 subtable" zero.denominator
Substitution2: "'numr' Numerators lookup 11 subtable" zero.numerator
Substitution2: "'subs' Subscript lookup 10 subtable" uni2080
Substitution2: "'sups' Superscript lookup 9 subtable" uni2070
EndChar

StartChar: one
Encoding: 49 49 18
Width: 556
GlyphClass: 2
Flags: MW
HStem: 0 43<124 459 124 124> 576 42<94 94> 663 20G<311 339 339 339>
VStem: 251 88<66 604 604 604>
LayerCount: 2
Fore
SplineSet
311 683 m 1
 339 683 l 1
 339 62 l 1
 351 47 l 1
 459 42 l 1
 459 0 l 1
 124 0 l 1
 124 43 l 1
 239 49 l 1
 251 66 l 1
 251 604 l 1
 94 576 l 1
 94 618 l 1
 311 683 l 1
EndSplineSet
Substitution2: "'pnum' Proportional Numbers lookup 16 subtable" one.lf
Substitution2: "'onum' Oldstyle Figures lookup 15 subtable" one.tosf
Substitution2: "'dnom' Denominators lookup 12 subtable" one.denominator
Substitution2: "'numr' Numerators lookup 11 subtable" one.numerator
Substitution2: "'subs' Subscript lookup 10 subtable" uni2081
Substitution2: "'sups' Superscript lookup 9 subtable" one.superior
EndChar

StartChar: two
Encoding: 50 50 19
Width: 556
GlyphClass: 2
Flags: MW
HStem: 0 79<141 442 141 505> 486 21G<101.5 127> 632 51<238 294.5>
VStem: 63 101<525 577> 386 97<431 528.5> 460 45<0 164>
LayerCount: 2
Fore
SplineSet
141 79 m 1xf8
 442 79 l 1
 460 164 l 1
 505 164 l 1
 505 0 l 1xf4
 42 0 l 1
 42 63 l 1
 261 241 386 350 386 481 c 0
 386 576 336 632 253 632 c 0
 223 632 194 625 164 608 c 1
 164 501 l 1
 150 491 135 486 119 486 c 0
 84 486 63 508 63 542 c 0
 63 612 151 683 275 683 c 0
 404 683 483 607 483 494 c 0
 483 368 362 255 141 79 c 1xf8
EndSplineSet
Substitution2: "'pnum' Proportional Numbers lookup 16 subtable" two.lf
Substitution2: "'onum' Oldstyle Figures lookup 15 subtable" two.tosf
Substitution2: "'dnom' Denominators lookup 12 subtable" two.denominator
Substitution2: "'numr' Numerators lookup 11 subtable" two.numerator
Substitution2: "'subs' Subscript lookup 10 subtable" uni2082
Substitution2: "'sups' Superscript lookup 9 subtable" two.superior
EndChar

StartChar: three
Encoding: 51 51 20
Width: 556
GlyphClass: 2
Flags: MW
HStem: -11 47<228 288.5 228 316> 319 54<244 270.5 216.5 300> 632 51<230.5 286.5>
VStem: 58 95<534 583> 375 91<476.5 541.5> 400 92<149.5 233.5>
LayerCount: 2
Fore
SplineSet
317 353 m 1xf8
 428 345 492 283 492 192 c 0
 492 80 393 -11 239 -11 c 0
 120 -11 41 48 41 99 c 0
 41 128 65 150 97 150 c 0
 106 150 116 149 127 145 c 1
 158 60 l 1
 185 44 213 36 243 36 c 0
 334 36 400 105 400 194 c 0xf4
 400 273 348 319 252 319 c 0
 236 319 218 318 199 315 c 1
 199 374 l 1
 206 374 213 373 220 373 c 0
 321 373 375 421 375 502 c 0
 375 581 325 632 248 632 c 0
 213 632 182 623 153 603 c 1
 153 509 l 1
 141 500 128 496 112 496 c 0
 80 496 58 518 58 550 c 0
 58 616 144 683 269 683 c 0
 389 683 466 616 466 515 c 0
 466 438 415 381 317 353 c 1xf8
EndSplineSet
Substitution2: "'pnum' Proportional Numbers lookup 16 subtable" three.lf
Substitution2: "'onum' Oldstyle Figures lookup 15 subtable" three.tosf
Substitution2: "'dnom' Denominators lookup 12 subtable" three.denominator
Substitution2: "'numr' Numerators lookup 11 subtable" three.numerator
Substitution2: "'subs' Subscript lookup 10 subtable" uni2083
Substitution2: "'sups' Superscript lookup 9 subtable" three.superior
EndChar

StartChar: four
Encoding: 52 52 21
Width: 556
GlyphClass: 2
Flags: MW
HStem: 194 65<102 349 27 27 426 539> 657 20G<368 426 426 426>
VStem: 349 77<-37 194 -37 194 259 568 568 568>
LayerCount: 2
Fore
SplineSet
368 677 m 1
 426 677 l 1
 426 259 l 1
 539 259 l 1
 539 194 l 1
 426 194 l 1
 426 -37 l 1
 349 -37 l 1
 349 194 l 1
 27 194 l 1
 27 259 l 1
 368 677 l 1
349 568 m 1
 102 259 l 1
 349 259 l 1
 349 568 l 1
EndSplineSet
Substitution2: "'pnum' Proportional Numbers lookup 16 subtable" four.lf
Substitution2: "'onum' Oldstyle Figures lookup 15 subtable" four.tosf
Substitution2: "'dnom' Denominators lookup 12 subtable" four.denominator
Substitution2: "'numr' Numerators lookup 11 subtable" four.numerator
Substitution2: "'subs' Subscript lookup 10 subtable" uni2084
Substitution2: "'sups' Superscript lookup 9 subtable" uni2074
EndChar

StartChar: five
Encoding: 53 53 22
Width: 556
GlyphClass: 2
Flags: MW
HStem: -9 46<228 286 228 304> 347 62<254 258.5> 593 78<163 459 163 163>
VStem: 101 62<393 593 393 671> 397 92<152.5 248.5>
LayerCount: 2
Fore
SplineSet
101 671 m 1
 459 671 l 1
 459 593 l 1
 163 593 l 1
 163 393 l 1
 202 404 238 409 270 409 c 0
 404 409 489 331 489 217 c 0
 489 88 386 -9 222 -9 c 0
 119 -9 50 37 50 85 c 0
 50 116 74 138 108 138 c 0
 114 138 122 137 132 135 c 1
 172 49 l 1
 194 41 217 37 239 37 c 0
 333 37 397 104 397 197 c 0
 397 300 328 347 189 347 c 0
 152 347 123 345 101 341 c 1
 101 671 l 1
EndSplineSet
Substitution2: "'pnum' Proportional Numbers lookup 16 subtable" five.lf
Substitution2: "'onum' Oldstyle Figures lookup 15 subtable" five.tosf
Substitution2: "'dnom' Denominators lookup 12 subtable" five.denominator
Substitution2: "'numr' Numerators lookup 11 subtable" five.numerator
Substitution2: "'subs' Subscript lookup 10 subtable" uni2085
Substitution2: "'sups' Superscript lookup 9 subtable" uni2075
EndChar

StartChar: six
Encoding: 54 54 23
Width: 556
GlyphClass: 2
Flags: MW
HStem: -12 48<244 332.5 244 351.5> 385 60<287.5 332.5> 656 58<360 443 440 443>
VStem: 50 93<199.5 288.5 199.5 405> 434 91<165 269.5>
LayerCount: 2
Fore
SplineSet
443 714 m 1
 443 656 l 1
 440 656 l 2
 280 656 178 562 147 384 c 1
 199 424 258 445 317 445 c 0
 436 445 525 354 525 227 c 0
 525 92 420 -12 283 -12 c 0
 148 -12 50 97 50 277 c 0
 50 533 198 698 443 714 c 1
145 340 m 1
 143 319 143 298 143 279 c 0
 143 120 197 36 291 36 c 0
 374 36 434 112 434 218 c 0
 434 321 375 385 290 385 c 0
 235 385 186 370 145 340 c 1
EndSplineSet
Substitution2: "'pnum' Proportional Numbers lookup 16 subtable" six.lf
Substitution2: "'onum' Oldstyle Figures lookup 15 subtable" six.tosf
Substitution2: "'dnom' Denominators lookup 12 subtable" six.denominator
Substitution2: "'numr' Numerators lookup 11 subtable" six.numerator
Substitution2: "'subs' Subscript lookup 10 subtable" uni2086
Substitution2: "'sups' Superscript lookup 9 subtable" uni2076
EndChar

StartChar: seven
Encoding: 55 55 24
Width: 556
GlyphClass: 2
Flags: MW
HStem: 595 76<134 442 134 134>
VStem: 71 47<504 671>
LayerCount: 2
Fore
SplineSet
71 671 m 1
 531 671 l 1
 531 631 l 1
 199 -15 l 1
 199 -37 l 1
 116 -37 l 1
 442 595 l 1
 134 595 l 1
 118 504 l 1
 71 504 l 1
 71 671 l 1
EndSplineSet
Substitution2: "'pnum' Proportional Numbers lookup 16 subtable" seven.lf
Substitution2: "'onum' Oldstyle Figures lookup 15 subtable" seven.tosf
Substitution2: "'dnom' Denominators lookup 12 subtable" seven.denominator
Substitution2: "'numr' Numerators lookup 11 subtable" seven.numerator
Substitution2: "'subs' Subscript lookup 10 subtable" uni2087
Substitution2: "'sups' Superscript lookup 9 subtable" uni2077
EndChar

StartChar: eight
Encoding: 56 56 25
Width: 556
GlyphClass: 2
Flags: MW
HStem: -16 52<230 321 230 344.5> 637 48<245.5 316.5>
VStem: 44 77<139 216.5 139 216.5> 76 83<486 552 486 557> 401 77<484 547> 420 86<129.5 208.5>
LayerCount: 2
Fore
SplineSet
321 369 m 1xd8
 373 403 401 454 401 507 c 0
 401 587 353 637 280 637 c 0
 211 637 159 585 159 519 c 0
 159 453 212 408 321 369 c 1xd8
363 351 m 1
 457 318 506 257 506 179 c 0
 506 73 414 -16 275 -16 c 0
 131 -16 44 64 44 177 c 0xe4
 44 256 90 315 181 350 c 1
 112 379 76 432 76 504 c 0
 76 610 159 685 283 685 c 0
 403 685 478 614 478 517 c 0
 478 451 437 390 363 351 c 1
219 329 m 1
 151 293 121 250 121 183 c 0
 121 95 182 36 278 36 c 0
 364 36 420 90 420 169 c 0
 420 248 353 279 219 329 c 1
EndSplineSet
Substitution2: "'pnum' Proportional Numbers lookup 16 subtable" eight.lf
Substitution2: "'onum' Oldstyle Figures lookup 15 subtable" eight.tosf
Substitution2: "'dnom' Denominators lookup 12 subtable" eight.denominator
Substitution2: "'numr' Numerators lookup 11 subtable" eight.numerator
Substitution2: "'subs' Subscript lookup 10 subtable" uni2088
Substitution2: "'sups' Superscript lookup 9 subtable" uni2078
EndChar

StartChar: nine
Encoding: 57 57 26
Width: 556
GlyphClass: 2
Flags: MW
HStem: 230 54<237.5 270> 634 47<237 323.5>
VStem: 43 94<400.5 511 400.5 514> 423 89<404 490>
LayerCount: 2
Fore
SplineSet
411 319 m 1
 419 354 423 388 423 420 c 0
 423 560 369 634 278 634 c 0
 196 634 137 566 137 456 c 0
 137 345 190 284 285 284 c 0
 324 284 366 296 411 319 c 1
126 -52 m 1
 103 -6 l 1
 257 66 354 154 398 269 c 1
 342 243 292 230 248 230 c 0
 127 230 43 315 43 445 c 0
 43 583 143 681 287 681 c 0
 427 681 512 586 512 425 c 0
 512 228 373 42 126 -52 c 1
EndSplineSet
Substitution2: "'pnum' Proportional Numbers lookup 16 subtable" nine.lf
Substitution2: "'onum' Oldstyle Figures lookup 15 subtable" nine.tosf
Substitution2: "'dnom' Denominators lookup 12 subtable" nine.denominator
Substitution2: "'numr' Numerators lookup 11 subtable" nine.numerator
Substitution2: "'subs' Subscript lookup 10 subtable" uni2089
Substitution2: "'sups' Superscript lookup 9 subtable" uni2079
EndChar

StartChar: colon
Encoding: 58 58 27
Width: 319
GlyphClass: 2
Flags: MW
HStem: -9 127<141.5 176.5> 354 127<141.5 176.5>
VStem: 96 127<36.5 72 36.5 72 400.5 436>
LayerCount: 2
Fore
SplineSet
159 481 m 0
 194 481 223 454 223 418 c 0
 223 383 194 354 159 354 c 0
 124 354 96 383 96 418 c 0
 96 454 124 481 159 481 c 0
159 118 m 0
 194 118 223 90 223 54 c 0
 223 19 194 -9 159 -9 c 0
 124 -9 96 18 96 54 c 0
 96 90 124 118 159 118 c 0
EndSplineSet
Substitution2: "'sups' Superscript lookup 9 subtable" colon.superior
EndChar

StartChar: semicolon
Encoding: 59 59 28
Width: 319
GlyphClass: 2
Flags: MW
HStem: -169 33<65 65> 7 99<136 175 110 178> 354 127<141.5 176.5>
VStem: 96 127<400.5 436> 175 58<-4 7 7 7>
LayerCount: 2
Fore
SplineSet
159 481 m 0xf0
 194 481 223 454 223 418 c 0
 223 383 194 354 159 354 c 0
 124 354 96 383 96 418 c 0
 96 454 124 481 159 481 c 0xf0
65 -169 m 1
 65 -136 l 1
 138 -122 175 -77 175 -4 c 2
 175 7 l 1
 110 7 l 1
 99 19 94 33 94 51 c 0
 94 84 119 106 153 106 c 0
 203 106 233 70 233 6 c 0xe8
 233 -80 166 -158 65 -169 c 1
EndSplineSet
Substitution2: "'sups' Superscript lookup 9 subtable" semicolon.superior
EndChar

StartChar: less
Encoding: 60 60 29
Width: 833
GlyphClass: 2
Flags: W
LayerCount: 2
Fore
SplineSet
704 559 m 1
 704 497 l 1
 216 298 l 1
 704 100 l 1
 704 37 l 1
 129 273 l 1
 129 323 l 1
 704 559 l 1
EndSplineSet
Substitution2: "'sups' Superscript lookup 9 subtable" less.superior
EndChar

StartChar: equal
Encoding: 61 61 30
Width: 833
GlyphClass: 2
Flags: MW
HStem: 176 57<124 709 124 709> 363 57<124 709 124 709>
LayerCount: 2
Fore
SplineSet
124 420 m 1
 709 420 l 1
 709 363 l 1
 124 363 l 1
 124 420 l 1
124 233 m 1
 709 233 l 1
 709 176 l 1
 124 176 l 1
 124 233 l 1
EndSplineSet
Substitution2: "'subs' Subscript lookup 10 subtable" uni208C
Substitution2: "'sups' Superscript lookup 9 subtable" uni207C
EndChar

StartChar: greater
Encoding: 62 62 31
Width: 833
GlyphClass: 2
Flags: W
LayerCount: 2
Fore
SplineSet
129 559 m 1
 704 323 l 1
 704 273 l 1
 129 37 l 1
 129 100 l 1
 617 298 l 1
 129 497 l 1
 129 559 l 1
EndSplineSet
Substitution2: "'sups' Superscript lookup 9 subtable" greater.superior
EndChar

StartChar: question
Encoding: 63 63 32
Width: 486
GlyphClass: 2
Flags: MW
HStem: -9 114<184.5 216> 637 46<173 179 173 173>
VStem: 144 114<32.5 64 32.5 64> 174 53<171 288 171 317 171 317> 319 91<455 540.5>
LayerCount: 2
Fore
SplineSet
227 288 m 1xd8
 227 171 l 1
 174 171 l 1
 174 317 l 1
 270 353 319 413 319 496 c 0
 319 585 268 637 179 637 c 2
 173 637 l 1
 133 538 l 1
 127 537 121 537 115 537 c 0
 76 537 55 557 55 590 c 0
 55 640 113 683 202 683 c 0
 330 683 410 610 410 502 c 0
 410 408 350 341 227 288 c 1xd8
200 105 m 0
 232 105 258 80 258 48 c 0
 258 17 232 -9 200 -9 c 0
 169 -9 144 16 144 48 c 0xe8
 144 80 169 105 200 105 c 0
EndSplineSet
Substitution2: "'sups' Superscript lookup 9 subtable" question.superior
EndChar

StartChar: at
Encoding: 64 64 33
Width: 942
GlyphClass: 2
Flags: MW
HStem: -153 49<421 524> 55 56<654.5 657> 57 61<421.5 427> 452 40<493.5 534.5> 649 43<487.5 626.5>
VStem: 76 71<187 312.5> 280 85<192.5 248.5> 551 74<132 159.5 141 159.5> 825 46<336 455>
LayerCount: 2
Fore
SplineSet
699 488 m 1xbf80
 686 455 680 419 672 381 c 2
 633 209 l 2
 627 183 625 165 625 154 c 0
 625 128 642 111 667 111 c 0
 693 111 726 128 755 163 c 0
 799 215 825 293 825 377 c 0
 825 533 711 649 542 649 c 0
 433 649 342 615 271 549 c 0
 188 472 147 376 147 258 c 0
 147 39 290 -104 504 -104 c 0
 593 -104 683 -80 767 -31 c 1
 781 -65 l 1
 675 -124 571 -153 477 -153 c 0
 365 -153 265 -114 188 -40 c 0
 114 31 76 128 76 246 c 0
 76 379 125 490 221 578 c 0
 300 650 413 692 528 692 c 0
 740 692 871 564 871 373 c 0
 871 299 852 233 815 176 c 0
 765 99 689 55 625 55 c 0xdf80
 577 55 551 81 551 132 c 2
 551 141 l 1
 497 85 450 57 404 57 c 0
 333 57 280 119 280 217 c 0
 280 280 300 339 336 388 c 0
 385 454 458 492 529 492 c 0
 561 492 593 483 627 465 c 1
 645 488 l 1
 699 488 l 1xbf80
553 450 m 1
 546 451 538 452 531 452 c 0
 439 452 365 359 365 229 c 0
 365 156 395 118 448 118 c 0xbf80
 484 118 518 140 553 184 c 1
 594 394 l 1
 553 450 l 1
EndSplineSet
Substitution2: "'sups' Superscript lookup 9 subtable" at.superior
Substitution2: "'c2sc' Capitals to Small Capitals in Latin lookup 6 subtable" at.sc
Substitution2: "'smcp' Lowercase to Small Capitals in Latin lookup 4 subtable" at.sc
EndChar

StartChar: A
Encoding: 65 65 34
Width: 639
GlyphClass: 2
Flags: MW
HStem: 0 41<-8 188 -8 -8> 251 46<201 403 201 420 184 403> 659 20G<284 350 350 350>
AnchorPoint: "Anchor-3" 537 0 basechar 0
AnchorPoint: "Anchor-2" 321 0 basechar 0
AnchorPoint: "Anchor-1" 317 688 basechar 0
LayerCount: 2
Fore
SplineSet
284 679 m 1
 350 679 l 1
 590 53 l 1
 650 41 l 1
 650 0 l 1
 423 0 l 1
 423 41 l 1
 485 46 l 1
 492 60 l 1
 420 251 l 1
 184 251 l 1
 113 60 l 1
 123 46 l 1
 188 41 l 1
 188 0 l 1
 -8 0 l 1
 -8 41 l 1
 50 53 l 1
 284 679 l 1
300 574 m 1
 201 297 l 1
 403 297 l 1
 300 574 l 1
EndSplineSet
Substitution2: "'sups' Superscript lookup 9 subtable" A.superior
Substitution2: "'c2sc' Capitals to Small Capitals in Latin lookup 6 subtable" a.sc
Position2: "'cpsp' Capital Spacing in Latin lookup 2 subtable" dx=7 dy=0 dh=14 dv=0
EndChar

StartChar: B
Encoding: 66 66 35
Width: 604
GlyphClass: 2
Flags: MW
HStem: 0 47<253.5 297> 323 43<282 297.5 229 350.5> 624 47<197 197> 627 44<247.5 288 288 309>
VStem: 107 90<60 317 367 611 611 611> 418 99<471 545.5> 460 98<138.5 234.5>
AnchorPoint: "Anchor-2" 278 0 basechar 0
AnchorPoint: "Anchor-1" 278 688 basechar 0
LayerCount: 2
Fore
SplineSet
33 671 m 1xda
 288 671 l 2
 441 671 517 619 517 509 c 0xdc
 517 433 468 382 372 356 c 1
 491 355 558 294 558 196 c 0
 558 70 467 0 297 0 c 2
 33 0 l 1
 33 41 l 1
 90 46 l 1
 107 60 l 1
 107 611 l 1
 90 625 l 1
 33 631 l 1
 33 671 l 1xda
197 367 m 1
 210 366 223 366 235 366 c 0
 360 366 418 408 418 505 c 0
 418 586 364 627 254 627 c 0xdc
 241 627 222 625 197 624 c 1xec
 197 367 l 1
197 50 m 1
 221 48 243 47 264 47 c 0
 398 47 460 88 460 189 c 0xca
 460 280 406 323 295 323 c 0
 269 323 236 321 197 317 c 1
 197 50 l 1
EndSplineSet
Substitution2: "'sups' Superscript lookup 9 subtable" B.superior
Substitution2: "'c2sc' Capitals to Small Capitals in Latin lookup 6 subtable" b.sc
Position2: "'cpsp' Capital Spacing in Latin lookup 2 subtable" dx=7 dy=0 dh=14 dv=0
EndChar

StartChar: C
Encoding: 67 67 36
Width: 632
GlyphClass: 2
Flags: MW
HStem: -12 53<353 419.5> 630 53<317.5 411.5>
VStem: 43 103<270.5 432.5 248 440> 532 56<181 181 495 495>
AnchorPoint: "Anchor-2" 386 0 basechar 0
AnchorPoint: "Anchor-1" 389 688 basechar 0
LayerCount: 2
Fore
SplineSet
588 23 m 1
 522 0 453 -12 386 -12 c 0
 320 -12 262 2 216 28 c 0
 109 89 43 205 43 336 c 0
 43 544 182 683 390 683 c 0
 449 683 515 672 588 649 c 1
 588 495 l 1
 532 495 l 1
 517 586 l 1
 504 604 l 1
 467 621 431 630 392 630 c 0
 243 630 146 522 146 343 c 0
 146 153 245 41 407 41 c 0
 435 41 464 45 494 54 c 1
 510 70 l 1
 532 181 l 1
 588 181 l 1
 588 23 l 1
EndSplineSet
Substitution2: "'sups' Superscript lookup 9 subtable" C.superior
Substitution2: "'c2sc' Capitals to Small Capitals in Latin lookup 6 subtable" c.sc
Position2: "'cpsp' Capital Spacing in Latin lookup 2 subtable" dx=7 dy=0 dh=14 dv=0
EndChar

StartChar: D
Encoding: 68 68 37
Width: 693
GlyphClass: 2
Flags: MW
HStem: 0 46<90 90 197 276 276 280> 625 46<90 90 197 276 197 197>
VStem: 107 90<60 611 611 611> 548 101<276.5 433.5>
AnchorPoint: "Anchor-2" 323 0 basechar 0
AnchorPoint: "Anchor-1" 323 688 basechar 0
LayerCount: 2
Fore
SplineSet
280 671 m 2
 517 671 649 546 649 336 c 0
 649 217 606 124 524 62 c 0
 456 11 380 0 280 0 c 2
 33 0 l 1
 33 41 l 1
 90 46 l 1
 107 60 l 1
 107 611 l 1
 90 625 l 1
 33 631 l 1
 33 671 l 1
 280 671 l 2
197 625 m 1
 197 46 l 1
 276 46 l 2
 459 46 548 142 548 336 c 0
 548 531 459 625 276 625 c 2
 197 625 l 1
EndSplineSet
Substitution2: "'sups' Superscript lookup 9 subtable" D.superior
Substitution2: "'c2sc' Capitals to Small Capitals in Latin lookup 6 subtable" d.sc
Position2: "'cpsp' Capital Spacing in Latin lookup 2 subtable" dx=7 dy=0 dh=14 dv=0
EndChar

StartChar: E
Encoding: 69 69 38
Width: 576
GlyphClass: 2
Flags: MW
HStem: 0 46<90 90 197 465> 326 46<197 361 197 361> 625 46<90 90 197 197 197 428>
VStem: 107 90<60 326 372 611 611 611> 385 47<239 459 239 459> 456 56<525 671> 496 52<0 163>
AnchorPoint: "Anchor-3" 290 0 basechar 0
AnchorPoint: "Anchor-2" 290 0 basechar 0
AnchorPoint: "Anchor-1" 290 688 basechar 0
LayerCount: 2
Fore
SplineSet
33 0 m 1xfa
 33 41 l 1
 90 46 l 1
 107 60 l 1
 107 611 l 1
 90 625 l 1
 33 631 l 1
 33 671 l 1
 512 671 l 1
 512 525 l 1
 456 525 l 1xfc
 442 610 l 1
 428 625 l 1
 197 625 l 1
 197 372 l 1
 361 372 l 1
 375 386 l 1
 385 459 l 1
 432 459 l 1
 432 239 l 1
 385 239 l 1
 375 311 l 1
 361 326 l 1
 197 326 l 1
 197 46 l 1
 465 46 l 1
 479 62 l 1
 496 163 l 1
 548 163 l 1
 548 0 l 1
 33 0 l 1xfa
EndSplineSet
Substitution2: "'sups' Superscript lookup 9 subtable" E.superior
Substitution2: "'c2sc' Capitals to Small Capitals in Latin lookup 6 subtable" e.sc
Position2: "'cpsp' Capital Spacing in Latin lookup 2 subtable" dx=7 dy=0 dh=14 dv=0
EndChar

StartChar: F
Encoding: 70 70 39
Width: 537
GlyphClass: 2
Flags: MW
HStem: 0 41<33 33 33 285> 316 46<197 361 197 361> 625 46<90 90 197 197 197 422>
VStem: 107 90<60 316 362 611 611 611> 385 47<228 449 228 449> 450 55<515 671>
AnchorPoint: "Anchor-2" 265 0 basechar 0
AnchorPoint: "Anchor-1" 265 688 basechar 0
LayerCount: 2
Fore
SplineSet
33 0 m 1
 33 41 l 1
 90 46 l 1
 107 60 l 1
 107 611 l 1
 90 625 l 1
 25 631 l 1
 25 671 l 1
 505 671 l 1
 505 515 l 1
 450 515 l 1
 435 610 l 1
 422 625 l 1
 197 625 l 1
 197 362 l 1
 361 362 l 1
 375 376 l 1
 385 449 l 1
 432 449 l 1
 432 228 l 1
 385 228 l 1
 375 301 l 1
 361 316 l 1
 197 316 l 1
 197 60 l 1
 214 46 l 1
 285 41 l 1
 285 0 l 1
 33 0 l 1
EndSplineSet
Substitution2: "'sups' Superscript lookup 9 subtable" F.superior
Substitution2: "'c2sc' Capitals to Small Capitals in Latin lookup 6 subtable" f.sc
Position2: "'cpsp' Capital Spacing in Latin lookup 2 subtable" dx=7 dy=0 dh=14 dv=0
EndChar

StartChar: G
Encoding: 71 71 40
Width: 694
GlyphClass: 2
Flags: MW
HStem: -12 53<354.5 417.5> 281 41<417 667 417 667> 630 53<318.5 415>
VStem: 43 103<270.5 433 248.5 441.5> 505 90<54 262 23 262> 538 56<495 654>
AnchorPoint: "Anchor-2" 388 0 basechar 0
AnchorPoint: "Anchor-1" 401 688 basechar 0
LayerCount: 2
Fore
SplineSet
417 322 m 1xf8
 667 322 l 1
 667 281 l 1
 612 276 l 1
 595 262 l 1
 595 23 l 1xf8
 516 0 447 -12 388 -12 c 0
 321 -12 262 2 216 28 c 0
 108 89 43 205 43 336 c 0
 43 547 181 683 402 683 c 0
 463 683 528 673 594 654 c 1
 594 495 l 1
 538 495 l 1xf4
 523 586 l 1
 509 604 l 1
 472 621 435 630 395 630 c 0
 242 630 146 523 146 343 c 0
 146 154 246 41 403 41 c 0
 432 41 466 45 505 54 c 1
 505 262 l 1
 488 276 l 1
 417 281 l 1
 417 322 l 1xf8
EndSplineSet
Substitution2: "'sups' Superscript lookup 9 subtable" G.superior
Substitution2: "'c2sc' Capitals to Small Capitals in Latin lookup 6 subtable" g.sc
Position2: "'cpsp' Capital Spacing in Latin lookup 2 subtable" dx=7 dy=0 dh=14 dv=0
EndChar

StartChar: H
Encoding: 72 72 41
Width: 738
GlyphClass: 2
Flags: MW
HStem: 0 41<33 276 33 33> 329 46<197 541 197 541> 631 40<33 276 33 276>
VStem: 107 90<60 329 375 611> 541 90<60 329 329 329 375 611 60 611>
AnchorPoint: "Anchor-2" 369 0 basechar 0
AnchorPoint: "Anchor-1" 369 688 basechar 0
LayerCount: 2
Fore
SplineSet
33 671 m 1
 276 671 l 1
 276 631 l 1
 214 625 l 1
 197 611 l 1
 197 375 l 1
 541 375 l 1
 541 611 l 1
 524 625 l 1
 462 631 l 1
 462 671 l 1
 705 671 l 1
 705 631 l 1
 648 625 l 1
 631 611 l 1
 631 60 l 1
 648 46 l 1
 705 41 l 1
 705 0 l 1
 462 0 l 1
 462 41 l 1
 524 46 l 1
 541 60 l 1
 541 329 l 1
 197 329 l 1
 197 60 l 1
 214 46 l 1
 276 41 l 1
 276 0 l 1
 33 0 l 1
 33 41 l 1
 90 46 l 1
 107 60 l 1
 107 611 l 1
 90 625 l 1
 33 631 l 1
 33 671 l 1
EndSplineSet
Substitution2: "'sups' Superscript lookup 9 subtable" H.superior
Substitution2: "'c2sc' Capitals to Small Capitals in Latin lookup 6 subtable" h.sc
Position2: "'cpsp' Capital Spacing in Latin lookup 2 subtable" dx=7 dy=0 dh=14 dv=0
EndChar

StartChar: I
Encoding: 73 73 42
Width: 324
GlyphClass: 2
Flags: MW
HStem: 0 41<35 35 35 288> 631 40<35 288 35 288>
VStem: 116 91<60 611 60 611>
AnchorPoint: "Anchor-3" 162 0 basechar 0
AnchorPoint: "Anchor-2" 162 0 basechar 0
AnchorPoint: "Anchor-1" 162 688 basechar 0
LayerCount: 2
Fore
SplineSet
35 0 m 1
 35 41 l 1
 99 46 l 1
 116 60 l 1
 116 611 l 1
 99 625 l 1
 35 631 l 1
 35 671 l 1
 288 671 l 1
 288 631 l 1
 224 625 l 1
 207 611 l 1
 207 60 l 1
 224 46 l 1
 288 41 l 1
 288 0 l 1
 35 0 l 1
EndSplineSet
Substitution2: "'sups' Superscript lookup 9 subtable" I.superior
Substitution2: "'c2sc' Capitals to Small Capitals in Latin lookup 6 subtable" i.sc
Position2: "'cpsp' Capital Spacing in Latin lookup 2 subtable" dx=7 dy=0 dh=14 dv=0
EndChar

StartChar: J
Encoding: 74 74 43
Width: 444
GlyphClass: 2
Flags: MW
HStem: -12 48<136 188.5 136 219.5> 631 40<187 440 187 440>
VStem: 12 56<12 179 179 179> 271 90<252 256 256 611>
AnchorPoint: "Anchor-2" 226 0 basechar 0
AnchorPoint: "Anchor-1" 316 688 basechar 0
LayerCount: 2
Fore
SplineSet
271 611 m 1
 254 625 l 1
 187 631 l 1
 187 671 l 1
 440 671 l 1
 440 631 l 1
 378 625 l 1
 361 611 l 1
 361 256 l 2
 361 75 296 -12 143 -12 c 0
 101 -12 58 -4 12 12 c 1
 12 179 l 1
 68 179 l 1
 92 53 l 1
 106 40 l 1
 119 37 131 36 141 36 c 0
 236 36 271 107 271 252 c 2
 271 611 l 1
EndSplineSet
Substitution2: "'sups' Superscript lookup 9 subtable" J.superior
Substitution2: "'c2sc' Capitals to Small Capitals in Latin lookup 6 subtable" j.sc
Position2: "'cpsp' Capital Spacing in Latin lookup 2 subtable" dx=7 dy=0 dh=14 dv=0
EndChar

StartChar: K
Encoding: 75 75 44
Width: 611
GlyphClass: 2
Flags: MW
HStem: 0 41<33 33 33 276> 299 41<197 235 197 271 197 235> 631 40<33 276 33 276>
VStem: 107 90<60 299 340 611>
AnchorPoint: "Anchor-2" 330 0 basechar 0
AnchorPoint: "Anchor-1" 330 688 basechar 0
LayerCount: 2
Fore
SplineSet
33 0 m 1
 33 41 l 1
 90 46 l 1
 107 60 l 1
 107 611 l 1
 90 625 l 1
 33 631 l 1
 33 671 l 1
 276 671 l 1
 276 631 l 1
 214 625 l 1
 197 611 l 1
 197 340 l 1
 235 340 l 1
 457 611 l 1
 451 625 l 1
 395 631 l 1
 395 671 l 1
 603 671 l 1
 603 631 l 1
 537 622 l 1
 327 372 l 1
 554 46 l 1
 627 41 l 1
 627 0 l 1
 462 0 l 1
 462 30 l 1
 271 299 l 1
 197 299 l 1
 197 60 l 1
 214 46 l 1
 276 41 l 1
 276 0 l 1
 33 0 l 1
EndSplineSet
Substitution2: "'sups' Superscript lookup 9 subtable" K.superior
Substitution2: "'c2sc' Capitals to Small Capitals in Latin lookup 6 subtable" k.sc
Position2: "'cpsp' Capital Spacing in Latin lookup 2 subtable" dx=7 dy=0 dh=14 dv=0
EndChar

StartChar: L
Encoding: 76 76 45
Width: 520
GlyphClass: 2
Flags: MW
HStem: 0 46<90 90 197 423> 631 40<27 271 27 271>
VStem: 107 90<60 611 46 611> 454 52<0 182>
AnchorPoint: "Anchor-2" 266 0 basechar 0
AnchorPoint: "Anchor-1" 266 688 basechar 0
LayerCount: 2
Fore
SplineSet
27 0 m 1
 27 41 l 1
 90 46 l 1
 107 60 l 1
 107 611 l 1
 90 625 l 1
 27 631 l 1
 27 671 l 1
 271 671 l 1
 271 631 l 1
 214 625 l 1
 197 611 l 1
 197 46 l 1
 423 46 l 1
 437 62 l 1
 454 182 l 1
 506 182 l 1
 506 0 l 1
 27 0 l 1
EndSplineSet
Substitution2: "'sups' Superscript lookup 9 subtable" L.superior
Substitution2: "'c2sc' Capitals to Small Capitals in Latin lookup 6 subtable" l.sc
Position2: "'cpsp' Capital Spacing in Latin lookup 2 subtable" dx=7 dy=0 dh=14 dv=0
EndChar

StartChar: M
Encoding: 77 77 46
Width: 866
GlyphClass: 2
Flags: MW
HStem: 0 41<31 31 31 242> 631 40<30 242>
VStem: 109 54<68 611 611 611> 671 88<60 611 60 624 60 624>
AnchorPoint: "Anchor-2" 434 0 basechar 0
AnchorPoint: "Anchor-1" 434 688 basechar 0
LayerCount: 2
Fore
SplineSet
31 0 m 1
 31 41 l 1
 91 49 l 1
 109 68 l 1
 109 611 l 1
 96 625 l 1
 30 631 l 1
 30 671 l 1
 242 671 l 1
 242 644 l 1
 430 142 l 1
 620 640 l 1
 620 671 l 1
 834 671 l 1
 834 631 l 1
 771 625 l 1
 759 611 l 1
 759 60 l 1
 771 46 l 1
 834 41 l 1
 834 0 l 1
 595 0 l 1
 595 41 l 1
 661 46 l 1
 671 60 l 1
 671 624 l 1
 434 0 l 1
 391 0 l 1
 163 614 l 1
 163 68 l 1
 181 49 l 1
 242 41 l 1
 242 0 l 1
 31 0 l 1
EndSplineSet
Substitution2: "'sups' Superscript lookup 9 subtable" M.superior
Substitution2: "'c2sc' Capitals to Small Capitals in Latin lookup 6 subtable" m.sc
Position2: "'cpsp' Capital Spacing in Latin lookup 2 subtable" dx=7 dy=0 dh=14 dv=0
EndChar

StartChar: N
Encoding: 78 78 47
Width: 713
GlyphClass: 2
Flags: MW
HStem: 0 41<29 29 29 240> 631 40<26 214>
VStem: 108 54<68 568 68 611 68 611> 555 54<134 604 0 604>
AnchorPoint: "Anchor-2" 358 0 basechar 0
AnchorPoint: "Anchor-1" 358 688 basechar 0
LayerCount: 2
Fore
SplineSet
29 0 m 1
 29 41 l 1
 90 49 l 1
 108 68 l 1
 108 611 l 1
 90 625 l 1
 26 631 l 1
 26 671 l 1
 214 671 l 1
 214 646 l 1
 555 134 l 1
 555 604 l 1
 537 622 l 1
 477 631 l 1
 477 671 l 1
 687 671 l 1
 687 631 l 1
 627 622 l 1
 609 604 l 1
 609 0 l 1
 543 0 l 1
 162 568 l 1
 162 68 l 1
 180 49 l 1
 240 41 l 1
 240 0 l 1
 29 0 l 1
EndSplineSet
Substitution2: "'sups' Superscript lookup 9 subtable" N.superior
Substitution2: "'c2sc' Capitals to Small Capitals in Latin lookup 6 subtable" n.sc
Position2: "'cpsp' Capital Spacing in Latin lookup 2 subtable" dx=7 dy=0 dh=14 dv=0
EndChar

StartChar: O
Encoding: 79 79 48
Width: 731
GlyphClass: 2
Flags: MW
HStem: -16 53<323.5 424> 634 54<323 409 323 430.5>
VStem: 43 104<281.5 390.5> 584 105<299 390.5 299 429>
AnchorPoint: "Anchor-3" 366 0 basechar 0
AnchorPoint: "Anchor-2" 366 0 basechar 0
AnchorPoint: "Anchor-1" 366 688 basechar 0
LayerCount: 2
Fore
SplineSet
366 688 m 0
 452 688 526 658 586 600 c 0
 653 535 689 445 689 336 c 0
 689 262 672 196 638 138 c 0
 582 42 482 -16 366 -16 c 0
 281 -16 204 14 146 70 c 0
 78 136 43 227 43 336 c 0
 43 445 78 535 145 600 c 0
 205 658 280 688 366 688 c 0
366 634 m 0
 236 634 147 524 147 336 c 0
 147 150 236 37 366 37 c 0
 495 37 584 150 584 336 c 0
 584 522 495 634 366 634 c 0
EndSplineSet
Substitution2: "'sups' Superscript lookup 9 subtable" O.superior
Substitution2: "'c2sc' Capitals to Small Capitals in Latin lookup 6 subtable" o.sc
Position2: "'cpsp' Capital Spacing in Latin lookup 2 subtable" dx=7 dy=0 dh=14 dv=0
EndChar

StartChar: P
Encoding: 80 80 49
Width: 558
GlyphClass: 2
Flags: MW
HStem: 0 41<33 33 33 285> 252 48<262.5 320 255.5 352.5> 625 46<90 90 241 253 253 313>
VStem: 107 90<60 257 305 611 611 611> 438 93<414 522.5>
AnchorPoint: "Anchor-2" 260 0 basechar 0
AnchorPoint: "Anchor-1" 260 688 basechar 0
LayerCount: 2
Fore
SplineSet
33 0 m 1
 33 41 l 1
 90 46 l 1
 107 60 l 1
 107 611 l 1
 90 625 l 1
 25 631 l 1
 25 671 l 1
 253 671 l 2
 445 671 531 619 531 467 c 0
 531 339 433 252 272 252 c 0
 253 252 228 254 197 257 c 1
 197 60 l 1
 214 46 l 1
 285 41 l 1
 285 0 l 1
 33 0 l 1
197 305 m 1
 226 302 248 300 263 300 c 0
 377 300 438 359 438 469 c 0
 438 576 377 625 249 625 c 0
 233 625 215 625 197 623 c 1
 197 305 l 1
EndSplineSet
Substitution2: "'sups' Superscript lookup 9 subtable" P.superior
Substitution2: "'c2sc' Capitals to Small Capitals in Latin lookup 6 subtable" p.sc
Position2: "'cpsp' Capital Spacing in Latin lookup 2 subtable" dx=7 dy=0 dh=14 dv=0
EndChar

StartChar: Q
Encoding: 81 81 50
Width: 731
GlyphClass: 2
Flags: MW
HStem: -176 46<510 529.5> -11 50 635 54<323 409 323 432>
VStem: 39 106<244.5 391.5> 319 95<4.29497e+09 4.29497e+09> 587 106<244.5 391.5 243.5 430>
AnchorPoint: "Anchor-2" 366 -218 basechar 0
AnchorPoint: "Anchor-1" 366 688 basechar 0
LayerCount: 2
Fore
SplineSet
414 -11 m 1
 417 -90 464 -130 556 -130 c 0
 583 -130 614 -127 650 -119 c 1
 650 -160 l 1
 597 -171 550 -176 509 -176 c 0
 382 -176 319 -123 319 -11 c 1
 147 15 39 149 39 337 c 0
 39 446 75 537 144 602 c 0
 204 659 280 689 366 689 c 0
 452 689 529 659 589 602 c 0
 657 537 693 446 693 337 c 0
 693 150 586 17 414 -11 c 1
366 39 m 0
 498 39 587 152 587 337 c 0
 587 523 498 635 366 635 c 0
 234 635 145 525 145 337 c 0
 145 152 235 39 366 39 c 0
EndSplineSet
Substitution2: "'sups' Superscript lookup 9 subtable" Q.superior
Substitution2: "'c2sc' Capitals to Small Capitals in Latin lookup 6 subtable" q.sc
Position2: "'cpsp' Capital Spacing in Latin lookup 2 subtable" dx=7 dy=0 dh=14 dv=0
EndChar

StartChar: R
Encoding: 82 82 51
Width: 646
GlyphClass: 2
Flags: MW
HStem: -8 47 0 41<33 271 33 33> 300 45<249 292.5> 625 46<90 90 197 245 197 197>
VStem: 107 90<60 298 60 346 346 611 611 611> 429 100<448 535>
AnchorPoint: "Anchor-2" 260 0 basechar 0
AnchorPoint: "Anchor-1" 260 688 basechar 0
LayerCount: 2
Fore
SplineSet
33 671 m 1x7c
 288 671 l 2
 450 671 529 614 529 491 c 0
 529 405 475 349 367 325 c 1
 416 312 450 291 470 258 c 0
 498 212 499 157 517 110 c 0
 539 51 571 39 647 39 c 2
 656 39 l 1
 656 1 l 1
 626 -5 601 -8 578 -8 c 0xbc
 533 -8 500 1 477 21 c 0
 429 63 425 128 404 192 c 0
 377 274 338 300 247 300 c 0
 232 300 215 299 197 298 c 1
 197 60 l 1
 214 46 l 1
 271 41 l 1
 271 0 l 1
 33 0 l 1
 33 41 l 1
 90 46 l 1
 107 60 l 1
 107 611 l 1
 90 625 l 1
 33 631 l 1
 33 671 l 1x7c
197 625 m 1
 197 346 l 1
 228 345 246 345 252 345 c 0
 372 345 429 384 429 483 c 0
 429 587 369 625 245 625 c 2
 197 625 l 1
EndSplineSet
Substitution2: "'sups' Superscript lookup 9 subtable" R.superior
Substitution2: "'c2sc' Capitals to Small Capitals in Latin lookup 6 subtable" r.sc
Position2: "'cpsp' Capital Spacing in Latin lookup 2 subtable" dx=7 dy=0 dh=14 dv=0
EndChar

StartChar: S
Encoding: 83 83 52
Width: 556
GlyphClass: 2
Flags: MW
HStem: -12 53<233.5 304.5 233.5 320> 633 50<257.5 317.5>
VStem: 60 59<20 196 196 196> 71 93<478.5 547.5> 407 92<130 202.5> 420 52<500 655>
AnchorPoint: "Anchor-2" 240 0 basechar 0
AnchorPoint: "Anchor-1" 302 688 basechar 0
LayerCount: 2
Fore
SplineSet
60 20 m 1xe8
 60 196 l 1
 119 196 l 1
 131 81 l 1
 144 64 l 1
 173 49 211 41 256 41 c 0
 353 41 407 91 407 161 c 0xe8
 407 244 349 262 240 309 c 0
 129 357 71 394 71 491 c 0
 71 604 160 683 302 683 c 0
 357 683 413 674 472 655 c 1
 472 500 l 1
 420 500 l 1
 405 595 l 1
 390 612 l 1
 365 626 335 633 300 633 c 0
 215 633 164 585 164 512 c 0xd4
 164 445 212 420 304 381 c 0
 355 360 409 344 455 299 c 0
 484 270 499 233 499 189 c 0
 499 71 400 -12 240 -12 c 0
 168 -12 106 0 60 20 c 1xe8
EndSplineSet
Substitution2: "'sups' Superscript lookup 9 subtable" S.superior
Substitution2: "'c2sc' Capitals to Small Capitals in Latin lookup 6 subtable" s.sc
Position2: "'cpsp' Capital Spacing in Latin lookup 2 subtable" dx=7 dy=0 dh=14 dv=0
EndChar

StartChar: T
Encoding: 84 84 53
Width: 597
GlyphClass: 2
Flags: MW
HStem: 0 41<168 429 168 168> 517 154<16 71 16 581 526 581 526 526> 625 46<99 253 99 99 344 498 344 344>
VStem: 16 55<517 671> 253 91<60 625 60 625> 526 55<517 671>
CounterMasks: 1 1c
AnchorPoint: "Anchor-2" 298 0 basechar 0
AnchorPoint: "Anchor-1" 298 688 basechar 0
LayerCount: 2
Fore
SplineSet
16 671 m 1xdc
 581 671 l 1
 581 517 l 1
 526 517 l 1xdc
 512 610 l 1
 498 625 l 1
 344 625 l 1
 344 60 l 1
 362 46 l 1
 429 41 l 1
 429 0 l 1
 168 0 l 1
 168 41 l 1
 235 46 l 1
 253 60 l 1
 253 625 l 1
 99 625 l 1xbc
 85 610 l 1
 71 517 l 1
 16 517 l 1
 16 671 l 1xdc
EndSplineSet
Substitution2: "'sups' Superscript lookup 9 subtable" T.superior
Substitution2: "'c2sc' Capitals to Small Capitals in Latin lookup 6 subtable" t.sc
Position2: "'cpsp' Capital Spacing in Latin lookup 2 subtable" dx=7 dy=0 dh=14 dv=0
EndChar

StartChar: U
Encoding: 85 85 54
Width: 694
GlyphClass: 2
Flags: MW
HStem: -12 62<305 397.5> 631 40<25 270 25 270>
VStem: 99 91<240 249 249 611> 547 54<249 604>
AnchorPoint: "Anchor-3" 350 0 basechar 0
AnchorPoint: "Anchor-2" 350 0 basechar 0
AnchorPoint: "Anchor-1" 350 688 basechar 0
LayerCount: 2
Fore
SplineSet
25 671 m 1
 270 671 l 1
 270 631 l 1
 208 625 l 1
 190 611 l 1
 190 249 l 2
 190 113 241 50 369 50 c 0
 495 50 547 113 547 249 c 2
 547 604 l 1
 528 622 l 1
 468 631 l 1
 468 671 l 1
 679 671 l 1
 679 631 l 1
 619 622 l 1
 601 604 l 1
 601 240 l 2
 601 167 596 111 557 64 c 0
 519 18 445 -12 350 -12 c 0
 255 -12 181 18 143 64 c 0
 104 111 99 166 99 240 c 2
 99 611 l 1
 82 625 l 1
 25 631 l 1
 25 671 l 1
EndSplineSet
Substitution2: "'sups' Superscript lookup 9 subtable" U.superior
Substitution2: "'c2sc' Capitals to Small Capitals in Latin lookup 6 subtable" u.sc
Position2: "'cpsp' Capital Spacing in Latin lookup 2 subtable" dx=7 dy=0 dh=14 dv=0
EndChar

StartChar: V
Encoding: 86 86 55
Width: 618
GlyphClass: 2
Flags: MW
HStem: -5 21G<276 345 276 276> 631 40<-23 210 -23 210>
AnchorPoint: "Anchor-2" 310 0 basechar 0
AnchorPoint: "Anchor-1" 308 688 basechar 0
LayerCount: 2
Fore
SplineSet
-23 671 m 1
 210 671 l 1
 210 631 l 1
 152 625 l 1
 141 611 l 1
 329 107 l 1
 510 611 l 1
 500 625 l 1
 438 631 l 1
 438 671 l 1
 637 671 l 1
 637 631 l 1
 575 619 l 1
 345 -5 l 1
 276 -5 l 1
 41 619 l 1
 -23 631 l 1
 -23 671 l 1
EndSplineSet
Substitution2: "'sups' Superscript lookup 9 subtable" V.superior
Substitution2: "'c2sc' Capitals to Small Capitals in Latin lookup 6 subtable" v.sc
Position2: "'cpsp' Capital Spacing in Latin lookup 2 subtable" dx=7 dy=0 dh=14 dv=0
EndChar

StartChar: W
Encoding: 87 87 56
Width: 928
GlyphClass: 2
Flags: MW
HStem: 0 21G<231 231 231 298 633 633 633 701> 631 40<0 224 0 224>
AnchorPoint: "Anchor-2" 463 0 basechar 0
AnchorPoint: "Anchor-1" 463 688 basechar 0
LayerCount: 2
Fore
SplineSet
231 0 m 1
 63 617 l 1
 0 631 l 1
 0 671 l 1
 224 671 l 1
 224 631 l 1
 161 623 l 1
 153 609 l 1
 282 147 l 1
 443 671 l 1
 513 671 l 1
 677 136 l 1
 798 605 l 1
 787 619 l 1
 720 631 l 1
 720 671 l 1
 927 671 l 1
 927 631 l 1
 860 617 l 1
 701 0 l 1
 633 0 l 1
 464 547 l 1
 298 0 l 1
 231 0 l 1
EndSplineSet
Substitution2: "'sups' Superscript lookup 9 subtable" W.superior
Substitution2: "'c2sc' Capitals to Small Capitals in Latin lookup 6 subtable" w.sc
Position2: "'cpsp' Capital Spacing in Latin lookup 2 subtable" dx=7 dy=0 dh=14 dv=0
EndChar

StartChar: X
Encoding: 88 88 57
Width: 600
GlyphClass: 2
Flags: MW
HStem: 0 41<-9 204 -9 -9> 631 40<11 252 11 252>
AnchorPoint: "Anchor-2" 300 0 basechar 0
AnchorPoint: "Anchor-1" 300 688 basechar 0
LayerCount: 2
Fore
SplineSet
11 671 m 1
 252 671 l 1
 252 631 l 1
 192 625 l 1
 184 613 l 1
 315 407 l 1
 457 609 l 1
 448 622 l 1
 390 631 l 1
 390 671 l 1
 594 671 l 1
 594 631 l 1
 530 621 l 1
 347 360 l 1
 541 53 l 1
 609 41 l 1
 609 0 l 1
 356 0 l 1
 356 41 l 1
 423 48 l 1
 430 62 l 1
 289 289 l 1
 131 65 l 1
 137 47 l 1
 204 41 l 1
 204 0 l 1
 -9 0 l 1
 -9 41 l 1
 57 54 l 1
 258 335 l 1
 77 618 l 1
 11 631 l 1
 11 671 l 1
EndSplineSet
Substitution2: "'sups' Superscript lookup 9 subtable" X.superior
Substitution2: "'c2sc' Capitals to Small Capitals in Latin lookup 6 subtable" x.sc
Position2: "'cpsp' Capital Spacing in Latin lookup 2 subtable" dx=7 dy=0 dh=14 dv=0
EndChar

StartChar: Y
Encoding: 89 89 58
Width: 586
GlyphClass: 2
Flags: MW
HStem: 0 41<163 422 163 163> 631 40<-13 219 -13 219>
VStem: 247 91<60 272 272 272>
AnchorPoint: "Anchor-2" 290 0 basechar 0
AnchorPoint: "Anchor-1" 290 688 basechar 0
LayerCount: 2
Fore
SplineSet
-13 671 m 1
 219 671 l 1
 219 631 l 1
 162 625 l 1
 152 614 l 1
 305 339 l 1
 473 606 l 1
 464 620 l 1
 403 631 l 1
 403 671 l 1
 607 671 l 1
 607 631 l 1
 546 618 l 1
 338 285 l 1
 338 60 l 1
 354 46 l 1
 422 41 l 1
 422 0 l 1
 163 0 l 1
 163 41 l 1
 231 46 l 1
 247 60 l 1
 247 272 l 1
 48 621 l 1
 -13 631 l 1
 -13 671 l 1
EndSplineSet
Substitution2: "'sups' Superscript lookup 9 subtable" Y.superior
Substitution2: "'c2sc' Capitals to Small Capitals in Latin lookup 6 subtable" y.sc
Position2: "'cpsp' Capital Spacing in Latin lookup 2 subtable" dx=7 dy=0 dh=14 dv=0
EndChar

StartChar: Z
Encoding: 90 90 59
Width: 586
GlyphClass: 2
Flags: MW
HStem: 0 49<154 456 154 539> 623 48<157 424 157 157>
VStem: 67 55<516 671> 485 54<0 181>
AnchorPoint: "Anchor-2" 292 0 basechar 0
AnchorPoint: "Anchor-1" 292 688 basechar 0
LayerCount: 2
Fore
SplineSet
67 671 m 1
 534 671 l 1
 534 629 l 1
 154 49 l 1
 456 49 l 1
 467 62 l 1
 485 181 l 1
 539 181 l 1
 539 0 l 1
 45 0 l 1
 45 41 l 1
 424 623 l 1
 157 623 l 1
 138 610 l 1
 122 516 l 1
 67 516 l 1
 67 671 l 1
EndSplineSet
Substitution2: "'sups' Superscript lookup 9 subtable" Z.superior
Substitution2: "'c2sc' Capitals to Small Capitals in Latin lookup 6 subtable" z.sc
Position2: "'cpsp' Capital Spacing in Latin lookup 2 subtable" dx=7 dy=0 dh=14 dv=0
EndChar

StartChar: bracketleft
Encoding: 91 91 60
Width: 421
GlyphClass: 2
Flags: MW
HStem: -132 42<218 376 218 376> 665 43<218 376 218 218>
VStem: 139 79<-90 665 -90 708 -90 708>
LayerCount: 2
Fore
SplineSet
139 708 m 1
 376 708 l 1
 376 665 l 1
 218 665 l 1
 218 -90 l 1
 376 -90 l 1
 376 -132 l 1
 139 -132 l 1
 139 708 l 1
EndSplineSet
Substitution2: "'sups' Superscript lookup 9 subtable" bracketleft.superior
EndChar

StartChar: backslash
Encoding: 92 92 61
Width: 481
GlyphClass: 2
Flags: MW
HStem: 651 20G<13 74 74 74>
LayerCount: 2
Fore
SplineSet
13 671 m 1
 74 671 l 1
 502 -93 l 1
 441 -93 l 1
 13 671 l 1
EndSplineSet
EndChar

StartChar: bracketright
Encoding: 93 93 62
Width: 421
GlyphClass: 2
Flags: MW
HStem: -133 43<46 204 46 282 46 204> 665 43<46 204 46 282>
VStem: 204 78<-90 665 665 665>
LayerCount: 2
Fore
SplineSet
46 708 m 1
 282 708 l 1
 282 -133 l 1
 46 -133 l 1
 46 -90 l 1
 204 -90 l 1
 204 665 l 1
 46 665 l 1
 46 708 l 1
EndSplineSet
Substitution2: "'sups' Superscript lookup 9 subtable" bracketright.superior
EndChar

StartChar: asciicircum
Encoding: 94 94 63
Width: 1000
GlyphClass: 2
Flags: MW
HStem: 438 276<201 543 201 543 456 797 456 752>
LayerCount: 2
Fore
SplineSet
456 714 m 1
 543 714 l 1
 797 438 l 1
 752 438 l 1
 499 651 l 1
 245 438 l 1
 201 438 l 1
 456 714 l 1
EndSplineSet
EndChar

StartChar: underscore
Encoding: 95 95 64
Width: 500
GlyphClass: 2
Flags: MW
HStem: -236 58<0 500 0 500>
LayerCount: 2
Fore
SplineSet
0 -178 m 1
 500 -178 l 1
 500 -236 l 1
 0 -236 l 1
 0 -178 l 1
EndSplineSet
EndChar

StartChar: grave
Encoding: 96 96 65
Width: 500
GlyphClass: 2
Flags: MW
HStem: 546 190<104 300 104 250>
VStem: 104 196<546 736>
LayerCount: 2
Fore
SplineSet
104 736 m 1
 203 736 l 1
 300 546 l 1
 250 546 l 1
 104 736 l 1
EndSplineSet
EndChar

StartChar: a
Encoding: 97 97 66
Width: 507
GlyphClass: 2
Flags: MW
HStem: -7 54<185 194> 0 36<347 488> 268 35<334 334> 447 44<229.5 278>
VStem: 42 88<104.5 165.5 104.5 173> 66 100<366 408.5> 334 83<58 58 92 268 268 268 303 335 335 347 57 374.5>
AnchorPoint: "Anchor-3" 376 0 basechar 0
AnchorPoint: "Anchor-2" 268 0 basechar 0
AnchorPoint: "Anchor-1" 268 491 basechar 0
LayerCount: 2
Fore
SplineSet
334 58 m 1x76
 271 15 218 -7 170 -7 c 0
 91 -7 42 46 42 121 c 0xba
 42 225 134 255 334 303 c 1
 334 335 l 2
 334 414 314 447 242 447 c 0
 217 447 193 442 166 431 c 1
 166 347 l 1
 97 347 l 2
 74 347 66 354 66 378 c 0
 66 439 142 491 268 491 c 0
 373 491 417 448 417 347 c 2
 417 57 l 1
 435 41 l 1
 488 36 l 1
 488 0 l 1
 347 0 l 1
 334 58 l 1x76
334 92 m 1
 334 268 l 1
 193 229 130 202 130 129 c 0
 130 80 160 47 210 47 c 0
 243 47 284 63 334 92 c 1
EndSplineSet
Substitution2: "'sups' Superscript lookup 9 subtable" a.superior
Substitution2: "'smcp' Lowercase to Small Capitals in Latin lookup 4 subtable" a.sc
EndChar

StartChar: b
Encoding: 98 98 67
Width: 539
GlyphClass: 2
Flags: MW
HStem: 0 45<86 289> 438 53<284 307> 669 31<8 86 8 8> 716 20G<131 169 169 169>
VStem: 86 83<46 46 46 422 456 669 669 669> 414 90<177 306.5>
AnchorPoint: "Anchor-2" 294 0 basechar 0
AnchorPoint: "Anchor-1" 294 736 basechar 0
LayerCount: 2
Fore
SplineSet
131 736 m 1
 169 736 l 1
 169 456 l 1
 217 479 262 491 306 491 c 0
 424 491 504 399 504 263 c 0
 504 91 405 0 214 0 c 2
 86 0 l 1
 86 669 l 1
 8 669 l 1
 8 700 l 1
 131 736 l 1
169 46 m 1
 200 45 219 45 224 45 c 0
 354 45 414 106 414 244 c 0
 414 369 357 438 257 438 c 0
 232 438 202 432 169 422 c 1
 169 46 l 1
EndSplineSet
Substitution2: "'sups' Superscript lookup 9 subtable" b.superior
Substitution2: "'smcp' Lowercase to Small Capitals in Latin lookup 4 subtable" b.sc
EndChar

StartChar: c
Encoding: 99 99 68
Width: 446
GlyphClass: 2
Flags: MW
HStem: -7 59<246 289> 451 40<232 283.5>
VStem: 37 91<186.5 311 186.5 315.5> 323 101<377 422 377 437 377 437>
AnchorPoint: "Anchor-2" 262 0 basechar 0
AnchorPoint: "Anchor-1" 274 491 basechar 0
LayerCount: 2
Fore
SplineSet
425 42 m 1
 370 10 316 -7 262 -7 c 0
 126 -7 37 93 37 241 c 0
 37 390 134 491 274 491 c 0
 370 491 424 451 424 393 c 0
 424 361 402 340 368 340 c 0
 353 340 338 345 323 355 c 1
 323 437 l 1
 308 446 292 451 275 451 c 0
 189 451 128 374 128 248 c 0
 128 125 194 52 298 52 c 0
 342 52 383 66 425 94 c 1
 425 42 l 1
EndSplineSet
Substitution2: "'sups' Superscript lookup 9 subtable" c.superior
Substitution2: "'smcp' Lowercase to Small Capitals in Latin lookup 4 subtable" c.sc
EndChar

StartChar: d
Encoding: 100 100 69
Width: 565
GlyphClass: 2
Flags: MW
HStem: -9 63<229 256.5> 0 36<383 531> 448 44<244.5 307> 669 31<306 383 306 306> 716 20G<428 466 466 466>
VStem: 36 88<183.5 304.5 183.5 305> 383 83<0 736 52 736 89 432 432 432 481 669 669 669>
AnchorPoint: "Anchor-2" 284 0 basechar 0
AnchorPoint: "Anchor-1" 251 736 basechar 0
LayerCount: 2
Fore
SplineSet
383 669 m 1xbe
 306 669 l 1
 306 700 l 1
 428 736 l 1
 466 736 l 1
 466 57 l 1
 483 41 l 1
 531 36 l 1
 531 0 l 1
 383 0 l 1x7e
 383 52 l 1
 332 11 284 -9 229 -9 c 0
 120 -9 36 85 36 225 c 0
 36 385 142 492 294 492 c 0
 322 492 352 488 383 481 c 1
 383 669 l 1xbe
383 89 m 1
 383 432 l 1
 349 442 319 448 295 448 c 0
 194 448 124 367 124 242 c 0
 124 125 184 54 274 54 c 0xbe
 310 54 346 66 383 89 c 1
EndSplineSet
Substitution2: "'sups' Superscript lookup 9 subtable" d.superior
Substitution2: "'smcp' Lowercase to Small Capitals in Latin lookup 4 subtable" d.sc
EndChar

StartChar: e
Encoding: 101 101 70
Width: 491
GlyphClass: 2
Flags: MW
HStem: -9 57<240.5 291.5> 263 42<128 359 128 447 123 359> 446 45<223 288.5>
VStem: 37 86<188 252 252 263 188 312.5> 359 89<305 321 321 355.5>
AnchorPoint: "Anchor-3" 260 0 basechar 0
AnchorPoint: "Anchor-2" 260 0 basechar 0
AnchorPoint: "Anchor-1" 268 491 basechar 0
LayerCount: 2
Fore
SplineSet
448 106 m 1
 448 51 l 1
 388 11 323 -9 260 -9 c 0
 128 -9 37 90 37 237 c 0
 37 388 134 491 268 491 c 0
 377 491 448 417 448 294 c 0
 448 284 448 274 447 263 c 1
 123 263 l 1
 123 252 l 2
 123 124 190 48 291 48 c 0
 341 48 391 68 448 106 c 1
359 305 m 1
 359 321 l 2
 359 402 322 446 255 446 c 0
 191 446 134 390 128 305 c 1
 359 305 l 1
EndSplineSet
Substitution2: "'sups' Superscript lookup 9 subtable" e.superior
Substitution2: "'smcp' Lowercase to Small Capitals in Latin lookup 4 subtable" e.sc
EndChar

StartChar: f
Encoding: 102 102 71
Width: 321
GlyphClass: 2
Flags: MW
HStem: 0 36<29 29 29 262> 421 32<36 100 36 36> 421 47<36 100 184 323> 724 20G<244 326>
VStem: 100 83<57 421 57 421 57 479 57 562>
AnchorPoint: "Anchor-2" 142 0 basechar 0
AnchorPoint: "Anchor-1" 303 736 basechar 0
LayerCount: 2
Fore
SplineSet
29 0 m 1xd8
 29 36 l 1
 82 41 l 1
 100 57 l 1
 100 421 l 1
 36 421 l 1
 36 453 l 1xd8
 100 468 l 1
 100 479 l 2
 100 645 185 744 303 744 c 0
 349 744 381 719 381 687 c 0
 381 663 366 644 340 637 c 1
 249 697 l 1
 206 677 184 625 184 541 c 2
 184 468 l 1
 323 468 l 1
 323 421 l 1xb8
 183 421 l 1
 183 57 l 1
 200 41 l 1
 262 36 l 1
 262 0 l 1
 29 0 l 1xd8
EndSplineSet
Substitution2: "'sups' Superscript lookup 9 subtable" f.superior
Substitution2: "'smcp' Lowercase to Small Capitals in Latin lookup 4 subtable" f.sc
EndChar

StartChar: g
Encoding: 103 103 72
Width: 523
GlyphClass: 2
Flags: MW
HStem: -218 46<215 259> 167 39<222 239 222 222> 416 47<402 512 402 402> 452 39<217 275>
VStem: 40 80<-97 -57> 62 86<291.5 367.5 291.5 374.5> 138 73<72 130> 344 86<291.5 340.5 278.5 367> 405 74<-58.5 -39>
AnchorPoint: "Anchor-2" 221 -218 basechar 0
AnchorPoint: "Anchor-1" 245 491 basechar 0
LayerCount: 2
Fore
SplineSet
369 463 m 1xe4
 512 463 l 1
 512 416 l 1
 402 416 l 1
 421 387 430 358 430 323 c 0xe5
 430 234 355 167 239 167 c 2
 222 167 l 1
 215 153 211 138 211 122 c 0
 211 117 212 109 213 98 c 1
 309 83 l 2
 427 65 479 34 479 -40 c 0
 479 -77 458 -120 419 -152 c 0
 366 -195 297 -218 221 -218 c 0
 106 -218 40 -169 40 -89 c 0xea80
 40 -25 80 23 148 35 c 1xe4
 142 49 138 64 138 80 c 0xe2
 138 106 154 137 186 175 c 1
 109 192 62 251 62 326 c 0
 62 423 138 491 256 491 c 0xd4
 294 491 331 482 369 463 c 1xe4
246 452 m 0xd5
 188 452 148 406 148 329 c 0
 148 254 188 206 246 206 c 0
 304 206 344 254 344 329 c 0
 344 405 304 452 246 452 c 0xd5
206 30 m 1
 151 13 120 -24 120 -68 c 0
 120 -126 174 -172 256 -172 c 0
 345 -172 405 -122 405 -66 c 0xc880
 405 -12 373 -1 303 12 c 2
 206 30 l 1
EndSplineSet
Substitution2: "'sups' Superscript lookup 9 subtable" g.superior
Substitution2: "'smcp' Lowercase to Small Capitals in Latin lookup 4 subtable" g.sc
EndChar

StartChar: h
Encoding: 104 104 73
Width: 564
GlyphClass: 2
Flags: MW
HStem: 0 36<25 244 25 25> 425 66<319.5 328> 669 31<19 96 19 19> 716 20G<141 179 179 179>
VStem: 96 83<57 392 431 669 669 669> 392 83<57 322 322 339 57 358.5>
AnchorPoint: "Anchor-2" 286 0 basechar 0
AnchorPoint: "Anchor-1" 286 736 basechar 0
LayerCount: 2
Fore
SplineSet
141 736 m 1
 179 736 l 1
 179 431 l 1
 246 468 298 491 341 491 c 0
 428 491 475 439 475 339 c 2
 475 57 l 1
 493 41 l 1
 546 36 l 1
 546 0 l 1
 328 0 l 1
 328 36 l 1
 375 41 l 1
 392 57 l 1
 392 322 l 2
 392 395 365 425 291 425 c 0
 259 425 222 414 179 392 c 1
 179 57 l 1
 197 41 l 1
 244 36 l 1
 244 0 l 1
 25 0 l 1
 25 36 l 1
 79 41 l 1
 96 57 l 1
 96 669 l 1
 19 669 l 1
 19 700 l 1
 141 736 l 1
EndSplineSet
Substitution2: "'sups' Superscript lookup 9 subtable" h.superior
Substitution2: "'smcp' Lowercase to Small Capitals in Latin lookup 4 subtable" h.sc
EndChar

StartChar: i
Encoding: 105 105 74
Width: 280
GlyphClass: 2
Flags: MW
HStem: 0 36<35 260 35 35> 419 31<35 105 35 35> 466 20G<150 188 188 188> 593 115<130 162>
VStem: 88 116<634 666 634 666.5> 105 83<57 419 419 419>
AnchorPoint: "Anchor-3" 148 0 basechar 0
AnchorPoint: "Anchor-2" 146 0 basechar 0
AnchorPoint: "Anchor-1" 138 688 basechar 0
LayerCount: 2
Fore
SplineSet
146 708 m 0xf8
 178 708 204 682 204 650 c 0
 204 618 178 593 146 593 c 0
 114 593 88 618 88 650 c 0
 88 683 114 708 146 708 c 0xf8
150 486 m 1
 188 486 l 1
 188 57 l 1xf4
 206 41 l 1
 260 36 l 1
 260 0 l 1
 35 0 l 1
 35 36 l 1
 88 41 l 1xf8
 105 57 l 1
 105 419 l 1xf4
 35 419 l 1
 35 450 l 1
 150 486 l 1
EndSplineSet
Substitution2: "'sups' Superscript lookup 9 subtable" i.superior
Substitution2: "'smcp' Lowercase to Small Capitals in Latin lookup 4 subtable" i.sc
Substitution2: "'locl' Localized Forms in Latin lookup 3 subtable" i.TRK
EndChar

StartChar: j
Encoding: 106 106 75
Width: 266
GlyphClass: 2
Flags: MW
HStem: -218 21G<-31 18> 419 31<38 109 38 38> 466 20G<154 192 192 192> 593 115<130 162>
VStem: 88 116<634 666 634 666.5> 109 83<32.5 84 84 419 419 419>
AnchorPoint: "Anchor-2" 18 -218 basechar 0
LayerCount: 2
Fore
SplineSet
109 419 m 1xf4
 38 419 l 1
 38 450 l 1
 154 486 l 1
 192 486 l 1
 192 84 l 2
 192 -19 190 -93 135 -153 c 0
 96 -195 45 -218 -9 -218 c 0
 -53 -218 -78 -196 -78 -164 c 0
 -78 -142 -66 -123 -41 -112 c 1
 56 -171 l 1
 93 -159 109 -108 109 -16 c 2
 109 419 l 1xf4
88 650 m 0xf8
 88 683 114 708 146 708 c 0
 178 708 204 682 204 650 c 0
 204 618 178 593 146 593 c 0
 114 593 88 618 88 650 c 0xf8
EndSplineSet
Substitution2: "'sups' Superscript lookup 9 subtable" j.superior
Substitution2: "'smcp' Lowercase to Small Capitals in Latin lookup 4 subtable" j.sc
EndChar

StartChar: k
Encoding: 107 107 76
Width: 517
GlyphClass: 2
Flags: MW
HStem: 0 36<25 25 25 244> 227 28<179 198 179 237 179 198> 444 37<299 489 299 489> 669 31<19 96 19 19> 716 20G<141 179 179 179>
VStem: 96 83<57 227 255 669 669 669>
AnchorPoint: "Anchor-2" 274 0 basechar 0
AnchorPoint: "Anchor-1" 274 736 basechar 0
LayerCount: 2
Fore
SplineSet
25 0 m 1
 25 36 l 1
 79 41 l 1
 96 57 l 1
 96 669 l 1
 19 669 l 1
 19 700 l 1
 141 736 l 1
 179 736 l 1
 179 255 l 1
 198 255 l 1
 351 426 l 1
 344 440 l 1
 299 444 l 1
 299 481 l 1
 489 481 l 1
 489 444 l 1
 425 436 l 1
 288 291 l 1
 464 43 l 1
 528 38 l 1
 528 0 l 1
 372 0 l 1
 372 33 l 1
 237 227 l 1
 179 227 l 1
 179 57 l 1
 197 41 l 1
 244 36 l 1
 244 0 l 1
 25 0 l 1
EndSplineSet
Substitution2: "'sups' Superscript lookup 9 subtable" k.superior
Substitution2: "'smcp' Lowercase to Small Capitals in Latin lookup 4 subtable" k.sc
EndChar

StartChar: l
Encoding: 108 108 77
Width: 282
GlyphClass: 2
Flags: MW
HStem: 0 36<28 28 28 262> 669 31<27 104 27 27> 716 20G<149 187 187 187>
VStem: 104 83<57 669 669 669>
AnchorPoint: "Anchor-2" 146 0 basechar 0
AnchorPoint: "Anchor-1" 146 736 basechar 0
LayerCount: 2
Fore
SplineSet
28 0 m 1
 28 36 l 1
 87 41 l 1
 104 57 l 1
 104 669 l 1
 27 669 l 1
 27 700 l 1
 149 736 l 1
 187 736 l 1
 187 57 l 1
 205 41 l 1
 262 36 l 1
 262 0 l 1
 28 0 l 1
EndSplineSet
Substitution2: "'sups' Superscript lookup 9 subtable" l.superior
Substitution2: "'smcp' Lowercase to Small Capitals in Latin lookup 4 subtable" l.sc
EndChar

StartChar: m
Encoding: 109 109 78
Width: 843
GlyphClass: 2
Flags: MW
HStem: 0 36<30 249 30 30> 419 31<30 101 30 30> 425 66<323 328 606 613>
VStem: 101 83<57 392 57 419 57 419> 386 83<57 322 322 357> 672 83<57 322 322 339 57 357>
AnchorPoint: "Anchor-2" 428 0 basechar 0
AnchorPoint: "Anchor-1" 428 491 basechar 0
LayerCount: 2
Fore
SplineSet
454 424 m 1xbc
 529 468 586 491 626 491 c 0
 705 491 755 438 755 339 c 2
 755 57 l 1
 772 41 l 1
 825 36 l 1
 825 0 l 1
 607 0 l 1
 607 36 l 1
 654 41 l 1
 672 57 l 1
 672 322 l 2
 672 392 644 425 582 425 c 0
 550 425 512 413 469 392 c 1
 469 57 l 1
 487 41 l 1
 534 36 l 1
 534 0 l 1
 321 0 l 1
 321 36 l 1
 369 41 l 1
 386 57 l 1
 386 322 l 2
 386 392 358 425 298 425 c 0xbc
 265 425 228 414 184 392 c 1
 184 57 l 1
 201 41 l 1
 249 36 l 1
 249 0 l 1
 30 0 l 1
 30 36 l 1
 84 41 l 1
 101 57 l 1
 101 419 l 1
 30 419 l 1
 30 450 l 1xdc
 146 486 l 1
 184 486 l 1
 184 431 l 1
 250 470 302 491 344 491 c 0
 393 491 431 468 454 424 c 1xbc
EndSplineSet
Substitution2: "'sups' Superscript lookup 9 subtable" m.superior
Substitution2: "'smcp' Lowercase to Small Capitals in Latin lookup 4 subtable" m.sc
EndChar

StartChar: n
Encoding: 110 110 79
Width: 568
GlyphClass: 2
Flags: MW
HStem: 0 36<30 30 30 249> 419 31<30 101 30 30> 425 66<323.5 333>
VStem: 101 83<57 392 57 419 57 419> 397 83<57 322 322 339 57 358.5>
AnchorPoint: "Anchor-2" 290 0 basechar 0
AnchorPoint: "Anchor-1" 290 491 basechar 0
LayerCount: 2
Fore
SplineSet
30 0 m 1xb8
 30 36 l 1
 84 41 l 1
 101 57 l 1
 101 419 l 1
 30 419 l 1
 30 450 l 1xd8
 146 486 l 1
 184 486 l 1
 184 431 l 1
 251 468 302 491 345 491 c 0
 432 491 480 439 480 339 c 2
 480 57 l 1
 497 41 l 1
 551 36 l 1
 551 0 l 1
 332 0 l 1
 332 36 l 1
 380 41 l 1
 397 57 l 1
 397 322 l 2
 397 395 370 425 296 425 c 0
 264 425 227 414 184 392 c 1
 184 57 l 1
 201 41 l 1
 249 36 l 1
 249 0 l 1
 30 0 l 1xb8
EndSplineSet
Substitution2: "'sups' Superscript lookup 9 subtable" n.superior
Substitution2: "'smcp' Lowercase to Small Capitals in Latin lookup 4 subtable" n.sc
EndChar

StartChar: o
Encoding: 111 111 80
Width: 539
GlyphClass: 2
Flags: MW
HStem: -9 43<229 309.5 229 336> 448 43<228.5 309.5>
VStem: 37 94<176.5 306 176.5 315.5> 408 94<176 305.5>
AnchorPoint: "Anchor-3" 269 0 basechar 0
AnchorPoint: "Anchor-2" 269 0 basechar 0
AnchorPoint: "Anchor-1" 268 491 basechar 0
LayerCount: 2
Fore
SplineSet
269 491 m 0
 404 491 502 389 502 241 c 0
 502 93 403 -9 269 -9 c 0
 135 -9 37 93 37 241 c 0
 37 390 134 491 269 491 c 0
269 448 m 0
 188 448 131 371 131 241 c 0
 131 112 189 34 269 34 c 0
 350 34 408 111 408 241 c 0
 408 370 350 448 269 448 c 0
EndSplineSet
Substitution2: "'sups' Superscript lookup 9 subtable" o.superior
Substitution2: "'smcp' Lowercase to Small Capitals in Latin lookup 4 subtable" o.sc
EndChar

StartChar: p
Encoding: 112 112 81
Width: 551
GlyphClass: 2
Flags: MW
HStem: -218 36<23 23 23 258> -3 45<257.5 311 250 344> 419 31<23 94 23 23> 428 63<300.5 325.5>
VStem: 94 83<-161 6 58 394> 428 88<182.5 301.5>
AnchorPoint: "Anchor-2" 304 -218 basechar 0
AnchorPoint: "Anchor-1" 304 491 basechar 0
LayerCount: 2
Fore
SplineSet
23 -218 m 1xdc
 23 -182 l 1
 77 -177 l 1
 94 -161 l 1
 94 419 l 1
 23 419 l 1
 23 450 l 1xec
 139 486 l 1
 177 486 l 1
 177 431 l 1
 230 471 277 491 324 491 c 0
 434 491 516 397 516 257 c 0
 516 99 418 -3 270 -3 c 0
 245 -3 214 0 177 6 c 1
 177 -161 l 1
 194 -177 l 1
 258 -182 l 1
 258 -218 l 1
 23 -218 l 1xdc
177 58 m 1
 210 47 238 42 262 42 c 0
 360 42 428 121 428 244 c 0
 428 359 369 428 282 428 c 0xdc
 248 428 215 416 177 394 c 1
 177 58 l 1
EndSplineSet
Substitution2: "'sups' Superscript lookup 9 subtable" p.superior
Substitution2: "'smcp' Lowercase to Small Capitals in Latin lookup 4 subtable" p.sc
EndChar

StartChar: q
Encoding: 113 113 82
Width: 531
GlyphClass: 2
Flags: MW
HStem: -218 36<292 526 292 292> -3 53<232 255> 449 43<244.5 306.5>
VStem: 37 90<181 308 181 310> 372 83<-161 33 33 33 65 402 -161 438 -161 438>
AnchorPoint: "Anchor-2" 246 -218 basechar 0
AnchorPoint: "Anchor-1" 246 491 basechar 0
LayerCount: 2
Fore
SplineSet
459 475 m 1
 457 436 455 412 455 402 c 2
 455 -161 l 1
 473 -178 l 1
 526 -182 l 1
 526 -218 l 1
 292 -218 l 1
 292 -182 l 1
 355 -178 l 1
 372 -161 l 1
 372 33 l 1
 321 9 276 -3 234 -3 c 0
 117 -3 37 88 37 230 c 0
 37 390 144 492 316 492 c 0
 358 492 406 486 459 475 c 1
372 438 m 1
 342 445 317 449 296 449 c 0
 193 449 127 373 127 243 c 0
 127 119 185 50 279 50 c 0
 302 50 332 55 372 65 c 1
 372 438 l 1
EndSplineSet
Substitution2: "'sups' Superscript lookup 9 subtable" q.superior
Substitution2: "'smcp' Lowercase to Small Capitals in Latin lookup 4 subtable" q.sc
EndChar

StartChar: r
Encoding: 114 114 83
Width: 382
GlyphClass: 2
Flags: MW
HStem: 0 36<30 30 30 271> 392 86<344 376 344 376> 416 75<276.5 326> 419 31<30 101 30 30>
VStem: 101 83<57 343 392 419 419 419>
AnchorPoint: "Anchor-2" 150 0 basechar 0
AnchorPoint: "Anchor-1" 248 491 basechar 0
LayerCount: 2
Fore
SplineSet
30 0 m 1xa8
 30 36 l 1
 83 41 l 1
 101 57 l 1
 101 419 l 1
 30 419 l 1
 30 450 l 1x98
 146 486 l 1
 184 486 l 1
 184 392 l 1xc8
 219 428 255 460 291 489 c 0
 299 491 308 491 316 491 c 0xa8
 336 491 355 487 376 478 c 1
 376 392 l 1
 344 392 l 1xc8
 331 408 314 416 293 416 c 0
 260 416 225 391 184 343 c 1
 184 57 l 1
 201 41 l 1
 271 36 l 1
 271 0 l 1
 30 0 l 1xa8
EndSplineSet
Substitution2: "'sups' Superscript lookup 9 subtable" r.superior
Substitution2: "'smcp' Lowercase to Small Capitals in Latin lookup 4 subtable" r.sc
EndChar

StartChar: s
Encoding: 115 115 84
Width: 400
GlyphClass: 2
Flags: MW
HStem: -9 42<172.5 216 172.5 231> 356 113<295 344 295 344> 448 43<186.5 225>
VStem: 42 48<12 142 142 142> 50 80<354.5 395> 281 78<94.5 140> 295 49<356 469>
AnchorPoint: "Anchor-2" 172 0 basechar 0
AnchorPoint: "Anchor-1" 227 491 basechar 0
LayerCount: 2
Fore
SplineSet
344 469 m 1xca
 344 356 l 1
 295 356 l 1xca
 287 427 l 1
 261 441 237 448 213 448 c 0
 160 448 130 421 130 376 c 0xaa
 130 333 159 312 215 285 c 0
 250 268 288 254 321 227 c 0
 345 208 359 178 359 141 c 0
 359 48 290 -9 172 -9 c 0
 121 -9 77 -1 42 12 c 1
 42 142 l 1
 90 142 l 1xb4
 102 57 l 1
 130 41 158 33 187 33 c 0
 245 33 281 67 281 114 c 0
 281 166 245 184 179 214 c 0
 94 252 50 284 50 351 c 0
 50 439 113 491 227 491 c 0xac
 271 491 310 484 344 469 c 1xca
EndSplineSet
Substitution2: "'sups' Superscript lookup 9 subtable" s.superior
Substitution2: "'smcp' Lowercase to Small Capitals in Latin lookup 4 subtable" s.sc
EndChar

StartChar: t
Encoding: 116 116 85
Width: 334
GlyphClass: 2
Flags: MW
HStem: -3 51<150.5 265.5> 421 47<171 323 171 323>
VStem: 88 83<119 157 157 421>
AnchorPoint: "Anchor-2" 174 0 basechar 0
AnchorPoint: "Anchor-1" 130 574 basechar 0
LayerCount: 2
Fore
SplineSet
88 421 m 1
 25 421 l 1
 25 452 l 1
 91 481 l 1
 134 574 l 1
 171 574 l 1
 171 468 l 1
 323 468 l 1
 323 421 l 1
 171 421 l 1
 171 157 l 2
 171 81 184 48 254 48 c 0
 277 48 300 51 323 56 c 1
 323 19 l 1
 276 4 231 -3 192 -3 c 0
 109 -3 88 27 88 98 c 2
 88 421 l 1
EndSplineSet
Substitution2: "'sups' Superscript lookup 9 subtable" t.superior
Substitution2: "'smcp' Lowercase to Small Capitals in Latin lookup 4 subtable" t.sc
EndChar

StartChar: u
Encoding: 117 117 86
Width: 569
GlyphClass: 2
Flags: MW
HStem: -10 64<243.5 255.5> 0 36<393 541> 423 31<26 97 26 26> 471 20G<142 180 180 180 438 476 476 476>
VStem: 97 83<143 160 160 423 423 423> 393 83<0 491 56 491 84 423 423 423>
AnchorPoint: "Anchor-3" 434 0 basechar 0
AnchorPoint: "Anchor-2" 286 0 basechar 0
AnchorPoint: "Anchor-1" 286 491 basechar 0
LayerCount: 2
Fore
SplineSet
142 491 m 1xbc
 180 491 l 1
 180 160 l 2
 180 88 210 54 277 54 c 0xbc
 314 54 352 64 393 84 c 1
 393 423 l 1
 322 423 l 1
 322 454 l 1
 438 491 l 1
 476 491 l 1
 476 57 l 1
 494 41 l 1
 541 36 l 1
 541 0 l 1
 393 0 l 1x7c
 393 56 l 1
 333 13 280 -10 231 -10 c 0
 145 -10 97 43 97 143 c 2
 97 423 l 1
 26 423 l 1
 26 454 l 1
 142 491 l 1xbc
EndSplineSet
Substitution2: "'sups' Superscript lookup 9 subtable" u.superior
Substitution2: "'smcp' Lowercase to Small Capitals in Latin lookup 4 subtable" u.sc
EndChar

StartChar: v
Encoding: 118 118 87
Width: 494
GlyphClass: 2
Flags: MW
HStem: 0 21G<217 273 217 217> 444 37<-5 212 -5 212>
AnchorPoint: "Anchor-2" 245 0 basechar 0
AnchorPoint: "Anchor-1" 251 491 basechar 0
LayerCount: 2
Fore
SplineSet
-5 481 m 1
 212 481 l 1
 212 444 l 1
 159 440 l 1
 147 424 l 1
 264 97 l 1
 392 424 l 1
 384 440 l 1
 330 444 l 1
 330 481 l 1
 507 481 l 1
 507 444 l 1
 448 436 l 1
 273 0 l 1
 217 0 l 1
 56 438 l 1
 -5 444 l 1
 -5 481 l 1
EndSplineSet
Substitution2: "'sups' Superscript lookup 9 subtable" v.superior
Substitution2: "'smcp' Lowercase to Small Capitals in Latin lookup 4 subtable" v.sc
EndChar

StartChar: w
Encoding: 119 119 88
Width: 771
GlyphClass: 2
Flags: MW
HStem: 0 21G<192 254 192 192 510 572 510 510> 444 37<-2 215 -2 215>
AnchorPoint: "Anchor-2" 382 0 basechar 0
AnchorPoint: "Anchor-1" 384 491 basechar 0
LayerCount: 2
Fore
SplineSet
-2 481 m 1
 215 481 l 1
 215 444 l 1
 162 440 l 1
 150 424 l 1
 241 99 l 1
 375 481 l 1
 436 481 l 1
 554 99 l 1
 656 424 l 1
 648 440 l 1
 594 444 l 1
 594 481 l 1
 771 481 l 1
 771 444 l 1
 715 436 l 1
 572 0 l 1
 510 0 l 1
 389 379 l 1
 254 0 l 1
 192 0 l 1
 59 438 l 1
 -2 444 l 1
 -2 481 l 1
EndSplineSet
Substitution2: "'sups' Superscript lookup 9 subtable" w.superior
Substitution2: "'smcp' Lowercase to Small Capitals in Latin lookup 4 subtable" w.sc
EndChar

StartChar: x
Encoding: 120 120 89
Width: 503
GlyphClass: 2
Flags: MW
HStem: 0 37<12 201 12 12> 444 37<18 233 18 233>
AnchorPoint: "Anchor-2" 256 0 basechar 0
AnchorPoint: "Anchor-1" 256 491 basechar 0
LayerCount: 2
Fore
SplineSet
18 481 m 1
 233 481 l 1
 233 444 l 1
 187 438 l 1
 182 428 l 1
 266 297 l 1
 357 425 l 1
 349 438 l 1
 301 444 l 1
 301 481 l 1
 481 481 l 1
 481 444 l 1
 425 434 l 1
 293 259 l 1
 440 45 l 1
 500 37 l 1
 500 0 l 1
 287 0 l 1
 287 37 l 1
 329 44 l 1
 334 52 l 1
 241 201 l 1
 139 56 l 1
 144 44 l 1
 201 37 l 1
 201 0 l 1
 12 0 l 1
 12 37 l 1
 69 45 l 1
 213 238 l 1
 79 433 l 1
 18 444 l 1
 18 481 l 1
EndSplineSet
Substitution2: "'sups' Superscript lookup 9 subtable" x.superior
Substitution2: "'smcp' Lowercase to Small Capitals in Latin lookup 4 subtable" x.sc
EndChar

StartChar: y
Encoding: 121 121 90
Width: 495
GlyphClass: 2
Flags: MW
HStem: -218 21G<73 126.5> 444 37<-1 216 -1 216>
AnchorPoint: "Anchor-2" 256 -218 basechar 0
AnchorPoint: "Anchor-1" 254 491 basechar 0
LayerCount: 2
Fore
SplineSet
-1 481 m 1
 216 481 l 1
 216 444 l 1
 163 440 l 1
 151 424 l 1
 271 113 l 1
 396 424 l 1
 388 440 l 1
 334 444 l 1
 334 481 l 1
 512 481 l 1
 512 444 l 1
 454 436 l 1
 254 -50 l 2
 207 -163 159 -218 94 -218 c 0
 52 -218 25 -195 25 -162 c 0
 25 -142 34 -124 51 -108 c 1
 147 -146 l 1
 174 -117 203 -67 228 4 c 1
 60 438 l 1
 -1 444 l 1
 -1 481 l 1
EndSplineSet
Substitution2: "'sups' Superscript lookup 9 subtable" y.superior
Substitution2: "'smcp' Lowercase to Small Capitals in Latin lookup 4 subtable" y.sc
EndChar

StartChar: z
Encoding: 122 122 91
Width: 468
GlyphClass: 2
Flags: MW
HStem: 0 46<139 354 139 431> 435 46<127 312 127 127>
VStem: 55 47<342 481> 380 51<0 147>
AnchorPoint: "Anchor-2" 238 0 basechar 0
AnchorPoint: "Anchor-1" 238 491 basechar 0
LayerCount: 2
Fore
SplineSet
45 0 m 1
 45 50 l 1
 312 435 l 1
 127 435 l 1
 113 419 l 1
 102 342 l 1
 55 342 l 1
 55 481 l 1
 416 481 l 1
 416 443 l 1
 139 46 l 1
 354 46 l 1
 369 62 l 1
 380 147 l 1
 431 147 l 1
 431 0 l 1
 45 0 l 1
EndSplineSet
Substitution2: "'sups' Superscript lookup 9 subtable" z.superior
Substitution2: "'smcp' Lowercase to Small Capitals in Latin lookup 4 subtable" z.sc
EndChar

StartChar: braceleft
Encoding: 123 123 92
Width: 486
GlyphClass: 2
Flags: MW
HStem: -134 39<322 418 393 418> 269 42<87 134> 666 37<405 418>
VStem: 211 80<49 121 440 465 465 542 542 546>
LayerCount: 2
Fore
SplineSet
418 703 m 1
 418 666 l 1
 318 663 291 634 291 546 c 2
 291 465 l 2
 291 360 260 311 160 290 c 1
 254 269 291 221 291 121 c 2
 291 38 l 2
 291 -62 305 -93 418 -95 c 1
 418 -134 l 1
 393 -134 l 2
 251 -134 211 -90 211 49 c 2
 211 134 l 2
 211 233 180 269 88 269 c 0
 81 269 73 268 65 268 c 1
 65 312 l 1
 74 311 83 311 91 311 c 0
 181 311 211 347 211 440 c 2
 211 542 l 2
 211 656 268 703 405 703 c 2
 418 703 l 1
EndSplineSet
Substitution2: "'sups' Superscript lookup 9 subtable" braceleft.superior
EndChar

StartChar: bar
Encoding: 124 124 93
Width: 500
GlyphClass: 2
Flags: MW
VStem: 219 62<-236 764 -236 764>
LayerCount: 2
Fore
SplineSet
219 764 m 1
 281 764 l 1
 281 -236 l 1
 219 -236 l 1
 219 764 l 1
EndSplineSet
Substitution2: "'sups' Superscript lookup 9 subtable" bar.superior
EndChar

StartChar: braceright
Encoding: 125 125 94
Width: 486
GlyphClass: 2
Flags: MW
HStem: -134 39<64 88 64 64> 269 42<348 395 346 397.5> 666 37<64 77>
VStem: 191 80<38 49 49 121 121 134 465 542>
LayerCount: 2
Fore
SplineSet
64 703 m 1
 77 703 l 2
 214 703 271 656 271 542 c 2
 271 440 l 2
 271 347 301 311 391 311 c 0
 399 311 408 311 417 312 c 1
 417 268 l 1
 409 268 401 269 394 269 c 0
 302 269 271 233 271 134 c 2
 271 49 l 2
 271 -89 231 -134 88 -134 c 2
 64 -134 l 1
 64 -95 l 1
 177 -93 191 -62 191 38 c 2
 191 121 l 2
 191 221 228 269 322 290 c 1
 222 311 191 360 191 465 c 2
 191 546 l 2
 191 634 164 663 64 666 c 1
 64 703 l 1
EndSplineSet
Substitution2: "'sups' Superscript lookup 9 subtable" braceright.superior
EndChar

StartChar: asciitilde
Encoding: 126 126 95
Width: 833
GlyphClass: 2
Flags: MW
HStem: 236 58<543.5 588> 303 58<247 302 247 306>
LayerCount: 2
Fore
SplineSet
747 370 m 1
 747 306 l 1
 681 259 618 236 558 236 c 0
 529 236 498 242 465 253 c 0
 396 276 337 303 275 303 c 0
 216 303 158 275 87 225 c 1
 87 290 l 1
 155 337 218 361 276 361 c 0
 328 361 373 345 418 329 c 0
 466 312 509 294 559 294 c 0
 619 294 677 321 747 370 c 1
EndSplineSet
EndChar

StartChar: exclamdown
Encoding: 161 161 96
Width: 338
GlyphClass: 2
Flags: MW
HStem: -9 21G<151 187> 569 114<153 184.5>
VStem: 114 110<39.5 68 39.5 71.5>
LayerCount: 2
Fore
SplineSet
169 683 m 0
 200 683 226 658 226 626 c 0
 226 594 200 569 169 569 c 0
 137 569 112 594 112 626 c 0
 112 657 137 683 169 683 c 0
145 503 m 1
 193 503 l 1
 221 121 l 2
 223 93 224 73 224 63 c 0
 224 16 205 -9 169 -9 c 0
 133 -9 114 15 114 63 c 0
 114 80 115 99 117 121 c 2
 145 503 l 1
EndSplineSet
Substitution2: "'smcp' Lowercase to Small Capitals in Latin lookup 4 subtable" exclamdown.sc
EndChar

StartChar: cent
Encoding: 162 162 97
Width: 556
GlyphClass: 2
Flags: MW
HStem: 1 45<319 331 319 334.5> 457 46<319 326 319 333>
VStem: 64 86<195.5 303 195.5 314> 273 46<-98 1 -98 3 -98 3 48 454 454 454 503 601> 419 45<22 174>
LayerCount: 2
Fore
SplineSet
273 601 m 1
 319 601 l 1
 319 503 l 1
 333 503 l 2
 376 503 419 495 464 480 c 1
 464 333 l 1
 419 333 l 1
 403 437 l 1
 380 451 355 457 326 457 c 2
 319 457 l 1
 319 46 l 1
 350 46 378 52 403 65 c 1
 419 174 l 1
 464 174 l 1
 464 22 l 1
 425 7 381 1 331 1 c 2
 319 1 l 1
 319 -98 l 1
 273 -98 l 1
 273 3 l 1
 144 20 64 115 64 246 c 0
 64 382 143 479 273 500 c 1
 273 601 l 1
273 454 m 1
 195 432 150 359 150 247 c 0
 150 144 198 69 273 48 c 1
 273 454 l 1
EndSplineSet
Substitution2: "'smcp' Lowercase to Small Capitals in Latin lookup 4 subtable" cent.sc
EndChar

StartChar: sterling
Encoding: 163 163 98
Width: 556
GlyphClass: 2
Flags: MW
HStem: 0 57<37 506 37 37> 0 76<201 506 201 506> 305 47<76 147 76 148 76 147 231 419> 634 49<317.5 373.5>
VStem: 148 83<270 292 292 305 240.5 305> 417 91<566 609 566 625 566 625>
LayerCount: 2
Fore
SplineSet
417 531 m 1xbc
 417 625 l 1
 399 631 382 634 365 634 c 0
 263 634 230 563 230 403 c 0
 230 387 230 370 231 352 c 1
 419 352 l 1
 419 305 l 1
 231 305 l 1
 231 292 l 2
 231 189 197 115 131 74 c 1
 133 71 l 1
 171 75 193 76 201 76 c 2
 506 76 l 1
 506 0 l 1x7c
 37 0 l 1
 37 57 l 1
 130 83 148 142 148 270 c 2
 148 305 l 1
 76 305 l 1
 76 352 l 1
 147 352 l 1
 146 373 145 394 145 413 c 0
 145 491 155 550 184 594 c 0
 219 647 284 683 351 683 c 0
 447 683 508 637 508 581 c 0
 508 551 484 527 449 527 c 0
 440 527 430 528 417 531 c 1xbc
EndSplineSet
EndChar

StartChar: currency
Encoding: 164 164 99
Width: 606
GlyphClass: 2
Flags: MW
HStem: 229 50<279 327> 586 50<279.5 326.5 279.5 346.5>
VStem: 100 51<409 455> 457 50<409 455 409 475>
LayerCount: 2
Fore
SplineSet
77 693 m 1
 178 592 l 1
 216 621 256 636 303 636 c 0
 350 636 392 621 430 592 c 1
 530 693 l 1
 565 657 l 1
 465 557 l 1
 493 520 507 478 507 432 c 0
 507 386 493 344 465 307 c 1
 565 207 l 1
 530 171 l 1
 430 272 l 1
 393 243 351 229 303 229 c 0
 255 229 215 243 178 272 c 1
 77 171 l 1
 42 207 l 1
 143 307 l 1
 115 344 100 386 100 432 c 0
 100 478 115 520 143 557 c 1
 42 657 l 1
 77 693 l 1
304 586 m 0
 219 586 151 517 151 433 c 0
 151 348 219 279 304 279 c 0
 389 279 457 349 457 433 c 0
 457 517 389 586 304 586 c 0
EndSplineSet
EndChar

StartChar: yen
Encoding: 165 165 100
Width: 556
GlyphClass: 2
Flags: MW
HStem: 0 41<143 401 143 143> 238 42<14 230 14 231 14 230 312 538 312 312> 384 42<14 150 14 177 14 150 394 538> 631 40<-6 206 -6 206>
VStem: 231 81<60 238 60 238>
LayerCount: 2
Fore
SplineSet
-6 671 m 1
 206 671 l 1
 206 631 l 1
 154 625 l 1
 145 614 l 1
 285 340 l 1
 438 606 l 1
 429 620 l 1
 374 631 l 1
 374 671 l 1
 559 671 l 1
 559 631 l 1
 504 618 l 1
 394 426 l 1
 538 426 l 1
 538 384 l 1
 367 384 l 1
 308 280 l 1
 538 280 l 1
 538 238 l 1
 312 238 l 1
 312 60 l 1
 329 46 l 1
 401 41 l 1
 401 0 l 1
 143 0 l 1
 143 41 l 1
 212 46 l 1
 231 60 l 1
 231 238 l 1
 14 238 l 1
 14 280 l 1
 230 280 l 1
 177 384 l 1
 14 384 l 1
 14 426 l 1
 150 426 l 1
 51 621 l 1
 -6 631 l 1
 -6 671 l 1
EndSplineSet
EndChar

StartChar: brokenbar
Encoding: 166 166 101
Width: 500
GlyphClass: 2
Flags: MW
VStem: 219 62<-171 199 -171 199 329 699>
LayerCount: 2
Fore
SplineSet
219 699 m 1
 281 699 l 1
 281 329 l 1
 219 329 l 1
 219 699 l 1
219 199 m 1
 281 199 l 1
 281 -171 l 1
 219 -171 l 1
 219 199 l 1
EndSplineSet
EndChar

StartChar: section
Encoding: 167 167 102
Width: 500
GlyphClass: 2
Flags: MW
HStem: -140 44<229.5 276 229.5 291.5> 676 42<225.5 269.5>
VStem: 63 73<275.5 323> 80 74<562 615 562 619.5> 87 49<20 20> 348 71<-32 20> 361 45<566 695> 363 74<272 314>
LayerCount: 2
Fore
SplineSet
406 695 m 1xd2
 406 566 l 1
 361 566 l 1xd2
 351 646 l 1
 315 666 284 676 255 676 c 0
 196 676 154 639 154 591 c 0
 154 533 211 516 301 472 c 0
 392 427 437 376 437 306 c 0xd1
 437 238 392 175 315 144 c 1
 386 112 419 70 419 11 c 0
 419 -75 347 -140 236 -140 c 0
 190 -140 141 -130 89 -109 c 1
 87 20 l 1
 136 20 l 1xcc
 149 -70 l 1
 182 -88 214 -96 245 -96 c 0
 307 -96 348 -60 348 -13 c 0
 348 53 282 76 178 125 c 0
 102 161 63 219 63 287 c 0xe4
 63 359 102 409 181 443 c 1
 112 477 80 516 80 574 c 0
 80 665 148 718 272 718 c 0
 316 718 361 710 406 695 c 1xd2
223 424 m 1
 165 398 136 359 136 309 c 0
 136 242 182 205 279 162 c 1
 335 199 363 238 363 284 c 0xe1
 363 344 317 389 223 424 c 1
EndSplineSet
EndChar

StartChar: dieresis
Encoding: 168 168 103
Width: 500
GlyphClass: 2
Flags: MW
HStem: 590 101<143 171 329 357>
VStem: 106 101<626 654.5> 292 101<626 654.5>
LayerCount: 2
Fore
SplineSet
157 691 m 0
 185 691 207 669 207 640 c 0
 207 612 185 590 157 590 c 0
 129 590 106 612 106 640 c 0
 106 669 129 691 157 691 c 0
343 691 m 0
 371 691 393 669 393 640 c 0
 393 612 371 590 343 590 c 0
 315 590 292 612 292 640 c 0
 292 669 315 691 343 691 c 0
EndSplineSet
EndChar

StartChar: copyright
Encoding: 169 169 104
Width: 900
GlyphClass: 2
Flags: MW
HStem: -46 42<406 498 406 500> 102 46<423 480 423 487.5> 528 46<425.5 487> 684 42<407.5 497>
VStem: 67 43<293 386 293 391> 221 87<284 394 284 408> 566 43<252 252 431 431> 794 43<295 386>
LayerCount: 2
Fore
SplineSet
453 684 m 0
 362 684 275 648 211 583 c 0
 146 516 110 432 110 340 c 0
 110 246 145 163 211 97 c 0
 278 31 360 -4 452 -4 c 0
 544 -4 628 31 692 97 c 0
 757 164 794 250 794 340 c 0
 794 432 756 521 693 584 c 0
 629 648 541 684 453 684 c 0
453 726 m 0
 554 726 655 683 727 610 c 0
 797 539 837 440 837 336 c 0
 837 237 795 138 719 63 c 0
 647 -8 553 -46 447 -46 c 0
 349 -46 253 -6 180 67 c 0
 106 141 67 236 67 340 c 0
 67 442 106 537 179 611 c 0
 251 684 350 726 453 726 c 0
609 127 m 1
 563 111 513 102 462 102 c 0
 320 102 221 199 221 338 c 0
 221 478 319 574 468 574 c 0
 510 574 558 567 609 551 c 1
 609 431 l 1
 566 431 l 1
 551 506 l 1
 526 521 501 528 473 528 c 0
 378 528 308 449 308 339 c 0
 308 229 378 148 468 148 c 0
 492 148 520 156 553 168 c 1
 566 252 l 1
 609 252 l 1
 609 127 l 1
EndSplineSet
EndChar

StartChar: ordfeminine
Encoding: 170 170 105
Width: 380
GlyphClass: 2
Flags: MW
HStem: 329 38<139 146> 334 25<260 366> 522 24<251 251> 647 31<172.5 209>
VStem: 32 66<407 449.5 407 455> 50 75<590.5 620> 251 62<375 375 398 522 522 522 546 568 568 577 374 596>
LayerCount: 2
Fore
SplineSet
251 375 m 1x76
 203 344 164 329 128 329 c 0
 68 329 32 366 32 419 c 0xba
 32 491 101 512 251 546 c 1
 251 568 l 2
 251 624 236 647 182 647 c 0
 163 647 145 643 125 636 c 1
 125 577 l 1
 73 577 l 2
 56 577 50 582 50 599 c 0
 50 641 107 678 201 678 c 0
 280 678 313 648 313 577 c 2
 313 374 l 1
 326 363 l 1
 366 359 l 1
 366 334 l 1
 260 334 l 1
 251 375 l 1x76
251 398 m 1
 251 522 l 1
 145 494 98 475 98 424 c 0
 98 390 120 367 158 367 c 0
 182 367 213 378 251 398 c 1
EndSplineSet
EndChar

StartChar: guillemotleft
Encoding: 171 171 106
Width: 442
GlyphClass: 2
Flags: W
LayerCount: 2
Fore
SplineSet
203 413 m 1
 203 347 l 1
 86 240 l 1
 203 132 l 1
 203 67 l 1
 39 200 l 1
 39 280 l 1
 203 413 l 1
400 413 m 1
 400 347 l 1
 283 240 l 1
 400 132 l 1
 400 67 l 1
 237 200 l 1
 237 280 l 1
 400 413 l 1
EndSplineSet
EndChar

StartChar: logicalnot
Encoding: 172 172 107
Width: 833
GlyphClass: 2
Flags: MW
HStem: 362 57<124 653 124 709>
VStem: 653 56<174 362 362 362>
LayerCount: 2
Fore
SplineSet
124 419 m 1
 709 419 l 1
 709 174 l 1
 653 174 l 1
 653 362 l 1
 124 362 l 1
 124 419 l 1
EndSplineSet
EndChar

StartChar: registered
Encoding: 174 174 108
Width: 900
GlyphClass: 2
Flags: MW
HStem: -46 42<406 498 406 500> 121 36<259 450 259 259> 316 38<411.5 443> 526 34<254 465> 685 41<407.5 497>
VStem: 67 44<293 386 293 391> 312 75<165 315 355 516 516 516> 540 87<423.5 464.5> 793 44<295 386>
LayerCount: 2
Fore
SplineSet
453 685 m 0
 362 685 275 648 211 583 c 0
 146 516 111 432 111 340 c 0
 111 246 145 163 211 97 c 0
 278 31 360 -4 452 -4 c 0
 544 -4 628 31 692 97 c 0
 757 164 793 250 793 340 c 0
 793 432 756 521 693 584 c 0
 629 648 541 685 453 685 c 0
453 726 m 0
 554 726 655 683 727 610 c 0
 797 539 837 440 837 336 c 0
 837 237 795 138 719 63 c 0
 647 -8 553 -46 447 -46 c 0
 349 -46 253 -6 180 67 c 0
 106 141 67 236 67 340 c 0
 67 442 106 537 179 611 c 0
 251 684 350 726 453 726 c 0
254 560 m 1
 465 560 l 2
 573 560 627 526 627 451 c 0
 627 396 585 355 506 338 c 1
 537 333 560 321 578 299 c 0
 601 271 604 239 614 215 c 0
 631 172 653 160 711 160 c 1
 711 124 l 1
 685 119 664 116 649 116 c 0
 618 116 593 125 570 145 c 0
 538 172 533 218 515 259 c 0
 495 304 470 316 416 316 c 0
 407 316 398 316 387 315 c 1
 387 165 l 1
 450 158 l 1
 450 121 l 1
 259 121 l 1
 259 157 l 1
 312 164 l 1
 312 516 l 1
 254 526 l 1
 254 560 l 1
387 355 m 1
 396 354 404 354 412 354 c 0
 496 354 540 383 540 437 c 0
 540 492 496 523 413 523 c 0
 405 523 396 523 387 522 c 1
 387 355 l 1
EndSplineSet
EndChar

StartChar: macron
Encoding: 175 175 109
Width: 500
GlyphClass: 2
Flags: MW
HStem: 608 60<102 403 102 403>
VStem: 102 301<608 668 608 668>
LayerCount: 2
Fore
SplineSet
102 668 m 1
 403 668 l 1
 403 608 l 1
 102 608 l 1
 102 668 l 1
EndSplineSet
EndChar

StartChar: degree
Encoding: 176 176 110
Width: 329
GlyphClass: 2
Flags: MW
HStem: 434 39<138 193 138 203> 670 40<138 192.5>
VStem: 27 39<544 599.5 544 611> 263 40<545 599>
LayerCount: 2
Fore
SplineSet
165 710 m 0
 241 710 303 648 303 572 c 0
 303 497 242 434 164 434 c 0
 87 434 27 495 27 572 c 0
 27 650 89 710 165 710 c 0
165 670 m 0
 111 670 66 627 66 572 c 0
 66 516 111 473 165 473 c 0
 221 473 263 518 263 572 c 0
 263 626 220 670 165 670 c 0
EndSplineSet
EndChar

StartChar: plusminus
Encoding: 177 177 111
Width: 833
GlyphClass: 2
Flags: MW
HStem: 20 57<124 709 124 709> 351 57<124 388 124 388 446 709>
VStem: 388 58<183 351 183 351 408 576>
LayerCount: 2
Fore
SplineSet
388 576 m 1
 446 576 l 1
 446 408 l 1
 709 408 l 1
 709 351 l 1
 446 351 l 1
 446 183 l 1
 388 183 l 1
 388 351 l 1
 124 351 l 1
 124 408 l 1
 388 408 l 1
 388 576 l 1
124 77 m 1
 709 77 l 1
 709 20 l 1
 124 20 l 1
 124 77 l 1
EndSplineSet
EndChar

StartChar: two.superior
Encoding: 178 178 112
Width: 374
GlyphClass: 2
Flags: MW
HStem: 268 49<95 297 95 340> 645 33<160 197.5>
VStem: 42 69<582 613> 258 67<527.5 584> 310 30<268 367>
LayerCount: 2
Fore
SplineSet
95 317 m 1xf0
 297 317 l 1
 310 367 l 1
 340 367 l 1
 340 268 l 1xe8
 28 268 l 1
 28 308 l 1
 174 414 258 478 258 556 c 0
 258 612 225 645 170 645 c 0
 150 645 131 641 111 631 c 1
 111 568 l 1
 102 562 91 559 81 559 c 0
 56 559 42 572 42 592 c 0
 42 634 101 678 185 678 c 0
 272 678 325 633 325 565 c 0
 325 490 243 422 95 317 c 1xf0
EndSplineSet
Substitution2: "'dnom' Denominators lookup 12 subtable" two.denominator
Substitution2: "'numr' Numerators lookup 11 subtable" two.numerator
Substitution2: "'subs' Subscript lookup 10 subtable" uni2082
EndChar

StartChar: three.superior
Encoding: 179 179 113
Width: 373
GlyphClass: 2
Flags: MW
HStem: 261 30<153.5 193 153.5 212.5> 457 35<164 181.5 134 201> 645 33<155.5 192.5>
VStem: 38 66<587.5 617> 250 63<554 591.5> 267 64<357 406.5>
LayerCount: 2
Fore
SplineSet
211 479 m 1xf8
 286 474 331 438 331 383 c 0
 331 316 264 261 161 261 c 0
 80 261 27 297 27 327 c 0
 27 345 43 358 65 358 c 0
 71 358 79 357 86 355 c 1
 107 305 l 1
 125 295 144 291 163 291 c 0
 223 291 267 331 267 383 c 0xf4
 267 430 233 457 169 457 c 0
 159 457 147 457 134 455 c 1
 134 492 l 1
 148 492 l 2
 215 492 250 521 250 568 c 0
 250 615 218 645 167 645 c 0
 144 645 123 640 104 628 c 1
 104 572 l 1
 96 567 86 565 76 565 c 0
 54 565 38 578 38 597 c 0
 38 637 96 678 181 678 c 0
 261 678 313 638 313 577 c 0
 313 531 278 496 211 479 c 1xf8
EndSplineSet
Substitution2: "'dnom' Denominators lookup 12 subtable" three.denominator
Substitution2: "'numr' Numerators lookup 11 subtable" three.numerator
Substitution2: "'subs' Subscript lookup 10 subtable" uni2083
EndChar

StartChar: acute
Encoding: 180 180 114
Width: 500
GlyphClass: 2
Flags: MW
HStem: 546 190<212 408 212 408>
VStem: 212 196<546 736>
LayerCount: 2
Fore
SplineSet
309 736 m 1
 408 736 l 1
 262 546 l 1
 212 546 l 1
 309 736 l 1
EndSplineSet
EndChar

StartChar: mu
Encoding: 181 181 115
Width: 569
GlyphClass: 2
Flags: MW
HStem: -10 64<243.5 255.5> 0 36<393 541> 423 31<26 97 26 26> 471 20G<142 180 180 180 438 476 476 476>
VStem: 80 86<-167 -150 -167 -131> 97 83<155 160 160 423 423 423> 393 83<0 491 56 491 84 423 423 423>
LayerCount: 2
Fore
SplineSet
142 491 m 1xb6
 180 491 l 1
 180 160 l 2
 180 88 210 54 277 54 c 0xb6
 314 54 352 64 393 84 c 1
 393 423 l 1
 322 423 l 1
 322 454 l 1
 438 491 l 1
 476 491 l 1
 476 57 l 1
 494 41 l 1
 541 36 l 1
 541 0 l 1
 393 0 l 1x76
 393 56 l 1
 333 13 280 -10 231 -10 c 0
 204 -10 181 -4 161 8 c 1
 163 -75 166 -150 166 -150 c 2
 166 -184 149 -205 123 -205 c 0
 99 -205 80 -189 80 -161 c 0xba
 80 -101 97 -29 97 155 c 2
 97 423 l 1
 26 423 l 1
 26 454 l 1
 142 491 l 1xb6
EndSplineSet
EndChar

StartChar: paragraph
Encoding: 182 182 116
Width: 484
GlyphClass: 2
Flags: MW
HStem: 630 41<271 347 271 271>
VStem: 26 245<413.5 544> 222 49<-79 281 281 282 282 282> 347 49<-79 625 -79 630 -79 630>
LayerCount: 2
Fore
SplineSet
458 671 m 1xd0
 458 635 l 1
 396 625 l 1
 396 -79 l 1
 347 -79 l 1
 347 630 l 1
 271 630 l 1
 271 281 l 1
 271 -79 l 1
 222 -79 l 1
 222 282 l 1xb0
 90 290 26 353 26 474 c 0
 26 614 101 671 262 671 c 2
 458 671 l 1xd0
EndSplineSet
EndChar

StartChar: periodcentered
Encoding: 183 183 117
Width: 278
GlyphClass: 2
Flags: MW
HStem: 272 127<121.5 156.5>
VStem: 75 127<317.5 353>
LayerCount: 2
Fore
SplineSet
139 399 m 0
 174 399 202 371 202 335 c 0
 202 300 174 272 139 272 c 0
 104 272 75 300 75 335 c 0
 75 371 104 399 139 399 c 0
EndSplineSet
EndChar

StartChar: cedilla
Encoding: 184 184 118
Width: 500
GlyphClass: 2
Flags: MW
HStem: -223 38<239 260.5 228.5 286> -107 107<235 272> -105 45<252.5 315.5>
VStem: 235 37<-61 0 -61 0 -61 0> 306 61<-155 -130.5>
LayerCount: 2
Fore
SplineSet
235 0 m 1xd8
 272 0 l 1xd8
 272 -61 l 1
 281 -60 288 -60 292 -60 c 0
 339 -60 367 -87 367 -132 c 0
 367 -187 323 -223 249 -223 c 0
 229 -223 206 -220 180 -213 c 1
 180 -177 l 1
 199 -182 218 -185 239 -185 c 0
 282 -185 306 -168 306 -142 c 0
 306 -119 288 -105 256 -105 c 0xb8
 249 -105 242 -106 235 -107 c 1
 235 0 l 1xd8
EndSplineSet
EndChar

StartChar: one.superior
Encoding: 185 185 119
Width: 370
GlyphClass: 2
Flags: MW
HStem: 268 30<158 158 158 306> 613 26<63 63> 658 20G<208 227 227 227>
VStem: 166 61<309 630 630 630>
LayerCount: 2
Fore
SplineSet
208 678 m 1
 227 678 l 1
 227 306 l 1
 235 297 l 1
 306 294 l 1
 306 268 l 1
 82 268 l 1
 82 295 l 1
 158 298 l 1
 166 309 l 1
 166 630 l 1
 63 613 l 1
 63 639 l 1
 208 678 l 1
EndSplineSet
Substitution2: "'dnom' Denominators lookup 12 subtable" one.denominator
Substitution2: "'numr' Numerators lookup 11 subtable" one.numerator
Substitution2: "'subs' Subscript lookup 10 subtable" uni2081
EndChar

StartChar: ordmasculine
Encoding: 186 186 120
Width: 404
GlyphClass: 2
Flags: MW
HStem: 328 30<172 232.5 172 252> 648 30<171.5 232.5>
VStem: 28 70<457.5 548.5 457.5 555> 306 71<457.5 548>
LayerCount: 2
Fore
SplineSet
202 678 m 0
 303 678 377 606 377 503 c 0
 377 399 302 328 202 328 c 0
 101 328 28 399 28 503 c 0
 28 607 101 678 202 678 c 0
202 648 m 0
 141 648 98 594 98 503 c 0
 98 412 142 358 202 358 c 0
 263 358 306 412 306 503 c 0
 306 593 263 648 202 648 c 0
EndSplineSet
EndChar

StartChar: guillemotright
Encoding: 187 187 121
Width: 442
GlyphClass: 2
Flags: W
LayerCount: 2
Fore
SplineSet
46 413 m 1
 209 280 l 1
 209 200 l 1
 46 67 l 1
 46 132 l 1
 163 240 l 1
 46 347 l 1
 46 413 l 1
243 413 m 1
 407 280 l 1
 407 200 l 1
 243 67 l 1
 243 132 l 1
 360 240 l 1
 243 347 l 1
 243 413 l 1
EndSplineSet
EndChar

StartChar: onequarter
Encoding: 188 188 122
Width: 867
GlyphClass: 2
Flags: MW
HStem: 0 21G<189 250 189 189> 109 36<581 737 534 534 785 857> 295 24<78 289 78 78> 618 23<59 59> 657 21G
VStem: 158 55<332 633 633 633> 737 48<-21 109 -21 109 145 318 318 318>
LayerCount: 2
Fore
SplineSet
195 677 m 1
 213 677 l 1
 213 330 l 1
 221 321 l 1
 289 319 l 1
 289 295 l 1
 78 295 l 1
 78 319 l 1
 150 322 l 1
 158 332 l 1
 158 633 l 1
 59 618 l 1
 59 641 l 1
 195 677 l 1
616 671 m 1
 677 671 l 1
 250 0 l 1
 189 0 l 1
 616 671 l 1
749 379 m 1
 785 379 l 1
 785 145 l 1
 857 145 l 1
 857 109 l 1
 785 109 l 1
 785 -21 l 1
 737 -21 l 1
 737 109 l 1
 534 109 l 1
 534 145 l 1
 749 379 l 1
737 318 m 1
 581 145 l 1
 737 145 l 1
 737 318 l 1
EndSplineSet
EndChar

StartChar: onehalf
Encoding: 189 189 123
Width: 867
GlyphClass: 2
Flags: MW
HStem: 0 44<606 795 606 835> 295 24<78 289 78 78> 354 28<666.5 702.5> 618 23<59 59> 657 21G
VStem: 158 55<332 633 633 633> 557 63<294 323.5> 760 61<241.5 296> 807 28<0 92>
LayerCount: 2
Fore
SplineSet
195 677 m 1xfe
 213 677 l 1
 213 330 l 1
 221 321 l 1
 289 319 l 1
 289 295 l 1
 78 295 l 1
 78 319 l 1
 150 322 l 1
 158 332 l 1
 158 633 l 1
 59 618 l 1
 59 641 l 1
 195 677 l 1xfe
616 671 m 1
 677 671 l 1
 250 0 l 1
 189 0 l 1
 616 671 l 1
606 44 m 1
 795 44 l 1
 807 92 l 1
 835 92 l 1
 835 0 l 1xfe80
 543 0 l 1
 543 35 l 1
 681 135 760 196 760 269 c 0
 760 323 729 354 676 354 c 0
 657 354 639 350 620 340 c 1
 620 281 l 1
 611 275 602 272 592 272 c 0
 570 272 557 284 557 304 c 0
 557 343 612 382 690 382 c 0
 772 382 821 340 821 277 c 0xff
 821 206 745 143 606 44 c 1
EndSplineSet
EndChar

StartChar: threequarters
Encoding: 190 190 124
Width: 868
GlyphClass: 2
Flags: MW
HStem: 0 21G<189 250 189 189> 109 36<581 737 534 534 785 857> 289 26<143.5 181.5 143.5 199.5> 474 30<154 170.5> 649 28<145 180.5>
VStem: 37 59<594 621.5> 236 58<561.5 598> 252 58<379 426> 737 48<-21 109 -21 109 145 318 318 318>
LayerCount: 2
Fore
SplineSet
200 493 m 1xfe80
 270 488 310 453 310 403 c 0
 310 340 248 289 151 289 c 0
 76 289 26 322 26 350 c 0
 26 367 41 379 61 379 c 0
 67 379 73 378 80 376 c 1
 100 329 l 1
 117 320 134 315 153 315 c 0
 210 315 252 354 252 404 c 0xfd80
 252 448 219 474 159 474 c 0
 149 474 137 473 125 471 c 1
 125 504 l 1
 139 504 l 2
 202 504 236 531 236 576 c 0
 236 620 205 649 156 649 c 0
 134 649 115 644 96 633 c 1
 96 580 l 1
 89 575 81 573 71 573 c 0
 50 573 37 585 37 603 c 0
 37 640 91 677 169 677 c 0
 245 677 294 640 294 583 c 0
 294 540 261 508 200 493 c 1xfe80
616 671 m 1
 677 671 l 1
 250 0 l 1
 189 0 l 1
 616 671 l 1
749 379 m 1
 785 379 l 1
 785 145 l 1
 857 145 l 1
 857 109 l 1
 785 109 l 1
 785 -21 l 1
 737 -21 l 1
 737 109 l 1
 534 109 l 1
 534 145 l 1
 749 379 l 1
737 318 m 1
 581 145 l 1
 737 145 l 1
 737 318 l 1
EndSplineSet
EndChar

StartChar: questiondown
Encoding: 191 191 125
Width: 486
GlyphClass: 2
Flags: MW
HStem: -9 46<290 297 290 312.5> 569 114<253 284.5>
VStem: 60 91<133.5 219> 212 114<610 641.5> 243 52<386 503 357 503>
LayerCount: 2
Fore
SplineSet
269 683 m 0xf0
 300 683 326 658 326 626 c 0
 326 594 300 569 269 569 c 0
 237 569 212 594 212 626 c 0
 212 657 237 683 269 683 c 0xf0
243 503 m 1xe8
 295 503 l 1
 295 357 l 1
 199 321 151 261 151 178 c 0
 151 89 201 37 290 37 c 2
 297 37 l 1
 336 136 l 1
 342 137 348 137 354 137 c 0
 393 137 415 117 415 84 c 0
 415 34 357 -9 268 -9 c 0
 140 -9 60 64 60 172 c 0
 60 266 120 333 243 386 c 1
 243 503 l 1xe8
EndSplineSet
Substitution2: "'sups' Superscript lookup 9 subtable" questiondown.superior
Substitution2: "'smcp' Lowercase to Small Capitals in Latin lookup 4 subtable" questiondown.sc
EndChar

StartChar: Agrave
Encoding: 192 192 126
Width: 639
GlyphClass: 2
Flags: MW
HStem: 0 41<-8 188 -8 -8> 251 46<201 403 201 420 184 403> 659 20G<284 350 350 350> 743 21G<320 370 320 320>
LayerCount: 2
Fore
SplineSet
284 679 m 1
 350 679 l 1
 590 53 l 1
 650 41 l 1
 650 0 l 1
 423 0 l 1
 423 41 l 1
 485 46 l 1
 492 60 l 1
 420 251 l 1
 184 251 l 1
 113 60 l 1
 123 46 l 1
 188 41 l 1
 188 0 l 1
 -8 0 l 1
 -8 41 l 1
 50 53 l 1
 284 679 l 1
300 574 m 1
 201 297 l 1
 403 297 l 1
 300 574 l 1
174 933 m 1
 273 933 l 1
 370 743 l 1
 320 743 l 1
 174 933 l 1
EndSplineSet
Position2: "'cpsp' Capital Spacing in Latin lookup 2 subtable" dx=7 dy=0 dh=14 dv=0
EndChar

StartChar: Aacute
Encoding: 193 193 127
Width: 639
GlyphClass: 2
Flags: MW
HStem: 0 41<-8 188 -8 -8> 251 46<201 403 201 420 184 403> 659 20G<284 350 350 350> 743 21G<282 332 282 282>
LayerCount: 2
Fore
SplineSet
284 679 m 1
 350 679 l 1
 590 53 l 1
 650 41 l 1
 650 0 l 1
 423 0 l 1
 423 41 l 1
 485 46 l 1
 492 60 l 1
 420 251 l 1
 184 251 l 1
 113 60 l 1
 123 46 l 1
 188 41 l 1
 188 0 l 1
 -8 0 l 1
 -8 41 l 1
 50 53 l 1
 284 679 l 1
300 574 m 1
 201 297 l 1
 403 297 l 1
 300 574 l 1
379 933 m 1
 478 933 l 1
 332 743 l 1
 282 743 l 1
 379 933 l 1
EndSplineSet
Position2: "'cpsp' Capital Spacing in Latin lookup 2 subtable" dx=7 dy=0 dh=14 dv=0
EndChar

StartChar: Acircumflex
Encoding: 194 194 128
Width: 639
GlyphClass: 2
Flags: MW
HStem: 0 41<-8 188 -8 -8> 251 46<201 403 201 420 184 403> 659 20G<284 350 350 350> 743 21G<178 233 178 178 408 462 408 408>
LayerCount: 2
Fore
SplineSet
284 679 m 1
 350 679 l 1
 590 53 l 1
 650 41 l 1
 650 0 l 1
 423 0 l 1
 423 41 l 1
 485 46 l 1
 492 60 l 1
 420 251 l 1
 184 251 l 1
 113 60 l 1
 123 46 l 1
 188 41 l 1
 188 0 l 1
 -8 0 l 1
 -8 41 l 1
 50 53 l 1
 284 679 l 1
300 574 m 1
 201 297 l 1
 403 297 l 1
 300 574 l 1
288 933 m 1
 352 933 l 1
 462 743 l 1
 408 743 l 1
 320 884 l 1
 233 743 l 1
 178 743 l 1
 288 933 l 1
EndSplineSet
Position2: "'cpsp' Capital Spacing in Latin lookup 2 subtable" dx=7 dy=0 dh=14 dv=0
EndChar

StartChar: Atilde
Encoding: 195 195 129
Width: 639
GlyphClass: 2
Flags: MW
HStem: 0 41<-8 188 -8 -8> 251 46<201 403 201 420 184 403> 659 20G<284 350 350 350> 784 54<374 404.5 374 412.5> 836 54<234.5 260>
VStem: 167 42<770 799 780 799 780 816.5> 431 42<857.5 905 857.5 905>
LayerCount: 2
Fore
SplineSet
284 679 m 1xe6
 350 679 l 1
 590 53 l 1
 650 41 l 1
 650 0 l 1
 423 0 l 1
 423 41 l 1
 485 46 l 1
 492 60 l 1
 420 251 l 1
 184 251 l 1
 113 60 l 1
 123 46 l 1
 188 41 l 1
 188 0 l 1
 -8 0 l 1
 -8 41 l 1
 50 53 l 1
 284 679 l 1xe6
300 574 m 1
 201 297 l 1
 403 297 l 1
 300 574 l 1
431 905 m 1
 472 905 l 1
 472 900 473 895 473 890 c 0xee
 473 825 436 784 389 784 c 0xf6
 328 784 275 836 245 836 c 0
 224 836 209 816 209 782 c 0
 209 778 210 774 210 770 c 1
 167 770 l 1
 167 780 l 2
 167 853 198 890 252 890 c 0xee
 307 890 358 838 390 838 c 0xf6
 419 838 431 857 431 900 c 2
 431 905 l 1
EndSplineSet
Position2: "'cpsp' Capital Spacing in Latin lookup 2 subtable" dx=7 dy=0 dh=14 dv=0
EndChar

StartChar: Adieresis
Encoding: 196 196 130
Width: 639
GlyphClass: 2
Flags: MW
HStem: 0 41<-8 188 -8 -8> 251 46<201 403 201 420 184 403> 659 20G<284 350 350 350> 787 101<213 241 399 427>
VStem: 176 101<823 851.5> 362 101<823 851.5>
LayerCount: 2
Fore
SplineSet
284 679 m 1
 350 679 l 1
 590 53 l 1
 650 41 l 1
 650 0 l 1
 423 0 l 1
 423 41 l 1
 485 46 l 1
 492 60 l 1
 420 251 l 1
 184 251 l 1
 113 60 l 1
 123 46 l 1
 188 41 l 1
 188 0 l 1
 -8 0 l 1
 -8 41 l 1
 50 53 l 1
 284 679 l 1
300 574 m 1
 201 297 l 1
 403 297 l 1
 300 574 l 1
227 888 m 0
 255 888 277 866 277 837 c 0
 277 809 255 787 227 787 c 0
 199 787 176 809 176 837 c 0
 176 866 199 888 227 888 c 0
413 888 m 0
 441 888 463 866 463 837 c 0
 463 809 441 787 413 787 c 0
 385 787 362 809 362 837 c 0
 362 866 385 888 413 888 c 0
EndSplineSet
Position2: "'cpsp' Capital Spacing in Latin lookup 2 subtable" dx=7 dy=0 dh=14 dv=0
EndChar

StartChar: Aring
Encoding: 197 197 131
Width: 639
GlyphClass: 2
Flags: MW
HStem: 0 41<-8 188 -8 -8> 251 46<201 403 201 420 184 403> 659 20G<284 350 350 350> 728 45<287 327.5 287 339> 918 45<287 327.5>
VStem: 189 45<825 865.5 825 879> 379 45<825 865.5>
LayerCount: 2
Fore
SplineSet
306 963 m 0
 372 963 424 912 424 846 c 0
 424 780 372 728 306 728 c 0
 240 728 189 780 189 846 c 0
 189 912 240 963 306 963 c 0
307 918 m 0
 267 918 234 886 234 845 c 0
 234 805 267 773 307 773 c 0
 348 773 379 805 379 845 c 0
 379 886 348 918 307 918 c 0
284 679 m 1
 350 679 l 1
 590 53 l 1
 650 41 l 1
 650 0 l 1
 423 0 l 1
 423 41 l 1
 485 46 l 1
 492 60 l 1
 420 251 l 1
 184 251 l 1
 113 60 l 1
 123 46 l 1
 188 41 l 1
 188 0 l 1
 -8 0 l 1
 -8 41 l 1
 50 53 l 1
 284 679 l 1
300 574 m 1
 201 297 l 1
 403 297 l 1
 300 574 l 1
EndSplineSet
Substitution2: "'c2sc' Capitals to Small Capitals in Latin lookup 6 subtable" aring.sc
Position2: "'cpsp' Capital Spacing in Latin lookup 2 subtable" dx=7 dy=0 dh=14 dv=0
EndChar

StartChar: AE
Encoding: 198 198 132
Width: 866
GlyphClass: 2
Flags: MW
HStem: 0 41<-56 142 -56 -56> 251 47<219 426 219 426 193 426> 326 46<512 650 512 650> 625 46<341 341 512 718 512 512>
VStem: 426 86<60 251 251 251 298 326 372 625> 675 46<239 459 239 459> 746 55<525 671> 785 52<0 163>
AnchorPoint: "Anchor-2" 390 0 basechar 0
AnchorPoint: "Anchor-1" 461 688 basechar 0
LayerCount: 2
Fore
SplineSet
283 671 m 1xfd
 801 671 l 1
 801 525 l 1
 746 525 l 1xfe
 732 610 l 1
 718 625 l 1
 512 625 l 1
 512 372 l 1
 650 372 l 1
 665 386 l 1
 675 459 l 1
 721 459 l 1
 721 239 l 1
 675 239 l 1
 665 311 l 1
 650 326 l 1
 512 326 l 1
 512 46 l 1
 754 46 l 1
 769 62 l 1
 785 163 l 1
 837 163 l 1
 837 0 l 1
 352 0 l 1
 352 41 l 1
 409 46 l 1
 426 60 l 1
 426 251 l 1
 193 251 l 1
 73 60 l 1
 78 46 l 1
 142 41 l 1
 142 0 l 1
 -56 0 l 1
 -56 41 l 1
 1 50 l 1
 350 611 l 1
 341 625 l 1
 283 631 l 1
 283 671 l 1xfd
426 627 m 1
 219 298 l 1
 426 298 l 1
 426 627 l 1
EndSplineSet
Substitution2: "'c2sc' Capitals to Small Capitals in Latin lookup 6 subtable" ae.sc
Position2: "'cpsp' Capital Spacing in Latin lookup 2 subtable" dx=7 dy=0 dh=14 dv=0
EndChar

StartChar: Ccedilla
Encoding: 199 199 133
Width: 632
GlyphClass: 2
Flags: MW
HStem: -223 38<358 379.5 347.5 405> -105 45<371.5 434.5> -11 52<354 354> 630 53<317.5 411.5>
VStem: 43 103<270.5 432.5 248 440> 354 37<-61 -12 -61 -11 -61 -11> 425 61<-155 -130.5> 532 56<23 181>
AnchorPoint: "Anchor-1" 389 688 basechar 0
LayerCount: 2
Fore
SplineSet
354 -11 m 1
 301 -7 254 6 216 28 c 0
 109 89 43 205 43 336 c 0
 43 544 182 683 390 683 c 0
 449 683 515 672 588 649 c 1
 588 495 l 1
 532 495 l 1
 517 586 l 1
 504 604 l 1
 467 621 431 630 392 630 c 0
 243 630 146 522 146 343 c 0
 146 153 245 41 407 41 c 0
 435 41 464 45 494 54 c 1
 510 70 l 1
 532 181 l 1
 588 181 l 1
 588 23 l 1
 524 1 456 -11 391 -12 c 1
 391 -61 l 1
 400 -60 407 -60 411 -60 c 0
 458 -60 486 -87 486 -132 c 0
 486 -187 442 -223 368 -223 c 0
 348 -223 325 -220 299 -213 c 1
 299 -177 l 1
 318 -182 337 -185 358 -185 c 0
 401 -185 425 -168 425 -142 c 0
 425 -119 407 -105 375 -105 c 0
 368 -105 361 -106 354 -107 c 1
 354 -11 l 1
EndSplineSet
Position2: "'cpsp' Capital Spacing in Latin lookup 2 subtable" dx=7 dy=0 dh=14 dv=0
EndChar

StartChar: Egrave
Encoding: 200 200 134
Width: 576
GlyphClass: 2
Flags: MW
HStem: 0 46<90 90 197 465> 326 46<197 361 197 361> 625 46<90 90 197 197 197 428> 743 21G<288 338 288 288>
VStem: 107 90<60 326 372 611 611 611> 385 47<239 459 239 459> 456 56<525 671> 496 52<0 163>
LayerCount: 2
Fore
SplineSet
33 0 m 1xfd
 33 41 l 1
 90 46 l 1
 107 60 l 1
 107 611 l 1
 90 625 l 1
 33 631 l 1
 33 671 l 1
 512 671 l 1
 512 525 l 1
 456 525 l 1xfe
 442 610 l 1
 428 625 l 1
 197 625 l 1
 197 372 l 1
 361 372 l 1
 375 386 l 1
 385 459 l 1
 432 459 l 1
 432 239 l 1
 385 239 l 1
 375 311 l 1
 361 326 l 1
 197 326 l 1
 197 46 l 1
 465 46 l 1
 479 62 l 1
 496 163 l 1
 548 163 l 1
 548 0 l 1
 33 0 l 1xfd
142 933 m 1
 241 933 l 1
 338 743 l 1
 288 743 l 1
 142 933 l 1
EndSplineSet
Position2: "'cpsp' Capital Spacing in Latin lookup 2 subtable" dx=7 dy=0 dh=14 dv=0
EndChar

StartChar: Eacute
Encoding: 201 201 135
Width: 576
GlyphClass: 2
Flags: MW
HStem: 0 46<90 90 197 465> 326 46<197 361 197 361> 625 46<90 90 197 197 197 428> 743 21G<250 300 250 250>
VStem: 107 90<60 326 372 611 611 611> 385 47<239 459 239 459> 456 56<525 671> 496 52<0 163>
LayerCount: 2
Fore
SplineSet
33 0 m 1xfd
 33 41 l 1
 90 46 l 1
 107 60 l 1
 107 611 l 1
 90 625 l 1
 33 631 l 1
 33 671 l 1
 512 671 l 1
 512 525 l 1
 456 525 l 1xfe
 442 610 l 1
 428 625 l 1
 197 625 l 1
 197 372 l 1
 361 372 l 1
 375 386 l 1
 385 459 l 1
 432 459 l 1
 432 239 l 1
 385 239 l 1
 375 311 l 1
 361 326 l 1
 197 326 l 1
 197 46 l 1
 465 46 l 1
 479 62 l 1
 496 163 l 1
 548 163 l 1
 548 0 l 1
 33 0 l 1xfd
347 933 m 1
 446 933 l 1
 300 743 l 1
 250 743 l 1
 347 933 l 1
EndSplineSet
Position2: "'cpsp' Capital Spacing in Latin lookup 2 subtable" dx=7 dy=0 dh=14 dv=0
EndChar

StartChar: Ecircumflex
Encoding: 202 202 136
Width: 576
GlyphClass: 2
Flags: MW
HStem: 0 46<90 90 197 465> 326 46<197 361 197 361> 625 46<90 90 197 197 197 428> 743 21G<146 201 146 146 376 430 376 376>
VStem: 107 90<60 326 372 611 611 611> 385 47<239 459 239 459> 456 56<525 671> 496 52<0 163>
LayerCount: 2
Fore
SplineSet
33 0 m 1xfd
 33 41 l 1
 90 46 l 1
 107 60 l 1
 107 611 l 1
 90 625 l 1
 33 631 l 1
 33 671 l 1
 512 671 l 1
 512 525 l 1
 456 525 l 1xfe
 442 610 l 1
 428 625 l 1
 197 625 l 1
 197 372 l 1
 361 372 l 1
 375 386 l 1
 385 459 l 1
 432 459 l 1
 432 239 l 1
 385 239 l 1
 375 311 l 1
 361 326 l 1
 197 326 l 1
 197 46 l 1
 465 46 l 1
 479 62 l 1
 496 163 l 1
 548 163 l 1
 548 0 l 1
 33 0 l 1xfd
256 933 m 1
 320 933 l 1
 430 743 l 1
 376 743 l 1
 288 884 l 1
 201 743 l 1
 146 743 l 1
 256 933 l 1
EndSplineSet
Position2: "'cpsp' Capital Spacing in Latin lookup 2 subtable" dx=7 dy=0 dh=14 dv=0
EndChar

StartChar: Edieresis
Encoding: 203 203 137
Width: 576
GlyphClass: 2
Flags: MW
HStem: 0 46<90 90 197 465> 326 46<197 361 197 361> 625 46<90 90 197 197 197 428> 787 101<181 209 367 395>
VStem: 107 90<60 326 372 611 611 611> 144 101<823 851.5> 330 101<823 851.5> 385 47<239 459 239 459> 456 56<525 671> 496 52<0 163>
LayerCount: 2
Fore
SplineSet
33 0 m 1xf940
 33 41 l 1
 90 46 l 1
 107 60 l 1
 107 611 l 1
 90 625 l 1
 33 631 l 1
 33 671 l 1
 512 671 l 1
 512 525 l 1
 456 525 l 1xf880
 442 610 l 1
 428 625 l 1
 197 625 l 1
 197 372 l 1
 361 372 l 1
 375 386 l 1
 385 459 l 1
 432 459 l 1
 432 239 l 1
 385 239 l 1
 375 311 l 1
 361 326 l 1
 197 326 l 1
 197 46 l 1
 465 46 l 1
 479 62 l 1
 496 163 l 1
 548 163 l 1
 548 0 l 1
 33 0 l 1xf940
195 888 m 0
 223 888 245 866 245 837 c 0
 245 809 223 787 195 787 c 0
 167 787 144 809 144 837 c 0xf4
 144 866 167 888 195 888 c 0
381 888 m 0
 409 888 431 866 431 837 c 0
 431 809 409 787 381 787 c 0
 353 787 330 809 330 837 c 0xf2
 330 866 353 888 381 888 c 0
EndSplineSet
Position2: "'cpsp' Capital Spacing in Latin lookup 2 subtable" dx=7 dy=0 dh=14 dv=0
EndChar

StartChar: Igrave
Encoding: 204 204 138
Width: 324
GlyphClass: 2
Flags: MW
HStem: 0 41<35 35 35 288> 631 40<35 288 35 288> 743 21G<162 212 162 162>
VStem: 116 91<60 611 60 611>
LayerCount: 2
Fore
SplineSet
35 0 m 1
 35 41 l 1
 99 46 l 1
 116 60 l 1
 116 611 l 1
 99 625 l 1
 35 631 l 1
 35 671 l 1
 288 671 l 1
 288 631 l 1
 224 625 l 1
 207 611 l 1
 207 60 l 1
 224 46 l 1
 288 41 l 1
 288 0 l 1
 35 0 l 1
16 933 m 1
 115 933 l 1
 212 743 l 1
 162 743 l 1
 16 933 l 1
EndSplineSet
Position2: "'cpsp' Capital Spacing in Latin lookup 2 subtable" dx=7 dy=0 dh=14 dv=0
EndChar

StartChar: Iacute
Encoding: 205 205 139
Width: 324
GlyphClass: 2
Flags: MW
HStem: 0 41<35 35 35 288> 631 40<35 288 35 288> 743 21G<124 174 124 124>
VStem: 116 91<60 611 60 611>
LayerCount: 2
Fore
SplineSet
35 0 m 1
 35 41 l 1
 99 46 l 1
 116 60 l 1
 116 611 l 1
 99 625 l 1
 35 631 l 1
 35 671 l 1
 288 671 l 1
 288 631 l 1
 224 625 l 1
 207 611 l 1
 207 60 l 1
 224 46 l 1
 288 41 l 1
 288 0 l 1
 35 0 l 1
221 933 m 1
 320 933 l 1
 174 743 l 1
 124 743 l 1
 221 933 l 1
EndSplineSet
Position2: "'cpsp' Capital Spacing in Latin lookup 2 subtable" dx=7 dy=0 dh=14 dv=0
EndChar

StartChar: Icircumflex
Encoding: 206 206 140
Width: 324
GlyphClass: 2
Flags: MW
HStem: 0 41<35 35 35 288> 631 40<35 288 35 288> 743 21G<20 75 20 20 250 304 250 250>
VStem: 116 91<60 611 60 611>
LayerCount: 2
Fore
SplineSet
35 0 m 1
 35 41 l 1
 99 46 l 1
 116 60 l 1
 116 611 l 1
 99 625 l 1
 35 631 l 1
 35 671 l 1
 288 671 l 1
 288 631 l 1
 224 625 l 1
 207 611 l 1
 207 60 l 1
 224 46 l 1
 288 41 l 1
 288 0 l 1
 35 0 l 1
130 933 m 1
 194 933 l 1
 304 743 l 1
 250 743 l 1
 162 884 l 1
 75 743 l 1
 20 743 l 1
 130 933 l 1
EndSplineSet
Position2: "'cpsp' Capital Spacing in Latin lookup 2 subtable" dx=7 dy=0 dh=14 dv=0
EndChar

StartChar: Idieresis
Encoding: 207 207 141
Width: 324
GlyphClass: 2
Flags: MW
HStem: 0 41<35 35 35 288> 631 40<35 288 35 288> 787 101<55 83 241 269>
VStem: 18 101<823 851.5> 116 91<60 611 60 611> 204 101<823 851.5>
LayerCount: 2
Fore
SplineSet
35 0 m 1xe8
 35 41 l 1
 99 46 l 1
 116 60 l 1
 116 611 l 1
 99 625 l 1
 35 631 l 1
 35 671 l 1
 288 671 l 1
 288 631 l 1
 224 625 l 1
 207 611 l 1
 207 60 l 1
 224 46 l 1
 288 41 l 1
 288 0 l 1
 35 0 l 1xe8
69 888 m 0
 97 888 119 866 119 837 c 0
 119 809 97 787 69 787 c 0
 41 787 18 809 18 837 c 0xf0
 18 866 41 888 69 888 c 0
255 888 m 0
 283 888 305 866 305 837 c 0
 305 809 283 787 255 787 c 0
 227 787 204 809 204 837 c 0xe4
 204 866 227 888 255 888 c 0
EndSplineSet
Position2: "'cpsp' Capital Spacing in Latin lookup 2 subtable" dx=7 dy=0 dh=14 dv=0
EndChar

StartChar: Eth
Encoding: 208 208 142
Width: 693
GlyphClass: 2
Flags: MW
HStem: 0 46<90 90 197 276 276 280> 327 48<15 107 15 107 197 363> 625 46<90 90 197 197 197 276>
VStem: 107 90<60 327 46 327 375 611 611 611> 548 101<276.5 433.5>
LayerCount: 2
Fore
SplineSet
280 671 m 2
 517 671 649 546 649 336 c 0
 649 217 606 124 524 62 c 0
 456 11 380 0 280 0 c 2
 33 0 l 1
 33 41 l 1
 90 46 l 1
 107 60 l 1
 107 327 l 1
 15 327 l 1
 15 375 l 1
 107 375 l 1
 107 611 l 1
 90 625 l 1
 33 631 l 1
 33 671 l 1
 280 671 l 2
197 327 m 1
 197 46 l 1
 276 46 l 2
 459 46 548 142 548 336 c 0
 548 531 459 625 276 625 c 2
 197 625 l 1
 197 375 l 1
 363 375 l 1
 363 327 l 1
 197 327 l 1
EndSplineSet
Substitution2: "'c2sc' Capitals to Small Capitals in Latin lookup 6 subtable" eth.sc
Position2: "'cpsp' Capital Spacing in Latin lookup 2 subtable" dx=7 dy=0 dh=14 dv=0
EndChar

StartChar: Ntilde
Encoding: 209 209 143
Width: 713
GlyphClass: 2
Flags: MW
HStem: 0 41<29 29 29 240> 631 40<26 214> 784 54<411 441.5 411 449.5> 836 54<271.5 297>
VStem: 108 54<68 568 68 611 68 611> 204 42<770 799 780 799 780 816.5> 468 42<857.5 905 857.5 905> 555 54<134 604 0 604>
LayerCount: 2
Fore
SplineSet
29 0 m 1xcf
 29 41 l 1
 90 49 l 1
 108 68 l 1
 108 611 l 1
 90 625 l 1
 26 631 l 1
 26 671 l 1
 214 671 l 1
 214 646 l 1
 555 134 l 1
 555 604 l 1
 537 622 l 1
 477 631 l 1
 477 671 l 1
 687 671 l 1
 687 631 l 1
 627 622 l 1
 609 604 l 1
 609 0 l 1
 543 0 l 1
 162 568 l 1
 162 68 l 1
 180 49 l 1
 240 41 l 1
 240 0 l 1
 29 0 l 1xcf
468 905 m 1
 509 905 l 1
 509 900 510 895 510 890 c 0xdf
 510 825 473 784 426 784 c 0xef
 365 784 312 836 282 836 c 0
 261 836 246 816 246 782 c 0
 246 778 247 774 247 770 c 1
 204 770 l 1
 204 780 l 2
 204 853 235 890 289 890 c 0xdf
 344 890 395 838 427 838 c 0xef
 456 838 468 857 468 900 c 2
 468 905 l 1
EndSplineSet
Position2: "'cpsp' Capital Spacing in Latin lookup 2 subtable" dx=7 dy=0 dh=14 dv=0
EndChar

StartChar: Ograve
Encoding: 210 210 144
Width: 731
GlyphClass: 2
Flags: MW
HStem: -16 53<323.5 424> 634 54<323 409 323 430.5> 743 21G<366 416 366 366>
VStem: 43 104<281.5 390.5> 584 105<299 390.5 299 429>
LayerCount: 2
Fore
SplineSet
366 688 m 0
 452 688 526 658 586 600 c 0
 653 535 689 445 689 336 c 0
 689 262 672 196 638 138 c 0
 582 42 482 -16 366 -16 c 0
 281 -16 204 14 146 70 c 0
 78 136 43 227 43 336 c 0
 43 445 78 535 145 600 c 0
 205 658 280 688 366 688 c 0
366 634 m 0
 236 634 147 524 147 336 c 0
 147 150 236 37 366 37 c 0
 495 37 584 150 584 336 c 0
 584 522 495 634 366 634 c 0
220 933 m 1
 319 933 l 1
 416 743 l 1
 366 743 l 1
 220 933 l 1
EndSplineSet
Position2: "'cpsp' Capital Spacing in Latin lookup 2 subtable" dx=7 dy=0 dh=14 dv=0
EndChar

StartChar: Oacute
Encoding: 211 211 145
Width: 731
GlyphClass: 2
Flags: MW
HStem: -16 53<323.5 424> 634 54<323 409 323 430.5> 743 21G<328 378 328 328>
VStem: 43 104<281.5 390.5> 584 105<299 390.5 299 429>
LayerCount: 2
Fore
SplineSet
366 688 m 0
 452 688 526 658 586 600 c 0
 653 535 689 445 689 336 c 0
 689 262 672 196 638 138 c 0
 582 42 482 -16 366 -16 c 0
 281 -16 204 14 146 70 c 0
 78 136 43 227 43 336 c 0
 43 445 78 535 145 600 c 0
 205 658 280 688 366 688 c 0
366 634 m 0
 236 634 147 524 147 336 c 0
 147 150 236 37 366 37 c 0
 495 37 584 150 584 336 c 0
 584 522 495 634 366 634 c 0
425 933 m 1
 524 933 l 1
 378 743 l 1
 328 743 l 1
 425 933 l 1
EndSplineSet
Position2: "'cpsp' Capital Spacing in Latin lookup 2 subtable" dx=7 dy=0 dh=14 dv=0
EndChar

StartChar: Ocircumflex
Encoding: 212 212 146
Width: 731
GlyphClass: 2
Flags: MW
HStem: -16 53<323.5 424> 634 54<323 409 323 430.5> 743 21G<224 279 224 224 454 508 454 454>
VStem: 43 104<281.5 390.5> 584 105<299 390.5 299 429>
LayerCount: 2
Fore
SplineSet
366 688 m 0
 452 688 526 658 586 600 c 0
 653 535 689 445 689 336 c 0
 689 262 672 196 638 138 c 0
 582 42 482 -16 366 -16 c 0
 281 -16 204 14 146 70 c 0
 78 136 43 227 43 336 c 0
 43 445 78 535 145 600 c 0
 205 658 280 688 366 688 c 0
366 634 m 0
 236 634 147 524 147 336 c 0
 147 150 236 37 366 37 c 0
 495 37 584 150 584 336 c 0
 584 522 495 634 366 634 c 0
334 933 m 1
 398 933 l 1
 508 743 l 1
 454 743 l 1
 366 884 l 1
 279 743 l 1
 224 743 l 1
 334 933 l 1
EndSplineSet
Position2: "'cpsp' Capital Spacing in Latin lookup 2 subtable" dx=7 dy=0 dh=14 dv=0
EndChar

StartChar: Otilde
Encoding: 213 213 147
Width: 731
GlyphClass: 2
Flags: MW
HStem: -16 53<323.5 424> 634 54<323 409 323 430.5> 784 54<420 450.5 420 458.5> 836 54<280.5 306>
VStem: 43 104<281.5 390.5> 213 42<770 799 780 799 780 816.5> 477 42<857.5 905 857.5 905> 584 105<299 390.5 299 429>
LayerCount: 2
Fore
SplineSet
366 688 m 0xcf
 452 688 526 658 586 600 c 0
 653 535 689 445 689 336 c 0
 689 262 672 196 638 138 c 0
 582 42 482 -16 366 -16 c 0
 281 -16 204 14 146 70 c 0
 78 136 43 227 43 336 c 0
 43 445 78 535 145 600 c 0
 205 658 280 688 366 688 c 0xcf
366 634 m 0
 236 634 147 524 147 336 c 0
 147 150 236 37 366 37 c 0
 495 37 584 150 584 336 c 0
 584 522 495 634 366 634 c 0
477 905 m 1
 518 905 l 1
 518 900 519 895 519 890 c 0xdf
 519 825 482 784 435 784 c 0xef
 374 784 321 836 291 836 c 0
 270 836 255 816 255 782 c 0
 255 778 256 774 256 770 c 1
 213 770 l 1
 213 780 l 2
 213 853 244 890 298 890 c 0xdf
 353 890 404 838 436 838 c 0xef
 465 838 477 857 477 900 c 2
 477 905 l 1
EndSplineSet
Position2: "'cpsp' Capital Spacing in Latin lookup 2 subtable" dx=7 dy=0 dh=14 dv=0
EndChar

StartChar: Odieresis
Encoding: 214 214 148
Width: 731
GlyphClass: 2
Flags: MW
HStem: -16 53<323.5 424> 634 54<323 409 323 430.5> 787 101<259 287 445 473>
VStem: 43 104<281.5 390.5> 222 101<823 851.5> 408 101<823 851.5> 584 105<299 390.5 299 429>
LayerCount: 2
Fore
SplineSet
366 688 m 0
 452 688 526 658 586 600 c 0
 653 535 689 445 689 336 c 0
 689 262 672 196 638 138 c 0
 582 42 482 -16 366 -16 c 0
 281 -16 204 14 146 70 c 0
 78 136 43 227 43 336 c 0
 43 445 78 535 145 600 c 0
 205 658 280 688 366 688 c 0
366 634 m 0
 236 634 147 524 147 336 c 0
 147 150 236 37 366 37 c 0
 495 37 584 150 584 336 c 0
 584 522 495 634 366 634 c 0
273 888 m 0
 301 888 323 866 323 837 c 0
 323 809 301 787 273 787 c 0
 245 787 222 809 222 837 c 0
 222 866 245 888 273 888 c 0
459 888 m 0
 487 888 509 866 509 837 c 0
 509 809 487 787 459 787 c 0
 431 787 408 809 408 837 c 0
 408 866 431 888 459 888 c 0
EndSplineSet
Position2: "'cpsp' Capital Spacing in Latin lookup 2 subtable" dx=7 dy=0 dh=14 dv=0
EndChar

StartChar: multiply
Encoding: 215 215 149
Width: 833
GlyphClass: 2
Flags: W
LayerCount: 2
Fore
SplineSet
186 571 m 1
 419 338 l 1
 651 571 l 1
 691 531 l 1
 459 298 l 1
 691 66 l 1
 651 26 l 1
 419 258 l 1
 186 26 l 1
 147 66 l 1
 379 298 l 1
 147 531 l 1
 186 571 l 1
EndSplineSet
EndChar

StartChar: Oslash
Encoding: 216 216 150
Width: 731
GlyphClass: 2
Flags: MW
HStem: -16 54<341.5 408.5> 634 54<323.5 389>
VStem: 43 100<293 390.5> 589 100<281.5 381>
LayerCount: 2
Fore
SplineSet
578 748 m 1
 619 724 l 1
 558 624 l 1
 643 556 689 463 689 336 c 0
 689 227 652 135 585 70 c 0
 527 14 451 -16 366 -16 c 0
 308 -16 253 -1 200 28 c 1
 138 -77 l 1
 99 -50 l 1
 162 56 l 1
 83 124 43 218 43 336 c 0
 43 445 79 536 146 601 c 0
 204 658 281 688 366 688 c 0
 418 688 468 676 520 652 c 1
 578 748 l 1
486 595 m 1
 450 622 412 634 366 634 c 0
 234 634 143 523 143 336 c 0
 143 250 161 180 201 122 c 1
 486 595 l 1
522 562 m 1
 235 84 l 1
 274 53 317 38 366 38 c 0
 499 38 589 150 589 336 c 0
 589 426 568 500 522 562 c 1
EndSplineSet
Substitution2: "'c2sc' Capitals to Small Capitals in Latin lookup 6 subtable" oslash.sc
Position2: "'cpsp' Capital Spacing in Latin lookup 2 subtable" dx=7 dy=0 dh=14 dv=0
EndChar

StartChar: Ugrave
Encoding: 217 217 151
Width: 694
GlyphClass: 2
Flags: MW
HStem: -12 62<305 397.5> 631 40<25 270 25 270> 743 21G<347 397 347 347>
VStem: 99 91<240 249 249 611> 547 54<249 604>
LayerCount: 2
Fore
SplineSet
25 671 m 1
 270 671 l 1
 270 631 l 1
 208 625 l 1
 190 611 l 1
 190 249 l 2
 190 113 241 50 369 50 c 0
 495 50 547 113 547 249 c 2
 547 604 l 1
 528 622 l 1
 468 631 l 1
 468 671 l 1
 679 671 l 1
 679 631 l 1
 619 622 l 1
 601 604 l 1
 601 240 l 2
 601 167 596 111 557 64 c 0
 519 18 445 -12 350 -12 c 0
 255 -12 181 18 143 64 c 0
 104 111 99 166 99 240 c 2
 99 611 l 1
 82 625 l 1
 25 631 l 1
 25 671 l 1
201 933 m 1
 300 933 l 1
 397 743 l 1
 347 743 l 1
 201 933 l 1
EndSplineSet
Position2: "'cpsp' Capital Spacing in Latin lookup 2 subtable" dx=7 dy=0 dh=14 dv=0
EndChar

StartChar: Uacute
Encoding: 218 218 152
Width: 694
GlyphClass: 2
Flags: MW
HStem: -12 62<305 397.5> 631 40<25 270 25 270> 743 21G<309 359 309 309>
VStem: 99 91<240 249 249 611> 547 54<249 604>
LayerCount: 2
Fore
SplineSet
25 671 m 1
 270 671 l 1
 270 631 l 1
 208 625 l 1
 190 611 l 1
 190 249 l 2
 190 113 241 50 369 50 c 0
 495 50 547 113 547 249 c 2
 547 604 l 1
 528 622 l 1
 468 631 l 1
 468 671 l 1
 679 671 l 1
 679 631 l 1
 619 622 l 1
 601 604 l 1
 601 240 l 2
 601 167 596 111 557 64 c 0
 519 18 445 -12 350 -12 c 0
 255 -12 181 18 143 64 c 0
 104 111 99 166 99 240 c 2
 99 611 l 1
 82 625 l 1
 25 631 l 1
 25 671 l 1
406 933 m 1
 505 933 l 1
 359 743 l 1
 309 743 l 1
 406 933 l 1
EndSplineSet
Position2: "'cpsp' Capital Spacing in Latin lookup 2 subtable" dx=7 dy=0 dh=14 dv=0
EndChar

StartChar: Ucircumflex
Encoding: 219 219 153
Width: 694
GlyphClass: 2
Flags: MW
HStem: -12 62<305 397.5> 631 40<25 270 25 270> 743 21G<205 260 205 205 435 489 435 435>
VStem: 99 91<240 249 249 611> 547 54<249 604>
LayerCount: 2
Fore
SplineSet
25 671 m 1
 270 671 l 1
 270 631 l 1
 208 625 l 1
 190 611 l 1
 190 249 l 2
 190 113 241 50 369 50 c 0
 495 50 547 113 547 249 c 2
 547 604 l 1
 528 622 l 1
 468 631 l 1
 468 671 l 1
 679 671 l 1
 679 631 l 1
 619 622 l 1
 601 604 l 1
 601 240 l 2
 601 167 596 111 557 64 c 0
 519 18 445 -12 350 -12 c 0
 255 -12 181 18 143 64 c 0
 104 111 99 166 99 240 c 2
 99 611 l 1
 82 625 l 1
 25 631 l 1
 25 671 l 1
315 933 m 1
 379 933 l 1
 489 743 l 1
 435 743 l 1
 347 884 l 1
 260 743 l 1
 205 743 l 1
 315 933 l 1
EndSplineSet
Position2: "'cpsp' Capital Spacing in Latin lookup 2 subtable" dx=7 dy=0 dh=14 dv=0
EndChar

StartChar: Udieresis
Encoding: 220 220 154
Width: 694
GlyphClass: 2
Flags: MW
HStem: -12 62<305 397.5> 631 40<25 270 25 270> 787 101<240 268 426 454>
VStem: 99 91<240 249 249 611> 203 101<823 851.5> 389 101<823 851.5> 547 54<249 604>
LayerCount: 2
Fore
SplineSet
25 671 m 1
 270 671 l 1
 270 631 l 1
 208 625 l 1
 190 611 l 1
 190 249 l 2
 190 113 241 50 369 50 c 0
 495 50 547 113 547 249 c 2
 547 604 l 1
 528 622 l 1
 468 631 l 1
 468 671 l 1
 679 671 l 1
 679 631 l 1
 619 622 l 1
 601 604 l 1
 601 240 l 2
 601 167 596 111 557 64 c 0
 519 18 445 -12 350 -12 c 0
 255 -12 181 18 143 64 c 0
 104 111 99 166 99 240 c 2
 99 611 l 1
 82 625 l 1
 25 631 l 1
 25 671 l 1
254 888 m 0
 282 888 304 866 304 837 c 0
 304 809 282 787 254 787 c 0
 226 787 203 809 203 837 c 0
 203 866 226 888 254 888 c 0
440 888 m 0
 468 888 490 866 490 837 c 0
 490 809 468 787 440 787 c 0
 412 787 389 809 389 837 c 0
 389 866 412 888 440 888 c 0
EndSplineSet
Position2: "'cpsp' Capital Spacing in Latin lookup 2 subtable" dx=7 dy=0 dh=14 dv=0
EndChar

StartChar: Yacute
Encoding: 221 221 155
Width: 586
GlyphClass: 2
Flags: MW
HStem: 0 41<163 422 163 163> 631 40<-13 219 -13 219> 743 21G<255 305 255 255>
VStem: 247 91<60 272 272 272>
LayerCount: 2
Fore
SplineSet
-13 671 m 1
 219 671 l 1
 219 631 l 1
 162 625 l 1
 152 614 l 1
 305 339 l 1
 473 606 l 1
 464 620 l 1
 403 631 l 1
 403 671 l 1
 607 671 l 1
 607 631 l 1
 546 618 l 1
 338 285 l 1
 338 60 l 1
 354 46 l 1
 422 41 l 1
 422 0 l 1
 163 0 l 1
 163 41 l 1
 231 46 l 1
 247 60 l 1
 247 272 l 1
 48 621 l 1
 -13 631 l 1
 -13 671 l 1
352 933 m 1
 451 933 l 1
 305 743 l 1
 255 743 l 1
 352 933 l 1
EndSplineSet
Position2: "'cpsp' Capital Spacing in Latin lookup 2 subtable" dx=7 dy=0 dh=14 dv=0
EndChar

StartChar: Thorn
Encoding: 222 222 156
Width: 558
GlyphClass: 2
Flags: MW
HStem: 0 41<35 278 35 35> 134 48<264.5 323 259 355> 498 47<200 255> 631 40<35 278 35 278>
VStem: 109 91<60 139 186 498 545 611> 441 92<293 399.5>
LayerCount: 2
Fore
SplineSet
35 671 m 1
 278 671 l 1
 278 631 l 1
 216 625 l 1
 200 611 l 1
 200 545 l 1
 255 545 l 2
 447 545 533 494 533 345 c 0
 533 220 436 134 274 134 c 0
 255 134 231 136 200 139 c 1
 200 60 l 1
 216 46 l 1
 278 41 l 1
 278 0 l 1
 35 0 l 1
 35 41 l 1
 93 46 l 1
 109 60 l 1
 109 611 l 1
 93 625 l 1
 35 631 l 1
 35 671 l 1
200 186 m 1
 230 183 252 182 266 182 c 0
 380 182 441 239 441 347 c 0
 441 452 380 500 253 500 c 0
 236 500 219 500 200 498 c 1
 200 186 l 1
EndSplineSet
Substitution2: "'c2sc' Capitals to Small Capitals in Latin lookup 6 subtable" thorn.sc
Position2: "'cpsp' Capital Spacing in Latin lookup 2 subtable" dx=7 dy=0 dh=14 dv=0
EndChar

StartChar: germandbls
Encoding: 223 223 157
Width: 609
GlyphClass: 2
Flags: MW
HStem: -7 44<408 446.5 408 464> 0 35<19 248 19 19> 695 46<293 348.5>
VStem: 88 86<58 431 58 449 58 538.5> 290 79<362.5 397> 299 50<13 145 145 145> 422 79<561 608> 506 75<104.5 148.5>
LayerCount: 2
Fore
SplineSet
483 466 m 1x7b
 474 467 466 468 459 468 c 0
 402 468 369 437 369 390 c 0x7b
 369 335 414 320 485 281 c 0
 550 245 581 203 581 147 c 0
 581 62 514 -7 414 -7 c 0
 388 -7 350 0 299 13 c 1
 299 145 l 1
 349 145 l 1
 359 58 l 1
 377 44 396 37 420 37 c 0xb7
 473 37 506 75 506 121 c 0
 506 176 472 194 413 227 c 0
 336 270 290 297 290 366 c 0
 290 428 336 484 412 501 c 1
 418 528 422 551 422 571 c 0
 422 645 379 695 318 695 c 0
 268 695 228 668 199 614 c 0
 177 572 174 512 174 431 c 2
 174 58 l 1
 182 40 l 1
 248 35 l 1
 248 0 l 1
 19 0 l 1
 19 35 l 1
 77 42 l 1
 88 57 l 1
 88 449 l 2
 88 628 190 741 333 741 c 0
 440 741 501 681 501 576 c 0
 501 541 495 505 483 466 c 1x7b
EndSplineSet
Substitution2: "'smcp' Lowercase to Small Capitals lookup 5 subtable" germandbls.sc
Substitution2: "'smcp' Lowercase to Small Capitals in Latin lookup 4 subtable" germandbls.sc
Substitution2: "'ss01' Style Set 1 lookup 2 subtable" germandbls.ss01
EndChar

StartChar: agrave
Encoding: 224 224 158
Width: 507
GlyphClass: 2
Flags: MW
HStem: -7 54<185 194> 0 36<347 488> 268 35<334 334> 447 44<229.5 278> 716 20G<108 207 207 207>
VStem: 42 88<104.5 165.5 104.5 173> 66 100<366 408.5> 334 83<58 58 92 268 268 268 303 335 335 347 57 374.5>
LayerCount: 2
Fore
SplineSet
334 58 m 1x7b
 271 15 218 -7 170 -7 c 0
 91 -7 42 46 42 121 c 0xbd
 42 225 134 255 334 303 c 1
 334 335 l 2
 334 414 314 447 242 447 c 0
 217 447 193 442 166 431 c 1
 166 347 l 1
 97 347 l 2
 74 347 66 354 66 378 c 0
 66 439 142 491 268 491 c 0
 373 491 417 448 417 347 c 2
 417 57 l 1
 435 41 l 1
 488 36 l 1
 488 0 l 1
 347 0 l 1
 334 58 l 1x7b
334 92 m 1
 334 268 l 1
 193 229 130 202 130 129 c 0
 130 80 160 47 210 47 c 0
 243 47 284 63 334 92 c 1
108 736 m 1
 207 736 l 1
 304 546 l 1
 254 546 l 1
 108 736 l 1
EndSplineSet
Substitution2: "'smcp' Lowercase to Small Capitals in Latin lookup 4 subtable" agrave.sc
EndChar

StartChar: aacute
Encoding: 225 225 159
Width: 507
GlyphClass: 2
Flags: MW
HStem: -7 54<185 194> 0 36<347 488> 268 35<334 334> 447 44<229.5 278> 716 20G<313 412 412 412>
VStem: 42 88<104.5 165.5 104.5 173> 66 100<366 408.5> 334 83<58 58 92 268 268 268 303 335 335 347 57 374.5>
LayerCount: 2
Fore
SplineSet
334 58 m 1x7b
 271 15 218 -7 170 -7 c 0
 91 -7 42 46 42 121 c 0xbd
 42 225 134 255 334 303 c 1
 334 335 l 2
 334 414 314 447 242 447 c 0
 217 447 193 442 166 431 c 1
 166 347 l 1
 97 347 l 2
 74 347 66 354 66 378 c 0
 66 439 142 491 268 491 c 0
 373 491 417 448 417 347 c 2
 417 57 l 1
 435 41 l 1
 488 36 l 1
 488 0 l 1
 347 0 l 1
 334 58 l 1x7b
334 92 m 1
 334 268 l 1
 193 229 130 202 130 129 c 0
 130 80 160 47 210 47 c 0
 243 47 284 63 334 92 c 1
313 736 m 1
 412 736 l 1
 266 546 l 1
 216 546 l 1
 313 736 l 1
EndSplineSet
Substitution2: "'smcp' Lowercase to Small Capitals in Latin lookup 4 subtable" aacute.sc
EndChar

StartChar: acircumflex
Encoding: 226 226 160
Width: 507
GlyphClass: 2
Flags: MW
HStem: -7 54<185 194> 0 36<347 488> 268 35<334 334> 447 44<229.5 278> 716 20G<222 286 286 286>
VStem: 42 88<104.5 165.5 104.5 173> 66 100<366 408.5> 334 83<58 58 92 268 268 268 303 335 335 347 57 374.5>
LayerCount: 2
Fore
SplineSet
334 58 m 1x7b
 271 15 218 -7 170 -7 c 0
 91 -7 42 46 42 121 c 0xbd
 42 225 134 255 334 303 c 1
 334 335 l 2
 334 414 314 447 242 447 c 0
 217 447 193 442 166 431 c 1
 166 347 l 1
 97 347 l 2
 74 347 66 354 66 378 c 0
 66 439 142 491 268 491 c 0
 373 491 417 448 417 347 c 2
 417 57 l 1
 435 41 l 1
 488 36 l 1
 488 0 l 1
 347 0 l 1
 334 58 l 1x7b
334 92 m 1
 334 268 l 1
 193 229 130 202 130 129 c 0
 130 80 160 47 210 47 c 0
 243 47 284 63 334 92 c 1
222 736 m 1
 286 736 l 1
 396 546 l 1
 342 546 l 1
 254 687 l 1
 167 546 l 1
 112 546 l 1
 222 736 l 1
EndSplineSet
Substitution2: "'smcp' Lowercase to Small Capitals in Latin lookup 4 subtable" acircumflex.sc
EndChar

StartChar: atilde
Encoding: 227 227 161
Width: 507
GlyphClass: 2
Flags: MW
HStem: -7 54<185 194> 0 36<347 488> 268 35<334 334> 447 44<229.5 278> 587 54<308 338.5 308 346.5> 639 54<168.5 194>
VStem: 42 88<104.5 165.5 104.5 173> 66 100<366 408.5> 101 42<573 602 583 602 583 619.5> 334 83<58 58 92 268 268 268 303 335 335 347 57 374.5> 365 42<660.5 708 660.5 708>
LayerCount: 2
Fore
SplineSet
334 58 m 1x7140
 271 15 218 -7 170 -7 c 0
 91 -7 42 46 42 121 c 0xb240
 42 225 134 255 334 303 c 1
 334 335 l 2
 334 414 314 447 242 447 c 0
 217 447 193 442 166 431 c 1
 166 347 l 1
 97 347 l 2
 74 347 66 354 66 378 c 0
 66 439 142 491 268 491 c 0
 373 491 417 448 417 347 c 2
 417 57 l 1
 435 41 l 1
 488 36 l 1
 488 0 l 1
 347 0 l 1
 334 58 l 1x7140
334 92 m 1
 334 268 l 1
 193 229 130 202 130 129 c 0
 130 80 160 47 210 47 c 0
 243 47 284 63 334 92 c 1
365 708 m 1x38a0
 406 708 l 1
 406 703 407 698 407 693 c 0x34a0
 407 628 370 587 323 587 c 0x38a0
 262 587 209 639 179 639 c 0
 158 639 143 619 143 585 c 0
 143 581 144 577 144 573 c 1
 101 573 l 1
 101 583 l 2
 101 656 132 693 186 693 c 0x34a0
 241 693 292 641 324 641 c 0
 353 641 365 660 365 703 c 2
 365 708 l 1x38a0
EndSplineSet
Substitution2: "'smcp' Lowercase to Small Capitals in Latin lookup 4 subtable" atilde.sc
EndChar

StartChar: adieresis
Encoding: 228 228 162
Width: 507
GlyphClass: 2
Flags: MW
HStem: -7 54<185 194> 0 36<347 488> 268 35<334 334> 447 44<229.5 278> 590 101<147 175 333 361>
VStem: 42 88<104.5 165.5 104.5 173> 66 100<366 408.5> 110 101<626 654.5> 296 101<626 654.5> 334 83<58 58 92 268 268 268 303 335 335 347 57 374.5>
LayerCount: 2
Fore
SplineSet
334 58 m 1x7a40
 271 15 218 -7 170 -7 c 0
 91 -7 42 46 42 121 c 0xbc40
 42 225 134 255 334 303 c 1
 334 335 l 2
 334 414 314 447 242 447 c 0
 217 447 193 442 166 431 c 1
 166 347 l 1
 97 347 l 2
 74 347 66 354 66 378 c 0
 66 439 142 491 268 491 c 0
 373 491 417 448 417 347 c 2
 417 57 l 1
 435 41 l 1
 488 36 l 1
 488 0 l 1
 347 0 l 1
 334 58 l 1x7a40
334 92 m 1
 334 268 l 1
 193 229 130 202 130 129 c 0
 130 80 160 47 210 47 c 0
 243 47 284 63 334 92 c 1
161 691 m 0
 189 691 211 669 211 640 c 0
 211 612 189 590 161 590 c 0
 133 590 110 612 110 640 c 0x39
 110 669 133 691 161 691 c 0
347 691 m 0
 375 691 397 669 397 640 c 0
 397 612 375 590 347 590 c 0
 319 590 296 612 296 640 c 0x3880
 296 669 319 691 347 691 c 0
EndSplineSet
Substitution2: "'smcp' Lowercase to Small Capitals in Latin lookup 4 subtable" adieresis.sc
EndChar

StartChar: aring
Encoding: 229 229 163
Width: 507
GlyphClass: 2
Flags: MW
HStem: -7 54<185 194> 0 36<347 488> 268 35<334 334> 447 44<229.5 278> 546 45<230 270.5 230 283> 736 45<230 270.5>
VStem: 42 88<104.5 165.5 104.5 173> 66 100<366 408.5> 133 45<643 683.5 643 697> 324 44<643 683.5> 334 84<58 58 92 268 268 268 303 335 335 347 57 374.5>
LayerCount: 2
Fore
SplineSet
250 781 m 0x3cc0
 316 781 368 730 368 664 c 0
 368 598 316 546 250 546 c 0
 184 546 133 598 133 664 c 0
 133 730 184 781 250 781 c 0x3cc0
250 736 m 0
 210 736 178 704 178 663 c 0
 178 623 210 591 250 591 c 0
 291 591 324 623 324 663 c 0
 324 704 291 736 250 736 c 0
418 347 m 2xbd20
 418 57 l 1
 435 41 l 1
 488 36 l 1
 488 0 l 1
 347 0 l 1x7d20
 334 58 l 1
 271 15 218 -7 170 -7 c 0
 91 -7 42 46 42 121 c 0xbe20
 42 225 134 255 334 303 c 1
 334 335 l 2
 334 414 314 447 242 447 c 0
 217 447 193 442 166 431 c 1
 166 347 l 1
 97 347 l 2
 74 347 66 354 66 378 c 0
 66 439 142 491 268 491 c 0
 373 491 418 448 418 347 c 2xbd20
334 268 m 1
 193 229 130 202 130 129 c 0
 130 80 160 47 210 47 c 0xbe20
 243 47 284 63 334 92 c 1
 334 268 l 1
EndSplineSet
Substitution2: "'smcp' Lowercase to Small Capitals in Latin lookup 4 subtable" aring.sc
EndChar

StartChar: ae
Encoding: 230 230 164
Width: 725
GlyphClass: 2
Flags: MW
HStem: -9 63<523 548.5> -7 54<181 195> 258 39<402 592 402 681 402 592> 268 35<324 324> 447 44<223 269.5 491.5 532.5>
VStem: 43 84<104.5 165.5 104.5 171.5> 66 100<366 409> 324 78<119 258 119 268 119 268 119 335 119 374.5> 593 89<316.5 356.5>
AnchorPoint: "Anchor-2" 362 0 basechar 0
AnchorPoint: "Anchor-1" 376 491 basechar 0
LayerCount: 2
Fore
SplineSet
166 347 m 1x5b80
 96 347 l 2
 74 347 66 354 66 378 c 0
 66 440 139 491 260 491 c 0
 324 491 363 474 386 431 c 1
 422 471 465 491 518 491 c 0
 622 491 682 420 682 293 c 0
 682 282 682 270 681 258 c 1
 402 258 l 1
 402 119 l 1
 445 75 494 54 552 54 c 0
 602 54 640 69 682 106 c 1
 682 51 l 1
 631 11 577 -9 520 -9 c 0xab80
 454 -9 391 16 343 64 c 1
 280 17 224 -7 166 -7 c 0x4b80
 91 -7 43 44 43 117 c 0x4d80
 43 226 129 254 324 303 c 1
 324 335 l 2
 324 414 304 447 235 447 c 0
 211 447 189 442 166 431 c 1
 166 347 l 1x5b80
324 92 m 1
 324 268 l 1
 188 229 127 202 127 129 c 0
 127 80 157 47 205 47 c 0x5d80
 237 47 276 63 324 92 c 1
402 297 m 1x2980
 592 297 l 1
 592 305 593 313 593 320 c 0
 593 403 562 447 503 447 c 0
 440 447 404 395 402 297 c 1x2980
EndSplineSet
Substitution2: "'smcp' Lowercase to Small Capitals in Latin lookup 4 subtable" ae.sc
EndChar

StartChar: ccedilla
Encoding: 231 231 165
Width: 446
GlyphClass: 2
Flags: MW
HStem: -223 38<234 255.5 223.5 281> -105 45<247.5 310.5> -5 57<230 320> 451 40<232 283.5>
VStem: 37 91<186.5 311 186.5 315.5> 230 37<-61 -7 -61 -5 -61 -5> 301 61<-155 -130.5> 323 101<377 422 377 437 377 437>
AnchorPoint: "Anchor-1" 274 491 basechar 0
LayerCount: 2
Fore
SplineSet
230 -5 m 1xfe
 112 9 37 105 37 241 c 0
 37 390 134 491 274 491 c 0
 370 491 424 451 424 393 c 0
 424 361 402 340 368 340 c 0
 353 340 338 345 323 355 c 1
 323 437 l 1xfd
 308 446 292 451 275 451 c 0
 189 451 128 374 128 248 c 0
 128 125 194 52 298 52 c 0
 342 52 383 66 425 94 c 1
 425 42 l 1
 372 11 319 -6 267 -7 c 1
 267 -61 l 1
 276 -60 283 -60 287 -60 c 0
 334 -60 362 -87 362 -132 c 0
 362 -187 318 -223 244 -223 c 0
 224 -223 201 -220 175 -213 c 1
 175 -177 l 1
 194 -182 213 -185 234 -185 c 0
 277 -185 301 -168 301 -142 c 0
 301 -119 283 -105 251 -105 c 0
 244 -105 237 -106 230 -107 c 1
 230 -5 l 1xfe
EndSplineSet
Substitution2: "'smcp' Lowercase to Small Capitals in Latin lookup 4 subtable" ccedilla.sc
EndChar

StartChar: egrave
Encoding: 232 232 166
Width: 491
GlyphClass: 2
Flags: MW
HStem: -9 57<240.5 291.5> 263 42<128 359 128 447 123 359> 446 45<223 288.5> 716 20G<111 210 210 210>
VStem: 37 86<188 252 252 263 188 312.5> 359 89<305 321 321 355.5>
LayerCount: 2
Fore
SplineSet
448 106 m 1
 448 51 l 1
 388 11 323 -9 260 -9 c 0
 128 -9 37 90 37 237 c 0
 37 388 134 491 268 491 c 0
 377 491 448 417 448 294 c 0
 448 284 448 274 447 263 c 1
 123 263 l 1
 123 252 l 2
 123 124 190 48 291 48 c 0
 341 48 391 68 448 106 c 1
359 305 m 1
 359 321 l 2
 359 402 322 446 255 446 c 0
 191 446 134 390 128 305 c 1
 359 305 l 1
111 736 m 1
 210 736 l 1
 307 546 l 1
 257 546 l 1
 111 736 l 1
EndSplineSet
Substitution2: "'sups' Superscript lookup 9 subtable" egrave.superior
Substitution2: "'smcp' Lowercase to Small Capitals in Latin lookup 4 subtable" egrave.sc
EndChar

StartChar: eacute
Encoding: 233 233 167
Width: 491
GlyphClass: 2
Flags: MW
HStem: -9 57<240.5 291.5> 263 42<128 359 128 447 123 359> 446 45<223 288.5> 716 20G<316 415 415 415>
VStem: 37 86<188 252 252 263 188 312.5> 359 89<305 321 321 355.5>
LayerCount: 2
Fore
SplineSet
448 106 m 1
 448 51 l 1
 388 11 323 -9 260 -9 c 0
 128 -9 37 90 37 237 c 0
 37 388 134 491 268 491 c 0
 377 491 448 417 448 294 c 0
 448 284 448 274 447 263 c 1
 123 263 l 1
 123 252 l 2
 123 124 190 48 291 48 c 0
 341 48 391 68 448 106 c 1
359 305 m 1
 359 321 l 2
 359 402 322 446 255 446 c 0
 191 446 134 390 128 305 c 1
 359 305 l 1
316 736 m 1
 415 736 l 1
 269 546 l 1
 219 546 l 1
 316 736 l 1
EndSplineSet
Substitution2: "'sups' Superscript lookup 9 subtable" eacute.superior
Substitution2: "'smcp' Lowercase to Small Capitals in Latin lookup 4 subtable" eacute.sc
EndChar

StartChar: ecircumflex
Encoding: 234 234 168
Width: 491
GlyphClass: 2
Flags: MW
HStem: -9 57<240.5 291.5> 263 42<128 359 128 447 123 359> 446 45<223 288.5> 716 20G<225 289 289 289>
VStem: 37 86<188 252 252 263 188 312.5> 359 89<305 321 321 355.5>
LayerCount: 2
Fore
SplineSet
448 106 m 1
 448 51 l 1
 388 11 323 -9 260 -9 c 0
 128 -9 37 90 37 237 c 0
 37 388 134 491 268 491 c 0
 377 491 448 417 448 294 c 0
 448 284 448 274 447 263 c 1
 123 263 l 1
 123 252 l 2
 123 124 190 48 291 48 c 0
 341 48 391 68 448 106 c 1
359 305 m 1
 359 321 l 2
 359 402 322 446 255 446 c 0
 191 446 134 390 128 305 c 1
 359 305 l 1
225 736 m 1
 289 736 l 1
 399 546 l 1
 345 546 l 1
 257 687 l 1
 170 546 l 1
 115 546 l 1
 225 736 l 1
EndSplineSet
Substitution2: "'smcp' Lowercase to Small Capitals in Latin lookup 4 subtable" ecircumflex.sc
EndChar

StartChar: edieresis
Encoding: 235 235 169
Width: 491
GlyphClass: 2
Flags: MW
HStem: -9 57<240.5 291.5> 263 42<128 359 128 447 123 359> 446 45<223 288.5> 590 101<150 178 336 364>
VStem: 37 86<188 252 252 263 188 312.5> 113 101<626 654.5> 299 101<626 654.5> 359 89<305 321 321 355.5>
LayerCount: 2
Fore
SplineSet
448 106 m 1xf9
 448 51 l 1
 388 11 323 -9 260 -9 c 0
 128 -9 37 90 37 237 c 0
 37 388 134 491 268 491 c 0
 377 491 448 417 448 294 c 0
 448 284 448 274 447 263 c 1
 123 263 l 1
 123 252 l 2
 123 124 190 48 291 48 c 0
 341 48 391 68 448 106 c 1xf9
359 305 m 1
 359 321 l 2
 359 402 322 446 255 446 c 0
 191 446 134 390 128 305 c 1
 359 305 l 1
164 691 m 0
 192 691 214 669 214 640 c 0
 214 612 192 590 164 590 c 0
 136 590 113 612 113 640 c 0xf4
 113 669 136 691 164 691 c 0
350 691 m 0
 378 691 400 669 400 640 c 0
 400 612 378 590 350 590 c 0
 322 590 299 612 299 640 c 0xf2
 299 669 322 691 350 691 c 0
EndSplineSet
Substitution2: "'smcp' Lowercase to Small Capitals in Latin lookup 4 subtable" edieresis.sc
EndChar

StartChar: igrave
Encoding: 236 236 170
Width: 280
GlyphClass: 2
Flags: MW
HStem: 0 36<35 260 35 35> 419 31<35 105 35 35> 466 20G<150 189 189 189> 716 20G<-6 93 93 93>
VStem: 105 84<57 419 419 419>
LayerCount: 2
Fore
SplineSet
150 486 m 1
 189 486 l 1
 189 57 l 1
 206 41 l 1
 260 36 l 1
 260 0 l 1
 35 0 l 1
 35 36 l 1
 88 41 l 1
 105 57 l 1
 105 419 l 1
 35 419 l 1
 35 450 l 1
 150 486 l 1
-6 736 m 1
 93 736 l 1
 190 546 l 1
 140 546 l 1
 -6 736 l 1
EndSplineSet
Substitution2: "'smcp' Lowercase to Small Capitals in Latin lookup 4 subtable" igrave.sc
EndChar

StartChar: iacute
Encoding: 237 237 171
Width: 280
GlyphClass: 2
Flags: MW
HStem: 0 36<35 260 35 35> 419 31<35 105 35 35> 466 20G<150 189 189 189> 716 20G<199 298 298 298>
VStem: 105 84<57 419 419 419>
LayerCount: 2
Fore
SplineSet
150 486 m 1
 189 486 l 1
 189 57 l 1
 206 41 l 1
 260 36 l 1
 260 0 l 1
 35 0 l 1
 35 36 l 1
 88 41 l 1
 105 57 l 1
 105 419 l 1
 35 419 l 1
 35 450 l 1
 150 486 l 1
199 736 m 1
 298 736 l 1
 152 546 l 1
 102 546 l 1
 199 736 l 1
EndSplineSet
Substitution2: "'smcp' Lowercase to Small Capitals in Latin lookup 4 subtable" iacute.sc
EndChar

StartChar: icircumflex
Encoding: 238 238 172
Width: 280
GlyphClass: 2
Flags: MW
HStem: 0 36<35 260 35 35> 419 31<35 105 35 35> 466 20G<150 189 189 189> 716 20G<108 172 172 172>
VStem: 105 84<57 419 419 419>
LayerCount: 2
Fore
SplineSet
150 486 m 1
 189 486 l 1
 189 57 l 1
 206 41 l 1
 260 36 l 1
 260 0 l 1
 35 0 l 1
 35 36 l 1
 88 41 l 1
 105 57 l 1
 105 419 l 1
 35 419 l 1
 35 450 l 1
 150 486 l 1
108 736 m 1
 172 736 l 1
 282 546 l 1
 228 546 l 1
 140 687 l 1
 53 546 l 1
 -2 546 l 1
 108 736 l 1
EndSplineSet
Substitution2: "'smcp' Lowercase to Small Capitals in Latin lookup 4 subtable" icircumflex.sc
EndChar

StartChar: idieresis
Encoding: 239 239 173
Width: 280
GlyphClass: 2
Flags: MW
HStem: 0 36<35 260 35 35> 419 31<35 105 35 35> 466 20G<150 189 189 189> 590 101<33 61 219 247>
VStem: -4 101<626 654.5> 105 84<57 419 419 419> 182 101<626 654.5>
AnchorPoint: "Anchor-1" 146 671 basechar 0
LayerCount: 2
Fore
SplineSet
150 486 m 1xfc
 189 486 l 1
 189 57 l 1
 206 41 l 1
 260 36 l 1
 260 0 l 1
 35 0 l 1
 35 36 l 1
 88 41 l 1
 105 57 l 1
 105 419 l 1
 35 419 l 1
 35 450 l 1
 150 486 l 1xfc
47 691 m 0
 75 691 97 669 97 640 c 0
 97 612 75 590 47 590 c 0
 19 590 -4 612 -4 640 c 0
 -4 669 19 691 47 691 c 0
233 691 m 0
 261 691 283 669 283 640 c 0
 283 612 261 590 233 590 c 0
 205 590 182 612 182 640 c 0xfa
 182 669 205 691 233 691 c 0
EndSplineSet
Substitution2: "'smcp' Lowercase to Small Capitals in Latin lookup 4 subtable" idieresis.sc
EndChar

StartChar: eth
Encoding: 240 240 174
Width: 528
GlyphClass: 2
Flags: MW
HStem: -10 42<227 308 227 327> 444 42<238 289 206.5 299> 670 29<112 112>
VStem: 33 93<175.5 307 175.5 315.5> 408 85<183.5 288>
LayerCount: 2
Fore
SplineSet
342 479 m 1
 317 519 290 556 262 590 c 1
 134 513 l 1
 112 551 l 1
 229 622 l 1
 193 663 l 1
 112 670 l 1
 112 699 l 1
 225 733 l 1
 296 660 l 1
 406 726 l 1
 428 687 l 1
 325 625 l 1
 436 497 493 384 493 267 c 0
 493 100 392 -10 262 -10 c 0
 127 -10 33 96 33 244 c 0
 33 387 134 486 279 486 c 0
 299 486 319 483 342 479 c 1
367 431 m 1
 337 439 310 444 288 444 c 0
 188 444 126 372 126 242 c 0
 126 109 187 32 267 32 c 0
 349 32 408 111 408 251 c 0
 408 325 396 384 367 431 c 1
EndSplineSet
Substitution2: "'smcp' Lowercase to Small Capitals in Latin lookup 4 subtable" eth.sc
EndChar

StartChar: ntilde
Encoding: 241 241 175
Width: 568
GlyphClass: 2
Flags: MW
HStem: 0 36<30 30 30 249> 419 31<30 101 30 30> 425 66<323.5 333> 587 54<327 357.5 327 365.5> 639 54<187.5 213>
VStem: 101 83<57 392 57 419 57 419> 120 42<573 602 583 602 583 619.5> 384 42<660.5 708 660.5 708> 397 83<57 322 322 339 57 358.5>
LayerCount: 2
Fore
SplineSet
30 0 m 1xa480
 30 36 l 1
 84 41 l 1
 101 57 l 1
 101 419 l 1
 30 419 l 1
 30 450 l 1xc480
 146 486 l 1
 184 486 l 1
 184 431 l 1
 251 468 302 491 345 491 c 0
 432 491 480 439 480 339 c 2
 480 57 l 1
 497 41 l 1
 551 36 l 1
 551 0 l 1
 332 0 l 1
 332 36 l 1
 380 41 l 1
 397 57 l 1
 397 322 l 2
 397 395 370 425 296 425 c 0
 264 425 227 414 184 392 c 1
 184 57 l 1
 201 41 l 1
 249 36 l 1
 249 0 l 1
 30 0 l 1xa480
384 708 m 1x93
 425 708 l 1
 425 703 426 698 426 693 c 0x8b
 426 628 389 587 342 587 c 0x93
 281 587 228 639 198 639 c 0
 177 639 162 619 162 585 c 0
 162 581 163 577 163 573 c 1
 120 573 l 1
 120 583 l 2
 120 656 151 693 205 693 c 0x8b
 260 693 311 641 343 641 c 0
 372 641 384 660 384 703 c 2
 384 708 l 1x93
EndSplineSet
Substitution2: "'sups' Superscript lookup 9 subtable" ntilde.superior
Substitution2: "'smcp' Lowercase to Small Capitals in Latin lookup 4 subtable" ntilde.sc
EndChar

StartChar: ograve
Encoding: 242 242 176
Width: 539
GlyphClass: 2
Flags: MW
HStem: -9 43<229 309.5 229 336> 448 43<228.5 309.5> 716 20G<124 223 223 223>
VStem: 37 94<176.5 306 176.5 315.5> 408 94<176 305.5>
LayerCount: 2
Fore
SplineSet
269 491 m 0
 404 491 502 389 502 241 c 0
 502 93 403 -9 269 -9 c 0
 135 -9 37 93 37 241 c 0
 37 390 134 491 269 491 c 0
269 448 m 0
 188 448 131 371 131 241 c 0
 131 112 189 34 269 34 c 0
 350 34 408 111 408 241 c 0
 408 370 350 448 269 448 c 0
124 736 m 1
 223 736 l 1
 320 546 l 1
 270 546 l 1
 124 736 l 1
EndSplineSet
Substitution2: "'smcp' Lowercase to Small Capitals in Latin lookup 4 subtable" ograve.sc
EndChar

StartChar: oacute
Encoding: 243 243 177
Width: 539
GlyphClass: 2
Flags: MW
HStem: -9 43<229 309.5 229 336> 448 43<228.5 309.5> 716 20G<329 428 428 428>
VStem: 37 94<176.5 306 176.5 315.5> 408 94<176 305.5>
LayerCount: 2
Fore
SplineSet
269 491 m 0
 404 491 502 389 502 241 c 0
 502 93 403 -9 269 -9 c 0
 135 -9 37 93 37 241 c 0
 37 390 134 491 269 491 c 0
269 448 m 0
 188 448 131 371 131 241 c 0
 131 112 189 34 269 34 c 0
 350 34 408 111 408 241 c 0
 408 370 350 448 269 448 c 0
329 736 m 1
 428 736 l 1
 282 546 l 1
 232 546 l 1
 329 736 l 1
EndSplineSet
Substitution2: "'smcp' Lowercase to Small Capitals in Latin lookup 4 subtable" oacute.sc
EndChar

StartChar: ocircumflex
Encoding: 244 244 178
Width: 539
GlyphClass: 2
Flags: MW
HStem: -9 43<229 309.5 229 336> 448 43<228.5 309.5> 716 20G<238 302 302 302>
VStem: 37 94<176.5 306 176.5 315.5> 408 94<176 305.5>
LayerCount: 2
Fore
SplineSet
269 491 m 0
 404 491 502 389 502 241 c 0
 502 93 403 -9 269 -9 c 0
 135 -9 37 93 37 241 c 0
 37 390 134 491 269 491 c 0
269 448 m 0
 188 448 131 371 131 241 c 0
 131 112 189 34 269 34 c 0
 350 34 408 111 408 241 c 0
 408 370 350 448 269 448 c 0
238 736 m 1
 302 736 l 1
 412 546 l 1
 358 546 l 1
 270 687 l 1
 183 546 l 1
 128 546 l 1
 238 736 l 1
EndSplineSet
EndChar

StartChar: otilde
Encoding: 245 245 179
Width: 539
GlyphClass: 2
Flags: MW
HStem: -9 43<229 309.5 229 336> 448 43<228.5 309.5> 587 54<324 354.5 324 362.5> 639 54<184.5 210>
VStem: 37 94<176.5 306 176.5 315.5> 117 42<573 602 583 602 583 619.5> 381 42<660.5 708 660.5 708> 408 94<176 305.5>
LayerCount: 2
Fore
SplineSet
269 491 m 0xc9
 404 491 502 389 502 241 c 0
 502 93 403 -9 269 -9 c 0
 135 -9 37 93 37 241 c 0
 37 390 134 491 269 491 c 0xc9
269 448 m 0
 188 448 131 371 131 241 c 0
 131 112 189 34 269 34 c 0
 350 34 408 111 408 241 c 0
 408 370 350 448 269 448 c 0
381 708 m 1xe6
 422 708 l 1
 422 703 423 698 423 693 c 0xd6
 423 628 386 587 339 587 c 0xe6
 278 587 225 639 195 639 c 0
 174 639 159 619 159 585 c 0
 159 581 160 577 160 573 c 1
 117 573 l 1
 117 583 l 2
 117 656 148 693 202 693 c 0xd6
 257 693 308 641 340 641 c 0
 369 641 381 660 381 703 c 2
 381 708 l 1xe6
EndSplineSet
Substitution2: "'smcp' Lowercase to Small Capitals in Latin lookup 4 subtable" otilde.sc
EndChar

StartChar: odieresis
Encoding: 246 246 180
Width: 539
GlyphClass: 2
Flags: MW
HStem: -9 43<229 309.5 229 336> 448 43<228.5 309.5> 590 101<163 191 349 377>
VStem: 37 94<176.5 306 176.5 315.5> 126 101<626 654.5> 312 101<626 654.5> 408 94<176 305.5>
LayerCount: 2
Fore
SplineSet
269 491 m 0xf2
 404 491 502 389 502 241 c 0
 502 93 403 -9 269 -9 c 0
 135 -9 37 93 37 241 c 0
 37 390 134 491 269 491 c 0xf2
269 448 m 0
 188 448 131 371 131 241 c 0
 131 112 189 34 269 34 c 0
 350 34 408 111 408 241 c 0
 408 370 350 448 269 448 c 0
177 691 m 0
 205 691 227 669 227 640 c 0
 227 612 205 590 177 590 c 0
 149 590 126 612 126 640 c 0xe8
 126 669 149 691 177 691 c 0
363 691 m 0
 391 691 413 669 413 640 c 0
 413 612 391 590 363 590 c 0
 335 590 312 612 312 640 c 0xe4
 312 669 335 691 363 691 c 0
EndSplineSet
Substitution2: "'smcp' Lowercase to Small Capitals in Latin lookup 4 subtable" odieresis.sc
EndChar

StartChar: divide
Encoding: 247 247 181
Width: 833
GlyphClass: 2
Flags: MW
HStem: 66 112<402 432 402 433> 270 57<124 709 124 709> 418 112<402 432.5 402 433>
VStem: 361 112<107 137.5 107 138 459 489.5>
LayerCount: 2
Fore
SplineSet
417 530 m 0
 448 530 473 505 473 474 c 0
 473 444 449 418 417 418 c 0
 385 418 361 443 361 474 c 0
 361 505 387 530 417 530 c 0
124 327 m 1
 709 327 l 1
 709 270 l 1
 124 270 l 1
 124 327 l 1
417 178 m 0
 447 178 473 153 473 122 c 0
 473 92 449 66 417 66 c 0
 386 66 361 91 361 122 c 0
 361 154 387 178 417 178 c 0
EndSplineSet
EndChar

StartChar: oslash
Encoding: 248 248 182
Width: 539
GlyphClass: 2
Flags: MW
HStem: -9 43<252.5 310.5 252.5 336> 447 44<228 283>
VStem: 37 92<215.5 306 215.5 315.5> 411 91<176 271>
LayerCount: 2
Fore
SplineSet
423 560 m 1
 457 541 l 1
 405 448 l 1
 469 400 502 335 502 241 c 0
 502 93 403 -9 269 -9 c 0
 228 -9 191 0 156 19 c 1
 98 -80 l 1
 66 -60 l 1
 124 42 l 1
 65 91 37 156 37 241 c 0
 37 390 135 491 269 491 c 0
 306 491 340 484 371 469 c 1
 423 560 l 1
344 422 m 1
 322 439 297 447 269 447 c 0
 187 447 129 371 129 241 c 0
 129 190 139 145 159 104 c 1
 344 422 l 1
371 392 m 1
 186 69 l 1
 209 45 236 34 269 34 c 0
 352 34 411 111 411 241 c 0
 411 301 398 350 371 392 c 1
EndSplineSet
Substitution2: "'smcp' Lowercase to Small Capitals in Latin lookup 4 subtable" oslash.sc
EndChar

StartChar: ugrave
Encoding: 249 249 183
Width: 569
GlyphClass: 2
Flags: MW
HStem: -10 64<243.5 255.5> 0 36<393 541> 423 31<26 97 26 26> 471 20G<142 180 180 180 438 476 476 476> 716 20G<139 238 238 238>
VStem: 97 83<143 160 160 423 423 423> 393 83<0 491 56 491 84 423 423 423>
LayerCount: 2
Fore
SplineSet
142 491 m 1xbe
 180 491 l 1
 180 160 l 2
 180 88 210 54 277 54 c 0xbe
 314 54 352 64 393 84 c 1
 393 423 l 1
 322 423 l 1
 322 454 l 1
 438 491 l 1
 476 491 l 1
 476 57 l 1
 494 41 l 1
 541 36 l 1
 541 0 l 1
 393 0 l 1x7e
 393 56 l 1
 333 13 280 -10 231 -10 c 0
 145 -10 97 43 97 143 c 2
 97 423 l 1
 26 423 l 1
 26 454 l 1
 142 491 l 1xbe
139 736 m 1
 238 736 l 1
 335 546 l 1
 285 546 l 1
 139 736 l 1
EndSplineSet
Substitution2: "'smcp' Lowercase to Small Capitals in Latin lookup 4 subtable" ugrave.sc
EndChar

StartChar: uacute
Encoding: 250 250 184
Width: 569
GlyphClass: 2
Flags: MW
HStem: -10 64<243.5 255.5> 0 36<393 541> 423 31<26 97 26 26> 471 20G<142 180 180 180 438 476 476 476> 716 20G<344 443 443 443>
VStem: 97 83<143 160 160 423 423 423> 393 83<0 491 56 491 84 423 423 423>
LayerCount: 2
Fore
SplineSet
142 491 m 1xbe
 180 491 l 1
 180 160 l 2
 180 88 210 54 277 54 c 0xbe
 314 54 352 64 393 84 c 1
 393 423 l 1
 322 423 l 1
 322 454 l 1
 438 491 l 1
 476 491 l 1
 476 57 l 1
 494 41 l 1
 541 36 l 1
 541 0 l 1
 393 0 l 1x7e
 393 56 l 1
 333 13 280 -10 231 -10 c 0
 145 -10 97 43 97 143 c 2
 97 423 l 1
 26 423 l 1
 26 454 l 1
 142 491 l 1xbe
344 736 m 1
 443 736 l 1
 297 546 l 1
 247 546 l 1
 344 736 l 1
EndSplineSet
Substitution2: "'smcp' Lowercase to Small Capitals in Latin lookup 4 subtable" uacute.sc
EndChar

StartChar: ucircumflex
Encoding: 251 251 185
Width: 569
GlyphClass: 2
Flags: MW
HStem: -10 64<243.5 255.5> 0 36<393 541> 423 31<26 97 26 26> 471 20G<142 180 180 180 438 476 476 476> 716 20G<253 317 317 317>
VStem: 97 83<143 160 160 423 423 423> 393 83<0 491 56 491 84 423 423 423>
LayerCount: 2
Fore
SplineSet
142 491 m 1xbe
 180 491 l 1
 180 160 l 2
 180 88 210 54 277 54 c 0xbe
 314 54 352 64 393 84 c 1
 393 423 l 1
 322 423 l 1
 322 454 l 1
 438 491 l 1
 476 491 l 1
 476 57 l 1
 494 41 l 1
 541 36 l 1
 541 0 l 1
 393 0 l 1x7e
 393 56 l 1
 333 13 280 -10 231 -10 c 0
 145 -10 97 43 97 143 c 2
 97 423 l 1
 26 423 l 1
 26 454 l 1
 142 491 l 1xbe
253 736 m 1
 317 736 l 1
 427 546 l 1
 373 546 l 1
 285 687 l 1
 198 546 l 1
 143 546 l 1
 253 736 l 1
EndSplineSet
Substitution2: "'smcp' Lowercase to Small Capitals in Latin lookup 4 subtable" ucircumflex.sc
EndChar

StartChar: udieresis
Encoding: 252 252 186
Width: 569
GlyphClass: 2
Flags: MW
HStem: -10 64<243.5 255.5> 0 36<393 541> 423 31<26 97 26 26> 471 20G<142 180 180 180 438 476 476 476> 590 101<178 206 364 392>
VStem: 97 83<143 160 160 423 423 423> 141 101<626 654.5> 327 101<626 654.5> 393 83<0 491 56 491 84 423 423 423>
LayerCount: 2
Fore
SplineSet
142 491 m 1xbc80
 180 491 l 1
 180 160 l 2
 180 88 210 54 277 54 c 0xbc80
 314 54 352 64 393 84 c 1
 393 423 l 1
 322 423 l 1
 322 454 l 1
 438 491 l 1
 476 491 l 1
 476 57 l 1
 494 41 l 1
 541 36 l 1
 541 0 l 1
 393 0 l 1x7c80
 393 56 l 1
 333 13 280 -10 231 -10 c 0
 145 -10 97 43 97 143 c 2
 97 423 l 1
 26 423 l 1
 26 454 l 1
 142 491 l 1xbc80
192 691 m 0
 220 691 242 669 242 640 c 0
 242 612 220 590 192 590 c 0
 164 590 141 612 141 640 c 0x3a
 141 669 164 691 192 691 c 0
378 691 m 0
 406 691 428 669 428 640 c 0
 428 612 406 590 378 590 c 0
 350 590 327 612 327 640 c 0x39
 327 669 350 691 378 691 c 0
EndSplineSet
Substitution2: "'smcp' Lowercase to Small Capitals in Latin lookup 4 subtable" udieresis.sc
EndChar

StartChar: yacute
Encoding: 253 253 187
Width: 495
GlyphClass: 2
Flags: MW
HStem: -218 21G<73 126.5> 444 37<-1 216 -1 216> 716 20G<307 406 406 406>
LayerCount: 2
Fore
SplineSet
-1 481 m 1
 216 481 l 1
 216 444 l 1
 163 440 l 1
 151 424 l 1
 271 113 l 1
 396 424 l 1
 388 440 l 1
 334 444 l 1
 334 481 l 1
 512 481 l 1
 512 444 l 1
 454 436 l 1
 254 -50 l 2
 207 -163 159 -218 94 -218 c 0
 52 -218 25 -195 25 -162 c 0
 25 -142 34 -124 51 -108 c 1
 147 -146 l 1
 174 -117 203 -67 228 4 c 1
 60 438 l 1
 -1 444 l 1
 -1 481 l 1
307 736 m 1
 406 736 l 1
 260 546 l 1
 210 546 l 1
 307 736 l 1
EndSplineSet
Substitution2: "'smcp' Lowercase to Small Capitals in Latin lookup 4 subtable" yacute.sc
EndChar

StartChar: thorn
Encoding: 254 254 188
Width: 551
GlyphClass: 2
Flags: MW
HStem: -218 36<28 28 28 262> -3 45<262.5 316 255 349> 428 63<304.5 330.5> 669 31<20 98 20 20> 716 20G<143 181 181 181>
VStem: 98 83<-161 6 58 394 431 669 669 669> 433 88<182.5 301.5>
LayerCount: 2
Fore
SplineSet
28 -218 m 1
 28 -182 l 1
 81 -177 l 1
 98 -161 l 1
 98 669 l 1
 20 669 l 1
 20 700 l 1
 143 736 l 1
 181 736 l 1
 181 431 l 1
 234 471 281 491 328 491 c 0
 438 491 521 397 521 257 c 0
 521 99 423 -3 275 -3 c 0
 250 -3 218 0 181 6 c 1
 181 -161 l 1
 199 -177 l 1
 262 -182 l 1
 262 -218 l 1
 28 -218 l 1
181 58 m 1
 214 47 243 42 267 42 c 0
 365 42 433 121 433 244 c 0
 433 359 374 428 287 428 c 0
 253 428 219 416 181 394 c 1
 181 58 l 1
EndSplineSet
Substitution2: "'smcp' Lowercase to Small Capitals in Latin lookup 4 subtable" thorn.sc
EndChar

StartChar: ydieresis
Encoding: 255 255 189
Width: 495
GlyphClass: 2
Flags: MW
HStem: -218 21G<73 126.5> 444 37<-1 216 -1 216> 590 101<141 169 327 355>
VStem: 104 101<626 654.5> 290 101<626 654.5>
LayerCount: 2
Fore
SplineSet
-1 481 m 1
 216 481 l 1
 216 444 l 1
 163 440 l 1
 151 424 l 1
 271 113 l 1
 396 424 l 1
 388 440 l 1
 334 444 l 1
 334 481 l 1
 512 481 l 1
 512 444 l 1
 454 436 l 1
 254 -50 l 2
 207 -163 159 -218 94 -218 c 0
 52 -218 25 -195 25 -162 c 0
 25 -142 34 -124 51 -108 c 1
 147 -146 l 1
 174 -117 203 -67 228 4 c 1
 60 438 l 1
 -1 444 l 1
 -1 481 l 1
155 691 m 0
 183 691 205 669 205 640 c 0
 205 612 183 590 155 590 c 0
 127 590 104 612 104 640 c 0
 104 669 127 691 155 691 c 0
341 691 m 0
 369 691 391 669 391 640 c 0
 391 612 369 590 341 590 c 0
 313 590 290 612 290 640 c 0
 290 669 313 691 341 691 c 0
EndSplineSet
Substitution2: "'smcp' Lowercase to Small Capitals in Latin lookup 4 subtable" ydieresis.sc
EndChar

StartChar: Amacron
Encoding: 256 256 190
Width: 639
GlyphClass: 2
Flags: MW
HStem: 0 41<-8 188 -8 -8> 251 46<201 403 201 420 184 403> 659 20G<284 350 350 350> 805 60<167 468 167 468>
VStem: 167 301<805 865 805 865>
LayerCount: 2
Fore
SplineSet
167 805 m 1
 167 865 l 1
 468 865 l 1
 468 805 l 1
 167 805 l 1
284 679 m 1
 350 679 l 1
 590 53 l 1
 650 41 l 1
 650 0 l 1
 423 0 l 1
 423 41 l 1
 485 46 l 1
 492 60 l 1
 420 251 l 1
 184 251 l 1
 113 60 l 1
 123 46 l 1
 188 41 l 1
 188 0 l 1
 -8 0 l 1
 -8 41 l 1
 50 53 l 1
 284 679 l 1
300 574 m 1
 201 297 l 1
 403 297 l 1
 300 574 l 1
EndSplineSet
EndChar

StartChar: amacron
Encoding: 257 257 191
Width: 507
GlyphClass: 2
Flags: MW
HStem: -7 54<185 194> 0 36<347 488> 268 35<334 334> 447 44<229.5 278> 608 60<118 419 118 419>
VStem: 42 88<104.5 165.5 104.5 173> 66 100<366 408.5> 118 301<608 668 608 668> 334 83<58 58 92 268 268 268 303 335 335 347 57 374.5>
LayerCount: 2
Fore
SplineSet
118 608 m 1x09
 118 668 l 1
 419 668 l 1
 419 608 l 1
 118 608 l 1x09
334 58 m 1x7280
 271 15 218 -7 170 -7 c 0
 91 -7 42 46 42 121 c 0xb480
 42 225 134 255 334 303 c 1
 334 335 l 2
 334 414 314 447 242 447 c 0
 217 447 193 442 166 431 c 1
 166 347 l 1
 97 347 l 2
 74 347 66 354 66 378 c 0
 66 439 142 491 268 491 c 0
 373 491 417 448 417 347 c 2
 417 57 l 1
 435 41 l 1
 488 36 l 1
 488 0 l 1
 347 0 l 1
 334 58 l 1x7280
334 92 m 1
 334 268 l 1
 193 229 130 202 130 129 c 0
 130 80 160 47 210 47 c 0
 243 47 284 63 334 92 c 1
EndSplineSet
EndChar

StartChar: Abreve
Encoding: 258 258 192
Width: 639
GlyphClass: 2
Flags: MW
HStem: 0 41<-8 188 -8 -8> 251 46<201 403 201 420 184 403> 659 20G<284 350 350 350> 747 63<284.5 357 284.5 371>
VStem: 179 39<878 881 881 889 854 889> 422 40<881 889 830 889>
LayerCount: 2
Fore
SplineSet
179 889 m 1
 218 889 l 1
 218 881 l 2
 218 827 248 810 321 810 c 0
 393 810 422 827 422 881 c 2
 422 889 l 1
 462 889 l 1
 462 878 l 2
 462 782 421 747 321 747 c 0
 219 747 179 781 179 878 c 2
 179 889 l 1
284 679 m 1
 350 679 l 1
 590 53 l 1
 650 41 l 1
 650 0 l 1
 423 0 l 1
 423 41 l 1
 485 46 l 1
 492 60 l 1
 420 251 l 1
 184 251 l 1
 113 60 l 1
 123 46 l 1
 188 41 l 1
 188 0 l 1
 -8 0 l 1
 -8 41 l 1
 50 53 l 1
 284 679 l 1
300 574 m 1
 201 297 l 1
 403 297 l 1
 300 574 l 1
EndSplineSet
Substitution2: "'c2sc' Capitals to Small Capitals in Latin lookup 6 subtable" abreve.sc
EndChar

StartChar: abreve
Encoding: 259 259 193
Width: 507
GlyphClass: 2
Flags: MW
HStem: -7 54<185 194> 0 36<347 488> 268 35<334 334> 447 44<229.5 278> 567 63<224.5 297 224.5 311>
VStem: 42 88<104.5 165.5 104.5 173> 66 100<366 408.5> 119 39<698 701 701 709 674 709> 334 83<58 58 92 268 268 268 303 335 335 347 57 374.5> 362 40<701 709 650 709>
LayerCount: 2
Fore
SplineSet
119 709 m 1x3940
 158 709 l 1
 158 701 l 2
 158 647 188 630 261 630 c 0
 333 630 362 647 362 701 c 2
 362 709 l 1
 402 709 l 1
 402 698 l 2
 402 602 361 567 261 567 c 0
 159 567 119 601 119 698 c 2
 119 709 l 1x3940
334 58 m 1x7a80
 271 15 218 -7 170 -7 c 0
 91 -7 42 46 42 121 c 0xbc80
 42 225 134 255 334 303 c 1
 334 335 l 2
 334 414 314 447 242 447 c 0
 217 447 193 442 166 431 c 1
 166 347 l 1
 97 347 l 2
 74 347 66 354 66 378 c 0
 66 439 142 491 268 491 c 0
 373 491 417 448 417 347 c 2
 417 57 l 1
 435 41 l 1
 488 36 l 1
 488 0 l 1
 347 0 l 1
 334 58 l 1x7a80
334 92 m 1
 334 268 l 1
 193 229 130 202 130 129 c 0
 130 80 160 47 210 47 c 0
 243 47 284 63 334 92 c 1
EndSplineSet
Substitution2: "'smcp' Lowercase to Small Capitals in Latin lookup 4 subtable" abreve.sc
EndChar

StartChar: Aogonek
Encoding: 260 260 194
Width: 639
GlyphClass: 2
Flags: MW
HStem: -216 53<588.5 597> 0 41<-8 188 -8 -8> 251 46<201 403 201 420 184 403> 659 20G<284 350 350 350>
VStem: 492 58<-124.5 -108>
LayerCount: 2
Fore
SplineSet
300 574 m 1
 201 297 l 1
 403 297 l 1
 300 574 l 1
284 679 m 1
 350 679 l 1
 590 53 l 1
 650 41 l 1
 650 0 l 1
 604 0 l 1
 569 -30 550 -69 550 -106 c 0
 550 -143 570 -163 607 -163 c 0
 615 -163 627 -161 640 -159 c 1
 640 -209 l 1
 623 -214 605 -216 589 -216 c 0
 525 -216 492 -186 492 -131 c 0
 492 -85 516 -34 560 0 c 1
 423 0 l 1
 423 41 l 1
 485 46 l 1
 492 60 l 1
 420 251 l 1
 184 251 l 1
 113 60 l 1
 123 46 l 1
 188 41 l 1
 188 0 l 1
 -8 0 l 1
 -8 41 l 1
 50 53 l 1
 284 679 l 1
EndSplineSet
Substitution2: "'c2sc' Capitals to Small Capitals in Latin lookup 6 subtable" aogonek.sc
EndChar

StartChar: aogonek
Encoding: 261 261 195
Width: 507
GlyphClass: 2
Flags: MW
HStem: -216 53<433.5 442> -7 54<185 194> 0 36<449 488> 268 35<334 334> 447 44<229.5 278>
VStem: 42 88<104.5 165.5 104.5 173> 66 100<366 408.5> 334 83<58 58 92 268 268 268 303 335 335 347 57 374.5> 337 58<-124.5 -108>
LayerCount: 2
Fore
SplineSet
334 92 m 1xdd
 334 268 l 1
 193 229 130 202 130 129 c 0
 130 80 160 47 210 47 c 0
 243 47 284 63 334 92 c 1xdd
334 58 m 1
 271 15 218 -7 170 -7 c 0
 91 -7 42 46 42 121 c 0xdd
 42 225 134 255 334 303 c 1
 334 335 l 2
 334 414 314 447 242 447 c 0
 217 447 193 442 166 431 c 1
 166 347 l 1
 97 347 l 2
 74 347 66 354 66 378 c 0
 66 439 142 491 268 491 c 0
 373 491 417 448 417 347 c 2
 417 57 l 1xdb
 435 41 l 1
 488 36 l 1
 488 0 l 1
 449 0 l 1
 414 -30 395 -69 395 -106 c 0
 395 -143 415 -163 452 -163 c 0
 460 -163 472 -161 485 -159 c 1
 485 -209 l 1
 468 -214 450 -216 434 -216 c 0
 370 -216 337 -186 337 -131 c 0
 337 -85 361 -34 405 0 c 1
 347 0 l 1xb880
 334 58 l 1
EndSplineSet
Substitution2: "'smcp' Lowercase to Small Capitals in Latin lookup 4 subtable" aogonek.sc
EndChar

StartChar: Cacute
Encoding: 262 262 196
Width: 632
GlyphClass: 2
Flags: MW
HStem: -12 53<353 419.5> 630 53<317.5 411.5>
VStem: 43 103<270.5 432.5 248 440> 532 56<181 181 495 495>
LayerCount: 2
Fore
SplineSet
369 936 m 1
 468 936 l 1
 322 746 l 1
 272 746 l 1
 369 936 l 1
588 23 m 1
 522 0 453 -12 386 -12 c 0
 320 -12 262 2 216 28 c 0
 109 89 43 205 43 336 c 0
 43 544 182 683 390 683 c 0
 449 683 515 672 588 649 c 1
 588 495 l 1
 532 495 l 1
 517 586 l 1
 504 604 l 1
 467 621 431 630 392 630 c 0
 243 630 146 522 146 343 c 0
 146 153 245 41 407 41 c 0
 435 41 464 45 494 54 c 1
 510 70 l 1
 532 181 l 1
 588 181 l 1
 588 23 l 1
EndSplineSet
Substitution2: "'c2sc' Capitals to Small Capitals in Latin lookup 6 subtable" cacute.sc
EndChar

StartChar: cacute
Encoding: 263 263 197
Width: 446
GlyphClass: 2
Flags: MW
HStem: -7 59<246 289> 451 40<232 283.5> 716 20G<274 373 373 373>
VStem: 37 91<186.5 311 186.5 315.5> 323 101<377 422 377 437 377 437>
LayerCount: 2
Fore
SplineSet
274 736 m 1
 373 736 l 1
 227 546 l 1
 177 546 l 1
 274 736 l 1
425 42 m 1
 370 10 316 -7 262 -7 c 0
 126 -7 37 93 37 241 c 0
 37 390 134 491 274 491 c 0
 370 491 424 451 424 393 c 0
 424 361 402 340 368 340 c 0
 353 340 338 345 323 355 c 1
 323 437 l 1
 308 446 292 451 275 451 c 0
 189 451 128 374 128 248 c 0
 128 125 194 52 298 52 c 0
 342 52 383 66 425 94 c 1
 425 42 l 1
EndSplineSet
Substitution2: "'smcp' Lowercase to Small Capitals in Latin lookup 4 subtable" cacute.sc
EndChar

StartChar: Ccircumflex
Encoding: 264 264 198
Width: 632
GlyphClass: 2
Flags: MW
HStem: -12 53<353 419.5> 630 53<317.5 411.5> 743 190<247 421 247 421 357 477 357 531>
VStem: 43 103<270.5 432.5 248 440> 247 284<743 743> 532 56<181 181 495 495>
LayerCount: 2
Fore
SplineSet
247 743 m 1
 357 933 l 1
 421 933 l 1
 531 743 l 1
 477 743 l 1
 389 884 l 1
 302 743 l 1
 247 743 l 1
588 23 m 1
 522 0 453 -12 386 -12 c 0
 320 -12 262 2 216 28 c 0
 109 89 43 205 43 336 c 0
 43 544 182 683 390 683 c 0
 449 683 515 672 588 649 c 1
 588 495 l 1
 532 495 l 1
 517 586 l 1
 504 604 l 1
 467 621 431 630 392 630 c 0
 243 630 146 522 146 343 c 0
 146 153 245 41 407 41 c 0
 435 41 464 45 494 54 c 1
 510 70 l 1
 532 181 l 1
 588 181 l 1
 588 23 l 1
EndSplineSet
EndChar

StartChar: ccircumflex
Encoding: 265 265 199
Width: 446
GlyphClass: 2
Flags: MW
HStem: -7 59<246 289> 451 40<232 283.5> 551 190<132 306 132 306 242 416 242 362>
VStem: 37 91<186.5 311 186.5 315.5> 132 284<551 551> 323 101<377 422 377 437 377 437>
LayerCount: 2
Fore
SplineSet
242 741 m 1x28
 306 741 l 1
 416 551 l 1
 362 551 l 1
 274 692 l 1
 187 551 l 1
 132 551 l 1
 242 741 l 1x28
425 42 m 1xd4
 370 10 316 -7 262 -7 c 0
 126 -7 37 93 37 241 c 0
 37 390 134 491 274 491 c 0
 370 491 424 451 424 393 c 0
 424 361 402 340 368 340 c 0
 353 340 338 345 323 355 c 1
 323 437 l 1
 308 446 292 451 275 451 c 0
 189 451 128 374 128 248 c 0
 128 125 194 52 298 52 c 0
 342 52 383 66 425 94 c 1
 425 42 l 1xd4
EndSplineSet
EndChar

StartChar: Cdotaccent
Encoding: 266 266 200
Width: 632
GlyphClass: 2
Flags: MW
HStem: -12 53<353 419.5> 630 53<317.5 411.5> 787 106<374 404>
VStem: 43 103<270.5 432.5 248 440> 336 107<824.5 854> 532 56<181 181 495 495>
LayerCount: 2
Fore
SplineSet
336 839 m 0
 336 869 359 893 389 893 c 0
 419 893 443 870 443 839 c 0
 443 809 419 787 389 787 c 0
 359 787 336 810 336 839 c 0
588 23 m 1
 522 0 453 -12 386 -12 c 0
 320 -12 262 2 216 28 c 0
 109 89 43 205 43 336 c 0
 43 544 182 683 390 683 c 0
 449 683 515 672 588 649 c 1
 588 495 l 1
 532 495 l 1
 517 586 l 1
 504 604 l 1
 467 621 431 630 392 630 c 0
 243 630 146 522 146 343 c 0
 146 153 245 41 407 41 c 0
 435 41 464 45 494 54 c 1
 510 70 l 1
 532 181 l 1
 588 181 l 1
 588 23 l 1
EndSplineSet
EndChar

StartChar: cdotaccent
Encoding: 267 267 201
Width: 446
GlyphClass: 2
Flags: MW
HStem: -7 59<246 289> 451 40<232 283.5> 551 106<259 289>
VStem: 37 91<186.5 311 186.5 315.5> 220 107 323 101<377 422 377 437 377 437>
LayerCount: 2
Fore
SplineSet
274 657 m 0x28
 304 657 328 634 328 603 c 0
 328 573 304 551 274 551 c 0
 244 551 220 574 220 603 c 0
 220 633 244 657 274 657 c 0x28
425 42 m 1xd4
 370 10 316 -7 262 -7 c 0
 126 -7 37 93 37 241 c 0
 37 390 134 491 274 491 c 0
 370 491 424 451 424 393 c 0
 424 361 402 340 368 340 c 0
 353 340 338 345 323 355 c 1
 323 437 l 1
 308 446 292 451 275 451 c 0
 189 451 128 374 128 248 c 0
 128 125 194 52 298 52 c 0
 342 52 383 66 425 94 c 1
 425 42 l 1xd4
EndSplineSet
EndChar

StartChar: Ccaron
Encoding: 268 268 202
Width: 632
GlyphClass: 2
Flags: MW
HStem: -12 53<353 419.5> 630 53<317.5 411.5> 743 21G<351 415 351 351>
VStem: 43 103<270.5 432.5 248 440> 532 56<181 181 495 495>
LayerCount: 2
Fore
SplineSet
241 933 m 1
 296 933 l 1
 383 792 l 1
 471 933 l 1
 525 933 l 1
 415 743 l 1
 351 743 l 1
 241 933 l 1
588 23 m 1
 522 0 453 -12 386 -12 c 0
 320 -12 262 2 216 28 c 0
 109 89 43 205 43 336 c 0
 43 544 182 683 390 683 c 0
 449 683 515 672 588 649 c 1
 588 495 l 1
 532 495 l 1
 517 586 l 1
 504 604 l 1
 467 621 431 630 392 630 c 0
 243 630 146 522 146 343 c 0
 146 153 245 41 407 41 c 0
 435 41 464 45 494 54 c 1
 510 70 l 1
 532 181 l 1
 588 181 l 1
 588 23 l 1
EndSplineSet
Substitution2: "'c2sc' Capitals to Small Capitals in Latin lookup 6 subtable" ccaron.sc
EndChar

StartChar: ccaron
Encoding: 269 269 203
Width: 446
GlyphClass: 2
Flags: MW
HStem: -7 59<246 289> 451 40<232 283.5> 716 20G<122 177 177 177 352 406 406 406>
VStem: 37 91<186.5 311 186.5 315.5> 323 101<377 422 377 437 377 437>
LayerCount: 2
Fore
SplineSet
122 736 m 1
 177 736 l 1
 264 595 l 1
 352 736 l 1
 406 736 l 1
 296 546 l 1
 232 546 l 1
 122 736 l 1
425 42 m 1
 370 10 316 -7 262 -7 c 0
 126 -7 37 93 37 241 c 0
 37 390 134 491 274 491 c 0
 370 491 424 451 424 393 c 0
 424 361 402 340 368 340 c 0
 353 340 338 345 323 355 c 1
 323 437 l 1
 308 446 292 451 275 451 c 0
 189 451 128 374 128 248 c 0
 128 125 194 52 298 52 c 0
 342 52 383 66 425 94 c 1
 425 42 l 1
EndSplineSet
Substitution2: "'smcp' Lowercase to Small Capitals in Latin lookup 4 subtable" ccaron.sc
EndChar

StartChar: Dcaron
Encoding: 270 270 204
Width: 693
GlyphClass: 2
Flags: MW
HStem: 0 46<90 90 197 276 276 280> 625 46<90 90 197 276 197 197>
VStem: 107 90<60 611 611 611> 548 101<276.5 433.5>
LayerCount: 2
Fore
SplineSet
198 936 m 1
 253 936 l 1
 340 795 l 1
 428 936 l 1
 482 936 l 1
 372 746 l 1
 308 746 l 1
 198 936 l 1
280 671 m 2
 517 671 649 546 649 336 c 0
 649 217 606 124 524 62 c 0
 456 11 380 0 280 0 c 2
 33 0 l 1
 33 41 l 1
 90 46 l 1
 107 60 l 1
 107 611 l 1
 90 625 l 1
 33 631 l 1
 33 671 l 1
 280 671 l 2
197 625 m 1
 197 46 l 1
 276 46 l 2
 459 46 548 142 548 336 c 0
 548 531 459 625 276 625 c 2
 197 625 l 1
EndSplineSet
Substitution2: "'c2sc' Capitals to Small Capitals in Latin lookup 6 subtable" dcaron.sc
EndChar

StartChar: dcaron
Encoding: 271 271 205
Width: 565
GlyphClass: 2
Flags: MW
HStem: -9 63<229 256.5> 0 36<383 531> 448 44<244.5 307> 619 94<533 569 504 574.5> 669 31<306 383 306 306> 716 20G<428 466 466 466>
VStem: 36 88<183.5 304.5 183.5 305> 383 83<0 736 52 736 89 432 432 432 481 669 669 669> 571 59<592.5 600>
LayerCount: 2
Fore
SplineSet
534 442 m 1x3780
 491 442 l 1
 544 500 571 549 571 596 c 0
 571 604 571 611 569 619 c 1
 504 619 l 1
 495 632 491 644 491 656 c 0
 491 688 515 713 551 713 c 0
 598 713 630 677 630 621 c 0
 630 564 598 503 534 442 c 1x3780
383 669 m 1xaf80
 306 669 l 1
 306 700 l 1
 428 736 l 1
 466 736 l 1
 466 57 l 1
 483 41 l 1
 531 36 l 1
 531 0 l 1
 383 0 l 1x6f80
 383 52 l 1
 332 11 284 -9 229 -9 c 0
 120 -9 36 85 36 225 c 0
 36 385 142 492 294 492 c 0
 322 492 352 488 383 481 c 1
 383 669 l 1xaf80
383 89 m 1
 383 432 l 1
 349 442 319 448 295 448 c 0
 194 448 124 367 124 242 c 0
 124 125 184 54 274 54 c 0xa780
 310 54 346 66 383 89 c 1
EndSplineSet
Substitution2: "'smcp' Lowercase to Small Capitals in Latin lookup 4 subtable" dcaron.sc
EndChar

StartChar: Dcroat
Encoding: 272 272 206
Width: 693
GlyphClass: 2
Flags: MW
HStem: 0 46<90 90 197 276 276 280> 327 48<15 107 15 107 197 363> 625 46<90 90 197 197 197 276>
VStem: 107 90<60 327 46 327 375 611 611 611> 548 101<276.5 433.5>
LayerCount: 2
Fore
SplineSet
280 671 m 2
 517 671 649 546 649 336 c 0
 649 217 606 124 524 62 c 0
 456 11 380 0 280 0 c 2
 33 0 l 1
 33 41 l 1
 90 46 l 1
 107 60 l 1
 107 327 l 1
 15 327 l 1
 15 375 l 1
 107 375 l 1
 107 611 l 1
 90 625 l 1
 33 631 l 1
 33 671 l 1
 280 671 l 2
197 327 m 1
 197 46 l 1
 276 46 l 2
 459 46 548 142 548 336 c 0
 548 531 459 625 276 625 c 2
 197 625 l 1
 197 375 l 1
 363 375 l 1
 363 327 l 1
 197 327 l 1
EndSplineSet
EndChar

StartChar: dcroat
Encoding: 273 273 207
Width: 565
GlyphClass: 2
Flags: MW
HStem: -9 63<229 256.5> 0 36<383 531> 448 44<244.5 307> 547 67<277 383 277 383 466 502> 669 31<306 383 306 306> 716 20G<428 466 466 466>
VStem: 36 88<183.5 304.5 183.5 305> 383 83<0 547 52 547 89 432 432 432 481 547 57 547 614 669 669 669>
LayerCount: 2
Fore
SplineSet
383 89 m 1xbf
 383 432 l 1
 349 442 319 448 295 448 c 0
 194 448 124 367 124 242 c 0
 124 125 184 54 274 54 c 0
 310 54 346 66 383 89 c 1xbf
383 669 m 1
 306 669 l 1
 306 700 l 1
 428 736 l 1
 466 736 l 1
 466 614 l 1
 502 614 l 1
 502 547 l 1
 466 547 l 1
 466 57 l 1
 483 41 l 1
 531 36 l 1
 531 0 l 1
 383 0 l 1x7f
 383 52 l 1
 332 11 284 -9 229 -9 c 0
 120 -9 36 85 36 225 c 0
 36 385 142 492 294 492 c 0
 322 492 352 488 383 481 c 1
 383 547 l 1
 277 547 l 1
 277 614 l 1
 383 614 l 1
 383 669 l 1
EndSplineSet
Substitution2: "'smcp' Lowercase to Small Capitals in Latin lookup 4 subtable" eth.sc
EndChar

StartChar: Emacron
Encoding: 274 274 208
Width: 576
GlyphClass: 2
Flags: MW
HStem: 0 46<90 90 197 465> 326 46<197 361 197 361> 625 46<90 90 197 197 197 428> 805 60<140 441 140 441>
VStem: 107 90<60 326 372 611 611 611> 140 301<805 865 805 865> 385 47<239 459 239 459> 456 56<525 671> 496 52<0 163>
LayerCount: 2
Fore
SplineSet
140 805 m 1x14
 140 865 l 1
 441 865 l 1
 441 805 l 1
 140 805 l 1x14
33 0 m 1xea80
 33 41 l 1
 90 46 l 1
 107 60 l 1
 107 611 l 1
 90 625 l 1
 33 631 l 1
 33 671 l 1
 512 671 l 1
 512 525 l 1
 456 525 l 1xeb
 442 610 l 1
 428 625 l 1
 197 625 l 1
 197 372 l 1
 361 372 l 1
 375 386 l 1
 385 459 l 1
 432 459 l 1
 432 239 l 1
 385 239 l 1
 375 311 l 1
 361 326 l 1
 197 326 l 1
 197 46 l 1
 465 46 l 1
 479 62 l 1
 496 163 l 1
 548 163 l 1
 548 0 l 1
 33 0 l 1xea80
EndSplineSet
EndChar

StartChar: emacron
Encoding: 275 275 209
Width: 491
GlyphClass: 2
Flags: MW
HStem: -9 57<240.5 291.5> 263 42<128 359 128 447 123 359> 446 45<223 288.5> 608 60<118 419 118 419>
VStem: 37 86<188 252 252 263 188 312.5> 118 301<608 668 608 668> 359 89<305 321 321 355.5>
LayerCount: 2
Fore
SplineSet
118 608 m 1x14
 118 668 l 1
 419 668 l 1
 419 608 l 1
 118 608 l 1x14
448 106 m 1xea
 448 51 l 1
 388 11 323 -9 260 -9 c 0
 128 -9 37 90 37 237 c 0
 37 388 134 491 268 491 c 0
 377 491 448 417 448 294 c 0
 448 284 448 274 447 263 c 1
 123 263 l 1
 123 252 l 2
 123 124 190 48 291 48 c 0
 341 48 391 68 448 106 c 1xea
359 305 m 1
 359 321 l 2
 359 402 322 446 255 446 c 0
 191 446 134 390 128 305 c 1
 359 305 l 1
EndSplineSet
EndChar

StartChar: Ebreve
Encoding: 276 276 210
Width: 576
GlyphClass: 2
Flags: MW
HStem: 0 46<90 90 197 465> 326 46<197 361 197 361> 625 46<90 90 197 197 197 428> 764 63<254.5 327 254.5 341>
VStem: 107 90<60 326 372 611 611 611> 149 39<895 898 898 906 871 906> 385 47<239 459 239 459> 392 40<898 906> 456 56<525 671> 496 52<0 163>
LayerCount: 2
Fore
SplineSet
149 895 m 2x15
 149 906 l 1
 188 906 l 1
 188 898 l 2
 188 844 218 827 291 827 c 0
 363 827 392 844 392 898 c 2
 392 906 l 1
 432 906 l 1
 432 895 l 2
 432 799 391 764 291 764 c 0
 189 764 149 798 149 895 c 2x15
33 0 m 1xea40
 33 41 l 1
 90 46 l 1
 107 60 l 1
 107 611 l 1
 90 625 l 1
 33 631 l 1
 33 671 l 1
 512 671 l 1
 512 525 l 1
 456 525 l 1xea80
 442 610 l 1
 428 625 l 1
 197 625 l 1
 197 372 l 1
 361 372 l 1
 375 386 l 1
 385 459 l 1
 432 459 l 1
 432 239 l 1
 385 239 l 1
 375 311 l 1
 361 326 l 1
 197 326 l 1
 197 46 l 1
 465 46 l 1
 479 62 l 1
 496 163 l 1
 548 163 l 1
 548 0 l 1
 33 0 l 1xea40
EndSplineSet
EndChar

StartChar: ebreve
Encoding: 277 277 211
Width: 491
GlyphClass: 2
Flags: MW
HStem: -9 57<240.5 291.5> 263 42<128 359 128 447 123 359> 446 45<223 288.5> 551 63<232 304 232 318>
VStem: 37 86<188 252 252 263 188 312.5> 126 39 359 89<305 321 321 355.5> 370 40<685 693 634 693>
LayerCount: 2
Fore
SplineSet
126 693 m 1x15
 166 693 l 1
 166 685 l 2
 166 631 196 614 268 614 c 0
 340 614 370 631 370 685 c 2
 370 693 l 1
 410 693 l 1
 410 682 l 2
 410 586 368 551 268 551 c 0
 166 551 126 585 126 682 c 2
 126 693 l 1x15
448 106 m 1xea
 448 51 l 1
 388 11 323 -9 260 -9 c 0
 128 -9 37 90 37 237 c 0
 37 388 134 491 268 491 c 0
 377 491 448 417 448 294 c 0
 448 284 448 274 447 263 c 1
 123 263 l 1
 123 252 l 2
 123 124 190 48 291 48 c 0
 341 48 391 68 448 106 c 1xea
359 305 m 1
 359 321 l 2
 359 402 322 446 255 446 c 0
 191 446 134 390 128 305 c 1
 359 305 l 1
EndSplineSet
EndChar

StartChar: Edotaccent
Encoding: 278 278 212
Width: 576
GlyphClass: 2
Flags: MW
HStem: 0 46<90 90 197 465> 326 46<197 361 197 361> 625 46<90 90 197 197 197 428> 787 106<275 305>
VStem: 107 90<60 326 372 611 611 611> 237 107<824.5 854> 385 47<239 459 239 459> 456 56<525 671> 496 52<0 163>
LayerCount: 2
Fore
SplineSet
237 839 m 0x14
 237 869 260 893 290 893 c 0
 320 893 344 870 344 839 c 0
 344 809 320 787 290 787 c 0
 260 787 237 810 237 839 c 0x14
33 0 m 1xea80
 33 41 l 1
 90 46 l 1
 107 60 l 1
 107 611 l 1
 90 625 l 1
 33 631 l 1
 33 671 l 1
 512 671 l 1
 512 525 l 1
 456 525 l 1xeb
 442 610 l 1
 428 625 l 1
 197 625 l 1
 197 372 l 1
 361 372 l 1
 375 386 l 1
 385 459 l 1
 432 459 l 1
 432 239 l 1
 385 239 l 1
 375 311 l 1
 361 326 l 1
 197 326 l 1
 197 46 l 1
 465 46 l 1
 479 62 l 1
 496 163 l 1
 548 163 l 1
 548 0 l 1
 33 0 l 1xea80
EndSplineSet
EndChar

StartChar: edotaccent
Encoding: 279 279 213
Width: 491
GlyphClass: 2
Flags: MW
HStem: -9 57<240.5 291.5> 263 42<128 359 128 447 123 359> 446 45<223 288.5> 551 106<253 283>
VStem: 37 86<188 252 252 263 188 312.5> 214 107 359 89<305 321 321 355.5>
LayerCount: 2
Fore
SplineSet
268 657 m 0
 298 657 322 634 322 603 c 0
 322 573 298 551 268 551 c 0
 238 551 214 574 214 603 c 0
 214 633 238 657 268 657 c 0
448 106 m 1
 448 51 l 1
 388 11 323 -9 260 -9 c 0
 128 -9 37 90 37 237 c 0
 37 388 134 491 268 491 c 0
 377 491 448 417 448 294 c 0
 448 284 448 274 447 263 c 1
 123 263 l 1
 123 252 l 2
 123 124 190 48 291 48 c 0
 341 48 391 68 448 106 c 1
359 305 m 1
 359 321 l 2
 359 402 322 446 255 446 c 0
 191 446 134 390 128 305 c 1
 359 305 l 1
EndSplineSet
EndChar

StartChar: Eogonek
Encoding: 280 280 214
Width: 576
GlyphClass: 2
Flags: MW
HStem: -216 53<495.5 504> 0 46<90 90 197 465> 326 46<197 361 197 361> 625 46<90 90 197 197 197 428>
VStem: 107 90<60 326 372 611 611 611> 385 47<239 459 239 459> 399 58<-124.5 -108> 456 56<525 671> 496 52<0 163>
LayerCount: 2
Fore
SplineSet
33 0 m 1xfa80
 33 41 l 1
 90 46 l 1
 107 60 l 1
 107 611 l 1
 90 625 l 1
 33 631 l 1
 33 671 l 1
 512 671 l 1
 512 525 l 1
 456 525 l 1
 442 610 l 1
 428 625 l 1
 197 625 l 1
 197 372 l 1
 361 372 l 1
 375 386 l 1
 385 459 l 1
 432 459 l 1
 432 239 l 1
 385 239 l 1xfd
 375 311 l 1
 361 326 l 1
 197 326 l 1
 197 46 l 1
 465 46 l 1
 479 62 l 1
 496 163 l 1
 548 163 l 1
 548 0 l 1
 511 0 l 1
 476 -30 457 -69 457 -106 c 0
 457 -143 477 -163 514 -163 c 0
 522 -163 534 -161 547 -159 c 1
 547 -209 l 1
 530 -214 512 -216 496 -216 c 0
 432 -216 399 -186 399 -131 c 0
 399 -85 423 -34 467 0 c 1
 33 0 l 1xfa80
EndSplineSet
EndChar

StartChar: eogonek
Encoding: 281 281 215
Width: 491
GlyphClass: 2
Flags: MW
HStem: -216 53<298.5 307> -9 57<240.5 259> 263 42<128 359 128 447 123 359> 446 45<223 288.5>
VStem: 37 86<188 252 252 263 188 312.5> 202 58<-124.5 -110> 359 89<305 321 321 355.5>
LayerCount: 2
Fore
SplineSet
359 305 m 1
 359 321 l 2
 359 402 322 446 255 446 c 0
 191 446 134 390 128 305 c 1
 359 305 l 1
448 106 m 1
 448 51 l 1
 403 21 356 2 308 -5 c 1
 277 -34 260 -71 260 -106 c 0
 260 -143 280 -163 317 -163 c 0
 325 -163 337 -161 350 -159 c 1
 350 -209 l 1
 333 -214 315 -216 299 -216 c 0
 235 -216 202 -186 202 -131 c 0
 202 -89 222 -43 259 -9 c 1
 128 -9 37 90 37 237 c 0
 37 388 134 491 268 491 c 0
 377 491 448 417 448 294 c 0
 448 284 448 274 447 263 c 1
 123 263 l 1
 123 252 l 2
 123 124 190 48 291 48 c 0
 341 48 391 68 448 106 c 1
EndSplineSet
Substitution2: "'smcp' Lowercase to Small Capitals in Latin lookup 4 subtable" eogonek.sc
EndChar

StartChar: Ecaron
Encoding: 282 282 216
Width: 576
GlyphClass: 2
Flags: MW
HStem: 0 46<90 90 197 465> 326 46<197 361 197 361> 625 46<90 90 197 197 197 428> 743 21G<261 325 261 261>
VStem: 107 90<60 326 372 611 611 611> 385 47<239 459 239 459> 456 56<525 671> 496 52<0 163>
LayerCount: 2
Fore
SplineSet
151 933 m 1xfc
 206 933 l 1
 293 792 l 1
 381 933 l 1
 435 933 l 1
 325 743 l 1
 261 743 l 1
 151 933 l 1xfc
33 0 m 1
 33 41 l 1
 90 46 l 1
 107 60 l 1
 107 611 l 1
 90 625 l 1
 33 631 l 1
 33 671 l 1
 512 671 l 1
 512 525 l 1
 456 525 l 1xfe
 442 610 l 1
 428 625 l 1
 197 625 l 1
 197 372 l 1
 361 372 l 1
 375 386 l 1
 385 459 l 1
 432 459 l 1
 432 239 l 1
 385 239 l 1
 375 311 l 1
 361 326 l 1
 197 326 l 1
 197 46 l 1
 465 46 l 1
 479 62 l 1
 496 163 l 1
 548 163 l 1
 548 0 l 1xfd
 33 0 l 1
EndSplineSet
Substitution2: "'c2sc' Capitals to Small Capitals in Latin lookup 6 subtable" ecaron.sc
EndChar

StartChar: ecaron
Encoding: 283 283 217
Width: 491
GlyphClass: 2
Flags: MW
HStem: -9 57<240.5 291.5> 263 42<128 359 128 447 123 359> 446 45<223 288.5> 716 20G<122 177 177 177 352 406 406 406>
VStem: 37 86<188 252 252 263 188 312.5> 359 89<305 321 321 355.5>
LayerCount: 2
Fore
SplineSet
122 736 m 1
 177 736 l 1
 264 595 l 1
 352 736 l 1
 406 736 l 1
 296 546 l 1
 232 546 l 1
 122 736 l 1
448 106 m 1
 448 51 l 1
 388 11 323 -9 260 -9 c 0
 128 -9 37 90 37 237 c 0
 37 388 134 491 268 491 c 0
 377 491 448 417 448 294 c 0
 448 284 448 274 447 263 c 1
 123 263 l 1
 123 252 l 2
 123 124 190 48 291 48 c 0
 341 48 391 68 448 106 c 1
359 305 m 1
 359 321 l 2
 359 402 322 446 255 446 c 0
 191 446 134 390 128 305 c 1
 359 305 l 1
EndSplineSet
Substitution2: "'smcp' Lowercase to Small Capitals in Latin lookup 4 subtable" ecaron.sc
EndChar

StartChar: Gcircumflex
Encoding: 284 284 218
Width: 694
GlyphClass: 2
Flags: MW
HStem: -12 53<354.5 417.5> 281 41<417 667 417 667> 630 53<318.5 415> 743 190<259 433 259 433 369 489 369 543>
VStem: 43 103<270.5 433 248.5 441.5> 259 284<743 743> 505 90<54 262 23 262> 538 56<495 654>
LayerCount: 2
Fore
SplineSet
259 743 m 1x14
 369 933 l 1
 433 933 l 1
 543 743 l 1
 489 743 l 1
 401 884 l 1
 314 743 l 1
 259 743 l 1x14
417 322 m 1xea
 667 322 l 1
 667 281 l 1
 612 276 l 1
 595 262 l 1
 595 23 l 1xea
 516 0 447 -12 388 -12 c 0
 321 -12 262 2 216 28 c 0
 108 89 43 205 43 336 c 0
 43 547 181 683 402 683 c 0
 463 683 528 673 594 654 c 1
 594 495 l 1
 538 495 l 1xe9
 523 586 l 1
 509 604 l 1
 472 621 435 630 395 630 c 0
 242 630 146 523 146 343 c 0
 146 154 246 41 403 41 c 0
 432 41 466 45 505 54 c 1
 505 262 l 1
 488 276 l 1
 417 281 l 1
 417 322 l 1xea
EndSplineSet
EndChar

StartChar: gcircumflex
Encoding: 285 285 219
Width: 523
GlyphClass: 2
Flags: MW
HStem: -218 46<215 259> 167 39<222 239 222 222> 416 47<402 512 402 402> 452 39<217 275> 551 190<114 288 114 288 224 398 224 344>
VStem: 40 80<-97 -57> 62 86<291.5 367.5 291.5 374.5> 114 284<551 551> 138 73<72 130> 344 86<291.5 340.5 278.5 367> 405 74<-58.5 -39>
LayerCount: 2
Fore
SplineSet
224 741 m 1x09
 288 741 l 1
 398 551 l 1
 344 551 l 1
 256 692 l 1
 169 551 l 1
 114 551 l 1
 224 741 l 1x09
369 463 m 1xe2
 512 463 l 1
 512 416 l 1
 402 416 l 1
 421 387 430 358 430 323 c 0xe240
 430 234 355 167 239 167 c 2
 222 167 l 1
 215 153 211 138 211 122 c 0
 211 117 212 109 213 98 c 1
 309 83 l 2
 427 65 479 34 479 -40 c 0
 479 -77 458 -120 419 -152 c 0
 366 -195 297 -218 221 -218 c 0
 106 -218 40 -169 40 -89 c 0xe4a0
 40 -25 80 23 148 35 c 1xe2
 142 49 138 64 138 80 c 0xe080
 138 106 154 137 186 175 c 1
 109 192 62 251 62 326 c 0
 62 423 138 491 256 491 c 0xd2
 294 491 331 482 369 463 c 1xe2
246 452 m 0xd240
 188 452 148 406 148 329 c 0
 148 254 188 206 246 206 c 0
 304 206 344 254 344 329 c 0
 344 405 304 452 246 452 c 0xd240
206 30 m 1
 151 13 120 -24 120 -68 c 0
 120 -126 174 -172 256 -172 c 0
 345 -172 405 -122 405 -66 c 0xc420
 405 -12 373 -1 303 12 c 2
 206 30 l 1
EndSplineSet
EndChar

StartChar: Gbreve
Encoding: 286 286 220
Width: 694
GlyphClass: 2
Flags: MW
HStem: -12 53<354.5 417.5> 281 41<417 667 417 667> 630 53<318.5 415> 747 63<364.5 437 364.5 451>
VStem: 43 103<270.5 433 248.5 441.5> 259 39<878 881 881 889 854 889> 502 40<881 889 830 889> 538 56<495 654>
LayerCount: 2
Fore
SplineSet
259 889 m 1xfe
 298 889 l 1
 298 881 l 2
 298 827 328 810 401 810 c 0
 473 810 502 827 502 881 c 2
 502 889 l 1
 542 889 l 1
 542 878 l 2
 542 782 501 747 401 747 c 0
 299 747 259 781 259 878 c 2
 259 889 l 1xfe
417 322 m 1
 667 322 l 1
 667 281 l 1
 612 276 l 1
 595 262 l 1
 595 23 l 1
 516 0 447 -12 388 -12 c 0
 321 -12 262 2 216 28 c 0
 108 89 43 205 43 336 c 0
 43 547 181 683 402 683 c 0
 463 683 528 673 594 654 c 1
 594 495 l 1
 538 495 l 1xfd
 523 586 l 1
 509 604 l 1
 472 621 435 630 395 630 c 0
 242 630 146 523 146 343 c 0
 146 154 246 41 403 41 c 0
 432 41 466 45 505 54 c 1
 505 262 l 1
 488 276 l 1
 417 281 l 1
 417 322 l 1
EndSplineSet
Substitution2: "'c2sc' Capitals to Small Capitals in Latin lookup 6 subtable" gbreve.sc
EndChar

StartChar: gbreve
Encoding: 287 287 221
Width: 523
GlyphClass: 2
Flags: MW
HStem: -218 46<215 259> 167 39<222 239 222 222> 416 47<402 512 402 402> 452 39<217 275> 567 63<214.5 287 214.5 301>
VStem: 40 80<-97 -57> 62 86<291.5 367.5 291.5 374.5> 109 39<698 701 701 709> 138 73<72 130> 344 86<291.5 340.5 278.5 367> 352 40<701 709 650 709> 405 74<-58.5 -39>
LayerCount: 2
Fore
SplineSet
109 709 m 1xc920
 148 709 l 1
 148 701 l 2
 148 647 178 630 251 630 c 0
 323 630 352 647 352 701 c 2
 352 709 l 1
 392 709 l 1
 392 698 l 2
 392 602 351 567 251 567 c 0
 149 567 109 601 109 698 c 2
 109 709 l 1xc920
369 463 m 1xea
 512 463 l 1
 512 416 l 1
 402 416 l 1
 421 387 430 358 430 323 c 0xea40
 430 234 355 167 239 167 c 2
 222 167 l 1
 215 153 211 138 211 122 c 0
 211 117 212 109 213 98 c 1
 309 83 l 2
 427 65 479 34 479 -40 c 0
 479 -77 458 -120 419 -152 c 0
 366 -195 297 -218 221 -218 c 0
 106 -218 40 -169 40 -89 c 0xec90
 40 -25 80 23 148 35 c 1xe9
 142 49 138 64 138 80 c 0xe880
 138 106 154 137 186 175 c 1
 109 192 62 251 62 326 c 0
 62 423 138 491 256 491 c 0xda
 294 491 331 482 369 463 c 1xea
246 452 m 0xda40
 188 452 148 406 148 329 c 0
 148 254 188 206 246 206 c 0
 304 206 344 254 344 329 c 0
 344 405 304 452 246 452 c 0xda40
206 30 m 1
 151 13 120 -24 120 -68 c 0
 120 -126 174 -172 256 -172 c 0
 345 -172 405 -122 405 -66 c 0xcc10
 405 -12 373 -1 303 12 c 2
 206 30 l 1
EndSplineSet
Substitution2: "'smcp' Lowercase to Small Capitals in Latin lookup 4 subtable" gbreve.sc
EndChar

StartChar: Gdotaccent
Encoding: 288 288 222
Width: 694
GlyphClass: 2
Flags: MW
HStem: -12 53<354.5 417.5> 281 41<417 667 417 667> 630 53<318.5 415> 787 106<386 416>
VStem: 43 103<270.5 433 248.5 441.5> 348 107<824.5 854> 505 90<54 262 23 262> 538 56<495 654>
LayerCount: 2
Fore
SplineSet
348 839 m 0x14
 348 869 371 893 401 893 c 0
 431 893 455 870 455 839 c 0
 455 809 431 787 401 787 c 0
 371 787 348 810 348 839 c 0x14
417 322 m 1xea
 667 322 l 1
 667 281 l 1
 612 276 l 1
 595 262 l 1
 595 23 l 1xea
 516 0 447 -12 388 -12 c 0
 321 -12 262 2 216 28 c 0
 108 89 43 205 43 336 c 0
 43 547 181 683 402 683 c 0
 463 683 528 673 594 654 c 1
 594 495 l 1
 538 495 l 1xe9
 523 586 l 1
 509 604 l 1
 472 621 435 630 395 630 c 0
 242 630 146 523 146 343 c 0
 146 154 246 41 403 41 c 0
 432 41 466 45 505 54 c 1
 505 262 l 1
 488 276 l 1
 417 281 l 1
 417 322 l 1xea
EndSplineSet
EndChar

StartChar: gdotaccent
Encoding: 289 289 223
Width: 523
GlyphClass: 2
Flags: MW
HStem: -218 46<215 259> 167 39<222 239 222 222> 416 47<402 512 402 402> 452 39<217 275> 551 106<241 271>
VStem: 40 80<-97 -57> 62 86<291.5 367.5 291.5 374.5> 138 73<72 130> 202 107 344 86<291.5 340.5 278.5 367> 405 74<-58.5 -39>
LayerCount: 2
Fore
SplineSet
256 657 m 0x0880
 286 657 310 634 310 603 c 0
 310 573 286 551 256 551 c 0
 226 551 202 574 202 603 c 0
 202 633 226 657 256 657 c 0x0880
369 463 m 1xe2
 512 463 l 1
 512 416 l 1
 402 416 l 1
 421 387 430 358 430 323 c 0xe240
 430 234 355 167 239 167 c 2
 222 167 l 1
 215 153 211 138 211 122 c 0
 211 117 212 109 213 98 c 1
 309 83 l 2
 427 65 479 34 479 -40 c 0
 479 -77 458 -120 419 -152 c 0
 366 -195 297 -218 221 -218 c 0
 106 -218 40 -169 40 -89 c 0xe520
 40 -25 80 23 148 35 c 1xe2
 142 49 138 64 138 80 c 0xe1
 138 106 154 137 186 175 c 1
 109 192 62 251 62 326 c 0
 62 423 138 491 256 491 c 0xd2
 294 491 331 482 369 463 c 1xe2
246 452 m 0xd240
 188 452 148 406 148 329 c 0
 148 254 188 206 246 206 c 0
 304 206 344 254 344 329 c 0
 344 405 304 452 246 452 c 0xd240
206 30 m 1
 151 13 120 -24 120 -68 c 0
 120 -126 174 -172 256 -172 c 0
 345 -172 405 -122 405 -66 c 0xc420
 405 -12 373 -1 303 12 c 2
 206 30 l 1
EndSplineSet
EndChar

StartChar: uni0122
Encoding: 290 290 224
Width: 694
GlyphClass: 2
Flags: MW
HStem: -347 33<304 304> -171 99<375 414 350 417> -12 53<354.5 417.5> 281 41<417 667 417 667> 630 53<318.5 415>
VStem: 43 103<270.5 433 248.5 441.5> 414 59 505 90<54 262 23 262> 538 56<495 654>
LayerCount: 2
Fore
SplineSet
304 -347 m 1xc2
 304 -314 l 1
 376 -300 414 -255 414 -182 c 2
 414 -171 l 1
 350 -171 l 1
 338 -159 334 -145 334 -127 c 0
 334 -94 358 -72 392 -72 c 0
 442 -72 472 -108 472 -172 c 0
 472 -258 404 -336 304 -347 c 1xc2
417 322 m 1x3d
 667 322 l 1
 667 281 l 1
 612 276 l 1
 595 262 l 1
 595 23 l 1x3d
 516 0 447 -12 388 -12 c 0
 321 -12 262 2 216 28 c 0
 108 89 43 205 43 336 c 0
 43 547 181 683 402 683 c 0
 463 683 528 673 594 654 c 1
 594 495 l 1
 538 495 l 1x3c80
 523 586 l 1
 509 604 l 1
 472 621 435 630 395 630 c 0
 242 630 146 523 146 343 c 0
 146 154 246 41 403 41 c 0
 432 41 466 45 505 54 c 1
 505 262 l 1
 488 276 l 1
 417 281 l 1
 417 322 l 1x3d
EndSplineSet
EndChar

StartChar: Hcircumflex
Encoding: 292 292 225
Width: 738
GlyphClass: 2
Flags: MW
HStem: 0 41<33 276 33 33> 329 46<197 541 197 541> 631 40<33 276 33 276> 743 190<227 401 227 401 337 457 337 511>
VStem: 107 90<60 329 375 611> 227 284<743 743> 541 90<60 329 329 329 375 611 60 611>
CounterMasks: 1 0e
LayerCount: 2
Fore
SplineSet
227 743 m 1
 337 933 l 1
 401 933 l 1
 511 743 l 1
 457 743 l 1
 369 884 l 1
 282 743 l 1
 227 743 l 1
33 671 m 1
 276 671 l 1
 276 631 l 1
 214 625 l 1
 197 611 l 1
 197 375 l 1
 541 375 l 1
 541 611 l 1
 524 625 l 1
 462 631 l 1
 462 671 l 1
 705 671 l 1
 705 631 l 1
 648 625 l 1
 631 611 l 1
 631 60 l 1
 648 46 l 1
 705 41 l 1
 705 0 l 1
 462 0 l 1
 462 41 l 1
 524 46 l 1
 541 60 l 1
 541 329 l 1
 197 329 l 1
 197 60 l 1
 214 46 l 1
 276 41 l 1
 276 0 l 1
 33 0 l 1
 33 41 l 1
 90 46 l 1
 107 60 l 1
 107 611 l 1
 90 625 l 1
 33 631 l 1
 33 671 l 1
EndSplineSet
EndChar

StartChar: hcircumflex
Encoding: 293 293 226
Width: 564
GlyphClass: 2
Flags: MW
HStem: 0 36<25 244 25 25> 425 66<319.5 328> 669 31<19 96 19 19> 716 20G<141 179 179 179> 796 190<140 314 140 314 250 424 250 370>
VStem: 96 83<57 392 431 669 669 669> 140 284<796 796> 392 83<57 322 322 339 57 358.5>
LayerCount: 2
Fore
SplineSet
250 986 m 1x0a
 314 986 l 1
 424 796 l 1
 370 796 l 1
 282 937 l 1
 196 796 l 1
 140 796 l 1
 250 986 l 1x0a
141 736 m 1xf5
 179 736 l 1
 179 431 l 1
 246 468 298 491 341 491 c 0
 428 491 475 439 475 339 c 2
 475 57 l 1
 493 41 l 1
 546 36 l 1
 546 0 l 1
 328 0 l 1
 328 36 l 1
 375 41 l 1
 392 57 l 1
 392 322 l 2
 392 395 365 425 291 425 c 0
 259 425 222 414 179 392 c 1
 179 57 l 1
 197 41 l 1
 244 36 l 1
 244 0 l 1
 25 0 l 1
 25 36 l 1
 79 41 l 1
 96 57 l 1
 96 669 l 1
 19 669 l 1
 19 700 l 1
 141 736 l 1xf5
EndSplineSet
EndChar

StartChar: Itilde
Encoding: 296 296 227
Width: 324
GlyphClass: 2
Flags: MW
HStem: 0 41<35 35 35 288> 631 40<35 288 35 288> 784 54<216 246.5 216 254.5> 836 54<76.5 102>
VStem: 9 42<770 799 780 799 780 816.5> 116 91<60 611 60 611> 273 42<857.5 905 857.5 905>
LayerCount: 2
Fore
SplineSet
9 770 m 1x1a
 9 780 l 2
 9 853 40 890 94 890 c 0x1a
 149 890 200 838 232 838 c 0x2a
 261 838 273 857 273 900 c 2
 273 905 l 1
 314 905 l 1
 314 900 315 895 315 890 c 0x1a
 315 825 278 784 231 784 c 0x2a
 170 784 117 836 87 836 c 0
 66 836 51 816 51 782 c 0
 51 778 52 774 52 770 c 1
 9 770 l 1x1a
35 0 m 1xc4
 35 41 l 1
 99 46 l 1
 116 60 l 1
 116 611 l 1
 99 625 l 1
 35 631 l 1
 35 671 l 1
 288 671 l 1
 288 631 l 1
 224 625 l 1
 207 611 l 1
 207 60 l 1
 224 46 l 1
 288 41 l 1
 288 0 l 1
 35 0 l 1xc4
EndSplineSet
EndChar

StartChar: itilde
Encoding: 297 297 228
Width: 280
GlyphClass: 2
Flags: MW
HStem: 0 36<35 260 35 35> 419 31<35 105 35 35> 466 20G<150 189 189 189> 565 54<181 211.5 181 219.5> 617 54<41.5 67>
VStem: -26 42<551 580 561 580 561 597.5> 105 84<57 419 419 419> 238 42<638.5 686 638.5 686>
LayerCount: 2
Fore
SplineSet
238 686 m 1x15
 279 686 l 1
 279 681 280 676 280 671 c 0x0d
 280 606 243 565 196 565 c 0x15
 135 565 82 617 52 617 c 0
 31 617 16 597 16 563 c 0
 16 559 17 555 17 551 c 1
 -26 551 l 1
 -26 561 l 2
 -26 634 5 671 59 671 c 0x0d
 114 671 165 619 197 619 c 0
 226 619 238 638 238 681 c 2
 238 686 l 1x15
150 486 m 1xe2
 189 486 l 1
 189 57 l 1
 206 41 l 1
 260 36 l 1
 260 0 l 1
 35 0 l 1
 35 36 l 1
 88 41 l 1
 105 57 l 1
 105 419 l 1
 35 419 l 1
 35 450 l 1
 150 486 l 1xe2
EndSplineSet
EndChar

StartChar: Imacron
Encoding: 298 298 229
Width: 324
GlyphClass: 2
Flags: MW
HStem: 0 41<35 35 35 288> 631 40<35 288 35 288> 805 60<12 313 12 313>
VStem: 12 301<805 865 805 865> 116 91<60 611 60 611>
LayerCount: 2
Fore
SplineSet
12 805 m 1x30
 12 865 l 1
 313 865 l 1
 313 805 l 1
 12 805 l 1x30
35 0 m 1xc8
 35 41 l 1
 99 46 l 1
 116 60 l 1
 116 611 l 1
 99 625 l 1
 35 631 l 1
 35 671 l 1
 288 671 l 1
 288 631 l 1
 224 625 l 1
 207 611 l 1
 207 60 l 1
 224 46 l 1
 288 41 l 1
 288 0 l 1
 35 0 l 1xc8
EndSplineSet
EndChar

StartChar: imacron
Encoding: 299 299 230
Width: 280
GlyphClass: 2
Flags: MW
HStem: 0 36<35 260 35 35> 419 31<35 105 35 35> 466 20G<150 189 189 189> 608 60<-4 297 -4 297>
VStem: -4 301<608 668 608 668> 105 84<57 419 419 419>
LayerCount: 2
Fore
SplineSet
-4 608 m 1x18
 -4 668 l 1
 297 668 l 1
 297 608 l 1
 -4 608 l 1x18
150 486 m 1xe4
 189 486 l 1
 189 57 l 1
 206 41 l 1
 260 36 l 1
 260 0 l 1
 35 0 l 1
 35 36 l 1
 88 41 l 1
 105 57 l 1
 105 419 l 1
 35 419 l 1
 35 450 l 1
 150 486 l 1xe4
EndSplineSet
EndChar

StartChar: Ibreve
Encoding: 300 300 231
Width: 324
GlyphClass: 2
Flags: MW
HStem: 0 41<35 35 35 288> 631 40<35 288 35 288> 764 63<126.5 199 126.5 213>
VStem: 21 39<895 898 898 906 871 906> 116 91<60 611 60 611> 264 40<898 906 847 906>
LayerCount: 2
Fore
SplineSet
21 895 m 2
 21 906 l 1
 60 906 l 1
 60 898 l 2
 60 844 90 827 163 827 c 0
 235 827 264 844 264 898 c 2
 264 906 l 1
 304 906 l 1
 304 895 l 2
 304 799 263 764 163 764 c 0
 61 764 21 798 21 895 c 2
35 0 m 1
 35 41 l 1
 99 46 l 1
 116 60 l 1
 116 611 l 1
 99 625 l 1
 35 631 l 1
 35 671 l 1
 288 671 l 1
 288 631 l 1
 224 625 l 1
 207 611 l 1
 207 60 l 1
 224 46 l 1
 288 41 l 1
 288 0 l 1
 35 0 l 1
EndSplineSet
EndChar

StartChar: ibreve
Encoding: 301 301 232
Width: 280
GlyphClass: 2
Flags: MW
HStem: 0 36<35 260 35 35> 419 31<35 105 35 35> 466 20G<150 189 189 189> 551 63<111 184 111 198>
VStem: 6 39 105 84<57 419 419 419> 248 40<685 693 634 693>
LayerCount: 2
Fore
SplineSet
6 693 m 1
 44 693 l 1
 44 685 l 2
 44 631 74 614 148 614 c 0
 220 614 248 631 248 685 c 2
 248 693 l 1
 288 693 l 1
 288 682 l 2
 288 586 248 551 148 551 c 0
 46 551 6 585 6 682 c 2
 6 693 l 1
150 486 m 1
 189 486 l 1
 189 57 l 1
 206 41 l 1
 260 36 l 1
 260 0 l 1
 35 0 l 1
 35 36 l 1
 88 41 l 1
 105 57 l 1
 105 419 l 1
 35 419 l 1
 35 450 l 1
 150 486 l 1
EndSplineSet
EndChar

StartChar: Iogonek
Encoding: 302 302 233
Width: 324
GlyphClass: 2
Flags: MW
HStem: -209 53<248 256> -13 20G<220 264 264 264> 0 41<35 35 35 288> 631 40<35 288 35 288>
VStem: 116 91<60 611 60 611> 152 58<-117.5 -101>
LayerCount: 2
Fore
SplineSet
220 7 m 1xc4
 264 7 l 1
 228 -23 210 -62 210 -99 c 0
 210 -136 230 -156 266 -156 c 0
 274 -156 286 -154 300 -152 c 1
 300 -202 l 1
 282 -207 264 -209 248 -209 c 0
 184 -209 152 -179 152 -124 c 0
 152 -78 176 -27 220 7 c 1xc4
35 0 m 1x38
 35 41 l 1
 99 46 l 1
 116 60 l 1
 116 611 l 1
 99 625 l 1
 35 631 l 1
 35 671 l 1
 288 671 l 1
 288 631 l 1
 224 625 l 1
 207 611 l 1
 207 60 l 1
 224 46 l 1
 288 41 l 1
 288 0 l 1
 35 0 l 1x38
EndSplineSet
EndChar

StartChar: iogonek
Encoding: 303 303 234
Width: 280
GlyphClass: 2
Flags: MW
HStem: -209 53<224 232> -13 20G<196 240 240 240> 0 36<35 260 35 35> 419 31<35 105 35 35> 466 20G<150 188 188 188> 593 115<130 162>
VStem: 88 116<634 666 634 666.5> 105 83<57 419 419 419> 128 58<-117.5 -101>
LayerCount: 2
Fore
SplineSet
196 7 m 1xc080
 240 7 l 1
 204 -23 186 -62 186 -99 c 0
 186 -136 206 -156 242 -156 c 0
 250 -156 262 -154 276 -152 c 1
 276 -202 l 1
 258 -207 240 -209 224 -209 c 0
 160 -209 128 -179 128 -124 c 0
 128 -78 152 -27 196 7 c 1xc080
146 708 m 0x3e
 178 708 204 682 204 650 c 0
 204 618 178 593 146 593 c 0
 114 593 88 618 88 650 c 0
 88 683 114 708 146 708 c 0x3e
150 486 m 1
 188 486 l 1
 188 57 l 1x3d
 206 41 l 1
 260 36 l 1
 260 0 l 1
 35 0 l 1
 35 36 l 1
 88 41 l 1x3e
 105 57 l 1
 105 419 l 1x3d
 35 419 l 1
 35 450 l 1
 150 486 l 1
EndSplineSet
EndChar

StartChar: Idotaccent
Encoding: 304 304 235
Width: 324
GlyphClass: 2
Flags: MW
HStem: 0 41<35 35 35 288> 631 40<35 288 35 288> 787 101<147 175>
VStem: 116 91<60 611 60 611>
LayerCount: 2
Fore
SplineSet
161 888 m 0
 189 888 211 866 211 837 c 0
 211 809 189 787 161 787 c 0
 133 787 110 809 110 837 c 0
 110 866 133 888 161 888 c 0
35 0 m 1
 35 41 l 1
 99 46 l 1
 116 60 l 1
 116 611 l 1
 99 625 l 1
 35 631 l 1
 35 671 l 1
 288 671 l 1
 288 631 l 1
 224 625 l 1
 207 611 l 1
 207 60 l 1
 224 46 l 1
 288 41 l 1
 288 0 l 1
 35 0 l 1
EndSplineSet
Substitution2: "'c2sc' Capitals to Small Capitals in Latin lookup 6 subtable" i.TRKsc
EndChar

StartChar: dotlessi
Encoding: 305 305 236
Width: 280
GlyphClass: 2
Flags: MW
HStem: 0 36<35 260 35 35> 419 31<35 105 35 35> 466 20G<150 189 189 189>
VStem: 105 84<57 419 419 419>
AnchorPoint: "Anchor-2" 146 0 basechar 0
AnchorPoint: "Anchor-1" 146 491 basechar 0
LayerCount: 2
Fore
SplineSet
150 486 m 1
 189 486 l 1
 189 57 l 1
 206 41 l 1
 260 36 l 1
 260 0 l 1
 35 0 l 1
 35 36 l 1
 88 41 l 1
 105 57 l 1
 105 419 l 1
 35 419 l 1
 35 450 l 1
 150 486 l 1
EndSplineSet
Substitution2: "'smcp' Lowercase to Small Capitals in Latin lookup 4 subtable" i.sc
EndChar

StartChar: IJ
Encoding: 306 306 237
Width: 768
GlyphClass: 2
Flags: MW
HStem: -12 48<460 512.5 460 543.5> 0 41<35 35 35 288> 631 40<35 288 35 288>
VStem: 116 91<60 611 60 611> 336 56<12 179 179 179> 595 90<252 256 256 611>
LayerCount: 2
Fore
SplineSet
595 611 m 1xbc
 578 625 l 1
 511 631 l 1
 511 671 l 1
 764 671 l 1
 764 631 l 1
 702 625 l 1
 685 611 l 1
 685 256 l 2
 685 75 620 -12 467 -12 c 0
 425 -12 382 -4 336 12 c 1
 336 179 l 1
 392 179 l 1
 416 53 l 1
 430 40 l 1
 443 37 455 36 465 36 c 0
 560 36 595 107 595 252 c 2
 595 611 l 1xbc
35 0 m 1x7c
 35 41 l 1
 99 46 l 1
 116 60 l 1
 116 611 l 1
 99 625 l 1
 35 631 l 1
 35 671 l 1
 288 671 l 1
 288 631 l 1
 224 625 l 1
 207 611 l 1
 207 60 l 1
 224 46 l 1
 288 41 l 1
 288 0 l 1
 35 0 l 1x7c
EndSplineSet
Substitution2: "'c2sc' Capitals to Small Capitals in Latin lookup 6 subtable" ij.sc
EndChar

StartChar: ij
Encoding: 307 307 238
Width: 526
GlyphClass: 2
Flags: MW
HStem: -218 21G<229 278> 0 36<35 260 35 35> 419 31<35 105 35 35> 466 20G<150 188 188 188 414 452 452 452> 593 115<138 170 390 422>
VStem: 96 116<634 666 634 666.5> 105 83<57 419 419 419> 348 116<634 666 634 666.5> 369 83<32.5 84 84 419 419 419>
LayerCount: 2
Fore
SplineSet
154 708 m 0xfc
 186 708 212 682 212 650 c 0
 212 618 186 593 154 593 c 0
 122 593 96 618 96 650 c 0
 96 683 122 708 154 708 c 0xfc
150 486 m 1
 188 486 l 1
 188 57 l 1
 206 41 l 1
 260 36 l 1
 260 0 l 1
 35 0 l 1
 35 36 l 1
 88 41 l 1
 105 57 l 1
 105 419 l 1xfa
 35 419 l 1
 35 450 l 1
 150 486 l 1
369 419 m 1xf880
 298 419 l 1
 298 450 l 1
 414 486 l 1
 452 486 l 1
 452 84 l 2
 452 -19 450 -93 395 -153 c 0
 356 -195 305 -218 251 -218 c 0
 207 -218 182 -196 182 -164 c 0
 182 -142 194 -123 219 -112 c 1
 316 -171 l 1
 353 -159 369 -108 369 -16 c 2
 369 419 l 1xf880
348 650 m 0xf9
 348 683 374 708 406 708 c 0
 438 708 464 682 464 650 c 0
 464 618 438 593 406 593 c 0
 374 593 348 618 348 650 c 0xf9
EndSplineSet
Substitution2: "'smcp' Lowercase to Small Capitals in Latin lookup 4 subtable" ij.sc
EndChar

StartChar: Jcircumflex
Encoding: 308 308 239
Width: 444
GlyphClass: 2
Flags: MW
HStem: -12 48<136 188.5 136 219.5> 631 40<187 440 187 440> 743 190<174 348 174 348 284 404 284 458>
VStem: 12 56<12 179 179 179> 174 284<743 743> 271 90<252 256 256 611>
LayerCount: 2
Fore
SplineSet
174 743 m 1x28
 284 933 l 1
 348 933 l 1
 458 743 l 1
 404 743 l 1
 316 884 l 1
 229 743 l 1
 174 743 l 1x28
271 611 m 1xd4
 254 625 l 1
 187 631 l 1
 187 671 l 1
 440 671 l 1
 440 631 l 1
 378 625 l 1
 361 611 l 1
 361 256 l 2
 361 75 296 -12 143 -12 c 0
 101 -12 58 -4 12 12 c 1
 12 179 l 1
 68 179 l 1
 92 53 l 1
 106 40 l 1
 119 37 131 36 141 36 c 0
 236 36 271 107 271 252 c 2
 271 611 l 1xd4
EndSplineSet
EndChar

StartChar: jcircumflex
Encoding: 309 309 240
Width: 266
GlyphClass: 2
Flags: MW
HStem: -218 21G<-31 18> 419 31<38 109 38 38> 466 20G<154 192 192 192> 551 190<8 182 8 182 118 292 118 238>
VStem: 8 284<551 551> 109 83<32.5 84 84 419 419 419>
LayerCount: 2
Fore
SplineSet
118 741 m 1x18
 182 741 l 1
 292 551 l 1
 238 551 l 1
 150 692 l 1
 63 551 l 1
 8 551 l 1
 118 741 l 1x18
109 419 m 1xe4
 38 419 l 1
 38 450 l 1
 154 486 l 1
 192 486 l 1
 192 84 l 2
 192 -19 190 -93 135 -153 c 0
 96 -195 45 -218 -9 -218 c 0
 -53 -218 -78 -196 -78 -164 c 0
 -78 -142 -66 -123 -41 -112 c 1
 56 -171 l 1
 93 -159 109 -108 109 -16 c 2
 109 419 l 1xe4
EndSplineSet
EndChar

StartChar: uni0136
Encoding: 310 310 241
Width: 611
GlyphClass: 2
Flags: MW
HStem: -335 33<246 246> -159 99<317 356 292 359> 0 41<33 33 33 276> 299 41<197 235 197 271 197 235> 631 40<33 276 33 276>
VStem: 107 90<60 299 340 611> 356 59
LayerCount: 2
Fore
SplineSet
246 -335 m 1
 246 -302 l 1
 318 -288 356 -243 356 -170 c 2
 356 -159 l 1
 292 -159 l 1
 280 -147 276 -133 276 -115 c 0
 276 -82 300 -60 334 -60 c 0
 384 -60 414 -96 414 -160 c 0
 414 -246 346 -324 246 -335 c 1
33 0 m 1
 33 41 l 1
 90 46 l 1
 107 60 l 1
 107 611 l 1
 90 625 l 1
 33 631 l 1
 33 671 l 1
 276 671 l 1
 276 631 l 1
 214 625 l 1
 197 611 l 1
 197 340 l 1
 235 340 l 1
 457 611 l 1
 451 625 l 1
 395 631 l 1
 395 671 l 1
 603 671 l 1
 603 631 l 1
 537 622 l 1
 327 372 l 1
 554 46 l 1
 627 41 l 1
 627 0 l 1
 462 0 l 1
 462 30 l 1
 271 299 l 1
 197 299 l 1
 197 60 l 1
 214 46 l 1
 276 41 l 1
 276 0 l 1
 33 0 l 1
EndSplineSet
EndChar

StartChar: uni0137
Encoding: 311 311 242
Width: 517
GlyphClass: 2
Flags: MW
HStem: -335 33<192 192> -159 99<264 302 238 306> 0 36<25 25 25 244> 227 28<179 198 179 237 179 198> 444 37<299 489 299 489> 669 31<19 96 19 19> 716 20G<141 179 179 179>
VStem: 96 83<57 227 255 669 669 669> 302 59<-170 -159 -159 -159>
LayerCount: 2
Fore
SplineSet
192 -335 m 1
 192 -302 l 1
 265 -288 302 -243 302 -170 c 2
 302 -159 l 1
 238 -159 l 1
 227 -147 222 -133 222 -115 c 0
 222 -82 247 -60 281 -60 c 0
 331 -60 361 -96 361 -160 c 0
 361 -246 293 -324 192 -335 c 1
25 0 m 1
 25 36 l 1
 79 41 l 1
 96 57 l 1
 96 669 l 1
 19 669 l 1
 19 700 l 1
 141 736 l 1
 179 736 l 1
 179 255 l 1
 198 255 l 1
 351 426 l 1
 344 440 l 1
 299 444 l 1
 299 481 l 1
 489 481 l 1
 489 444 l 1
 425 436 l 1
 288 291 l 1
 464 43 l 1
 528 38 l 1
 528 0 l 1
 372 0 l 1
 372 33 l 1
 237 227 l 1
 179 227 l 1
 179 57 l 1
 197 41 l 1
 244 36 l 1
 244 0 l 1
 25 0 l 1
EndSplineSet
EndChar

StartChar: Lacute
Encoding: 313 313 243
Width: 520
GlyphClass: 2
Flags: MW
HStem: 0 46<90 90 197 423> 631 40<27 271 27 271>
VStem: 107 90<60 611 46 611> 454 52<0 182>
LayerCount: 2
Fore
SplineSet
249 936 m 1
 348 936 l 1
 202 746 l 1
 152 746 l 1
 249 936 l 1
27 0 m 1
 27 41 l 1
 90 46 l 1
 107 60 l 1
 107 611 l 1
 90 625 l 1
 27 631 l 1
 27 671 l 1
 271 671 l 1
 271 631 l 1
 214 625 l 1
 197 611 l 1
 197 46 l 1
 423 46 l 1
 437 62 l 1
 454 182 l 1
 506 182 l 1
 506 0 l 1
 27 0 l 1
EndSplineSet
Substitution2: "'c2sc' Capitals to Small Capitals in Latin lookup 6 subtable" lacute.sc
EndChar

StartChar: lacute
Encoding: 314 314 244
Width: 282
GlyphClass: 2
Flags: MW
HStem: 0 36<28 28 28 262> 669 31<27 104 27 27> 716 20G<149 187 187 187>
VStem: 104 83<57 669 669 669>
LayerCount: 2
Fore
SplineSet
154 956 m 1
 253 956 l 1
 107 766 l 1
 57 766 l 1
 154 956 l 1
28 0 m 1
 28 36 l 1
 87 41 l 1
 104 57 l 1
 104 669 l 1
 27 669 l 1
 27 700 l 1
 149 736 l 1
 187 736 l 1
 187 57 l 1
 205 41 l 1
 262 36 l 1
 262 0 l 1
 28 0 l 1
EndSplineSet
Substitution2: "'smcp' Lowercase to Small Capitals in Latin lookup 4 subtable" lacute.sc
EndChar

StartChar: uni013B
Encoding: 315 315 245
Width: 520
GlyphClass: 2
Flags: MW
HStem: -335 33<182 182> -159 99<254 292 228 296> 0 46<90 90 197 423> 631 40<27 271 27 271>
VStem: 107 90<60 611 46 611> 292 59<-170 -159 -159 -159> 454 52<0 182>
LayerCount: 2
Fore
SplineSet
182 -335 m 1
 182 -302 l 1
 255 -288 292 -243 292 -170 c 2
 292 -159 l 1
 228 -159 l 1
 217 -147 212 -133 212 -115 c 0
 212 -82 237 -60 271 -60 c 0
 321 -60 351 -96 351 -160 c 0
 351 -246 283 -324 182 -335 c 1
27 0 m 1
 27 41 l 1
 90 46 l 1
 107 60 l 1
 107 611 l 1
 90 625 l 1
 27 631 l 1
 27 671 l 1
 271 671 l 1
 271 631 l 1
 214 625 l 1
 197 611 l 1
 197 46 l 1
 423 46 l 1
 437 62 l 1
 454 182 l 1
 506 182 l 1
 506 0 l 1
 27 0 l 1
EndSplineSet
EndChar

StartChar: uni013C
Encoding: 316 316 246
Width: 282
GlyphClass: 2
Flags: MW
HStem: -335 33<60 60> -159 99<133 170 106 175> 0 36<28 28 28 262> 669 31<27 104 27 27> 716 20G<149 187 187 187>
VStem: 104 83<57 669 669 669> 170 59
LayerCount: 2
Fore
SplineSet
60 -335 m 1xc2
 60 -302 l 1
 134 -288 170 -243 170 -170 c 2
 170 -159 l 1
 106 -159 l 1
 96 -147 90 -133 90 -115 c 0
 90 -82 116 -60 150 -60 c 0
 200 -60 230 -96 230 -160 c 0
 230 -246 162 -324 60 -335 c 1xc2
28 0 m 1x3c
 28 36 l 1
 87 41 l 1
 104 57 l 1
 104 669 l 1
 27 669 l 1
 27 700 l 1
 149 736 l 1
 187 736 l 1
 187 57 l 1
 205 41 l 1
 262 36 l 1
 262 0 l 1
 28 0 l 1x3c
EndSplineSet
EndChar

StartChar: Lcaron
Encoding: 317 317 247
Width: 520
GlyphClass: 2
Flags: MW
HStem: 0 46<90 90 197 423> 619 94<383 419 354 424.5> 631 40<27 271 27 271>
VStem: 107 90<60 611 46 611> 421 59<592.5 600> 454 52<0 182>
LayerCount: 2
Fore
SplineSet
384 442 m 1xd8
 341 442 l 1
 394 500 421 549 421 596 c 0
 421 604 421 611 419 619 c 1
 354 619 l 1
 345 632 341 644 341 656 c 0
 341 688 365 713 401 713 c 0
 448 713 480 677 480 621 c 0
 480 564 448 503 384 442 c 1xd8
27 0 m 1
 27 41 l 1
 90 46 l 1
 107 60 l 1
 107 611 l 1
 90 625 l 1
 27 631 l 1
 27 671 l 1
 271 671 l 1
 271 631 l 1
 214 625 l 1
 197 611 l 1
 197 46 l 1
 423 46 l 1
 437 62 l 1
 454 182 l 1
 506 182 l 1
 506 0 l 1xb4
 27 0 l 1
EndSplineSet
Substitution2: "'c2sc' Capitals to Small Capitals in Latin lookup 6 subtable" lcaron.sc
EndChar

